<mxfile host="app.diagrams.net" agent="Mozilla/5.0 (Macintosh; Intel Mac OS X 10_15_7) AppleWebKit/537.36 (KHTML, like Gecko) Chrome/130.0.0.0 Safari/537.36" version="24.8.3">
  <diagram id="Ht1M8jgEwFfnCIfOTk4-" name="Page-1">
    <mxGraphModel dx="1422" dy="3148" grid="1" gridSize="10" guides="1" tooltips="1" connect="1" arrows="1" fold="1" page="1" pageScale="1" pageWidth="2080" pageHeight="2200" math="0" shadow="0">
      <root>
        <mxCell id="0" />
        <mxCell id="1" parent="0" />
        <mxCell id="UEzPUAAOIrF-is8g5C7q-164" style="edgeStyle=orthogonalEdgeStyle;rounded=0;orthogonalLoop=1;jettySize=auto;html=1;startArrow=none;startFill=0;endArrow=open;endFill=0;strokeColor=#808080;strokeWidth=2;" parent="1" edge="1">
          <mxGeometry relative="1" as="geometry">
            <Array as="points">
              <mxPoint x="413.22" y="-680" />
              <mxPoint x="413.22" y="-589" />
            </Array>
            <mxPoint x="300.11330047256206" y="-680" as="sourcePoint" />
            <mxPoint x="462.22" y="-589" as="targetPoint" />
          </mxGeometry>
        </mxCell>
        <mxCell id="UEzPUAAOIrF-is8g5C7q-165" style="edgeStyle=orthogonalEdgeStyle;rounded=0;orthogonalLoop=1;jettySize=auto;html=1;startArrow=none;startFill=0;endArrow=open;endFill=0;strokeColor=#808080;strokeWidth=2;" parent="1" edge="1">
          <mxGeometry relative="1" as="geometry">
            <Array as="points">
              <mxPoint x="413.22" y="-520" />
              <mxPoint x="413.22" y="-589" />
            </Array>
            <mxPoint x="299.9994408230939" y="-520" as="sourcePoint" />
            <mxPoint x="462.22" y="-589" as="targetPoint" />
          </mxGeometry>
        </mxCell>
        <mxCell id="UEzPUAAOIrF-is8g5C7q-166" style="edgeStyle=orthogonalEdgeStyle;rounded=0;orthogonalLoop=1;jettySize=auto;html=1;startArrow=none;startFill=0;endArrow=open;endFill=0;strokeColor=#808080;strokeWidth=2;" parent="1" edge="1">
          <mxGeometry relative="1" as="geometry">
            <mxPoint x="654.9999999999998" y="-546" as="sourcePoint" />
            <mxPoint x="655.0666666666666" y="-443.98184019370456" as="targetPoint" />
          </mxGeometry>
        </mxCell>
        <mxCell id="UEzPUAAOIrF-is8g5C7q-170" style="edgeStyle=orthogonalEdgeStyle;rounded=0;orthogonalLoop=1;jettySize=auto;html=1;startArrow=none;startFill=0;endArrow=open;endFill=0;strokeColor=#808080;strokeWidth=2;" parent="1" target="UEzPUAAOIrF-is8g5C7q-151" edge="1">
          <mxGeometry relative="1" as="geometry">
            <mxPoint x="655" y="-397.01815980629544" as="sourcePoint" />
          </mxGeometry>
        </mxCell>
        <mxCell id="UEzPUAAOIrF-is8g5C7q-171" style="edgeStyle=orthogonalEdgeStyle;rounded=0;orthogonalLoop=1;jettySize=auto;html=1;startArrow=none;startFill=0;endArrow=open;endFill=0;strokeColor=#808080;strokeWidth=2;" parent="1" source="UEzPUAAOIrF-is8g5C7q-151" target="UEzPUAAOIrF-is8g5C7q-152" edge="1">
          <mxGeometry relative="1" as="geometry" />
        </mxCell>
        <mxCell id="UEzPUAAOIrF-is8g5C7q-173" style="edgeStyle=orthogonalEdgeStyle;rounded=0;orthogonalLoop=1;jettySize=auto;html=1;startArrow=none;startFill=0;endArrow=open;endFill=0;strokeColor=#808080;strokeWidth=2;" parent="1" source="UEzPUAAOIrF-is8g5C7q-157" target="UEzPUAAOIrF-is8g5C7q-158" edge="1">
          <mxGeometry relative="1" as="geometry">
            <Array as="points">
              <mxPoint x="1280" y="-195" />
              <mxPoint x="1280" y="-246" />
            </Array>
          </mxGeometry>
        </mxCell>
        <mxCell id="UEzPUAAOIrF-is8g5C7q-151" value="Lambda&lt;br&gt;Function&lt;br&gt;" style="outlineConnect=0;fontColor=#232F3E;gradientColor=none;fillColor=#D05C17;strokeColor=none;dashed=0;verticalLabelPosition=bottom;verticalAlign=top;align=center;html=1;fontSize=12;fontStyle=0;aspect=fixed;pointerEvents=1;shape=mxgraph.aws4.lambda_function;labelBackgroundColor=#ffffff;" parent="1" vertex="1">
          <mxGeometry x="616" y="-304" width="78" height="78" as="geometry" />
        </mxCell>
        <mxCell id="UEzPUAAOIrF-is8g5C7q-152" value="Amazon CloudWatch" style="outlineConnect=0;fontColor=#232F3E;gradientColor=#F34482;gradientDirection=north;fillColor=#BC1356;strokeColor=#ffffff;dashed=0;verticalLabelPosition=bottom;verticalAlign=top;align=center;html=1;fontSize=12;fontStyle=0;aspect=fixed;shape=mxgraph.aws4.resourceIcon;resIcon=mxgraph.aws4.cloudwatch;labelBackgroundColor=#ffffff;" parent="1" vertex="1">
          <mxGeometry x="816" y="-304" width="78" height="78" as="geometry" />
        </mxCell>
        <mxCell id="UEzPUAAOIrF-is8g5C7q-155" value="" style="rounded=0;whiteSpace=wrap;html=1;dashed=1;labelBackgroundColor=#ffffff;fillColor=none;gradientColor=none;container=1;pointerEvents=0;collapsible=0;recursiveResize=0;" parent="1" vertex="1">
          <mxGeometry x="762.5" y="-350" width="185" height="310" as="geometry" />
        </mxCell>
        <mxCell id="b1W5nlMtBY8Uv-4wOHBY-45" style="edgeStyle=orthogonalEdgeStyle;rounded=0;orthogonalLoop=1;jettySize=auto;html=1;" edge="1" parent="1" source="UEzPUAAOIrF-is8g5C7q-156">
          <mxGeometry relative="1" as="geometry">
            <mxPoint x="620" y="-591" as="targetPoint" />
          </mxGeometry>
        </mxCell>
        <mxCell id="UEzPUAAOIrF-is8g5C7q-156" value="FIelds passed&lt;div&gt;&lt;br&gt;&lt;/div&gt;" style="outlineConnect=0;fontColor=#232F3E;gradientColor=none;fillColor=#BC1356;strokeColor=none;dashed=0;verticalLabelPosition=bottom;verticalAlign=top;align=center;html=1;fontSize=12;fontStyle=0;aspect=fixed;pointerEvents=1;shape=mxgraph.aws4.template;labelBackgroundColor=#ffffff;" parent="1" vertex="1">
          <mxGeometry x="470" y="-630" width="65" height="78" as="geometry" />
        </mxCell>
        <mxCell id="UEzPUAAOIrF-is8g5C7q-157" value="Template" style="outlineConnect=0;fontColor=#232F3E;gradientColor=none;fillColor=#BC1356;strokeColor=none;dashed=0;verticalLabelPosition=bottom;verticalAlign=top;align=center;html=1;fontSize=12;fontStyle=0;aspect=fixed;pointerEvents=1;shape=mxgraph.aws4.template;labelBackgroundColor=#ffffff;" parent="1" vertex="1">
          <mxGeometry x="1116" y="-234" width="65" height="78" as="geometry" />
        </mxCell>
        <mxCell id="UEzPUAAOIrF-is8g5C7q-158" value="Amazon S3&lt;br&gt;Bucket&lt;br&gt;" style="outlineConnect=0;fontColor=#232F3E;gradientColor=none;fillColor=#277116;strokeColor=none;dashed=0;verticalLabelPosition=bottom;verticalAlign=top;align=center;html=1;fontSize=12;fontStyle=0;aspect=fixed;pointerEvents=1;shape=mxgraph.aws4.bucket_with_objects;labelBackgroundColor=#ffffff;" parent="1" vertex="1">
          <mxGeometry x="1338.5" y="-285" width="75" height="78" as="geometry" />
        </mxCell>
        <mxCell id="b1W5nlMtBY8Uv-4wOHBY-29" style="edgeStyle=orthogonalEdgeStyle;rounded=0;orthogonalLoop=1;jettySize=auto;html=1;entryX=0;entryY=0.5;entryDx=0;entryDy=0;" edge="1" parent="1" source="b1W5nlMtBY8Uv-4wOHBY-4" target="b1W5nlMtBY8Uv-4wOHBY-28">
          <mxGeometry relative="1" as="geometry" />
        </mxCell>
        <mxCell id="b1W5nlMtBY8Uv-4wOHBY-4" value="" style="shape=image;imageAspect=0;aspect=fixed;verticalLabelPosition=bottom;verticalAlign=top;image=data:image/png,iVBORw0KGgoAAAANSUhEUgAAAtgAAAIACAMAAACPYOt1AAAABGdBTUEAALGPC/xhBQAAAAFzUkdCAK7OHOkAAAL6UExURUdwTACe3QCh4ACg3wB//wCg4QCg3gD//wC2/wCi0QCZ5QCi3wCg4gCf3wCg4ACk4QCg4ACh3QCh4ACg4ACh3QCh3wCh4ACh3wCi3wCh4ACj4wCg4ACh4ACh3wCg3wCe3QCh4ACh4ACg3wCi4ACh3wCh3wCf3gCh3wCh4ACg4ACg3gCg3wCh3wCg4ACg3wCg4ACg4ACi4ACe3ACh3wCg4ACh4ACf3gCf4QCi3gCg3wCg4ACg4ACh3wCh3wCh3gCh4ACg4ACi4ACh3gCe4ACi4ACh4ACh4ACf4ACh4ACh3wCg4ACe4ACh3wCg4ACh4QCh3gCe3QCh4ACi4QCR2gCh3gCg4ACh5ACh4ACh4ACg4ACh3gCh4QCh4ACh4ACg3wCh4ACh4ACh3QCj4ACe3QCf4ACf4ACe4QCh3wCf3wCh4ACb4gCe3QCg4ACe4ACe3QCf3wCe4ACe4ACf4ACg4ACh3gCf4ACg3wCh3wCh4ACh4P///3jN7yCt5Aik4QKi4Cyx5YzV8QWj4f7//0y96XTM7vz+/wul4ROo4h6s5AGh4GjH7d3y++H0+/T7/uf2/Em86VfB69/z+/3+/zm25xur4+X1/Beq4+L0+/j8/iKu5FG/6vH6/Q2m4jy35xWp46nf9YrU8S6y5nzP7/D5/XfN7pra8/f8/tHu+XrO71/E7HLL7iSv5Ciw5YHR8Nbw+vr9/tnx+g+n4q7i9W7K7WXH7DK05sDo91nC67Tj9p/c88bq+NTv+pbY8uz4/WvJ7YLR8Mrr+aLd9Ea76WLF7Lbk9kC56DW155HW8vX7/r7n92nI7dvy+53b86vg9Te25zCz5hGn4vL6/UO66Lnl9sLp+M/t+U6+6vn9/szs+WTG7Cav5ZLX8iqx5abf9FvD64XS8IfT8eT1/Aql4X/Q75jZ8rPj9qTd9I7W8VPA6sPp+On3/Oj3/O34/TS05rDi9ZXY8snr+D646LHi9rzm987t+dLu+j+46Or3/Nfw+nDK7lXB6l3E62/K7cTp+GpJkAYAAAB5dFJOUwD+PRQCJRwBAwUKIDT0jAh4/WSD5VGGWSj4Cy1B7En88kWJa5ow+4DA0jecX+PbulwQDmlmj+wZF7yfsZCi1d98OcX5dbZ+2JdxqemsU03d9q4qB81tE8pvS6RW+nOTp/D1MuaVzyJgw+gS3qXh7svG8UPITzu0Ytclrv0PAAAgAElEQVR42uzde2xT1x0H8NhxYvLEjpM4jvPGeZg8TBICJonzfjiQEEISIAScBEQgTXingZO209hUUKdW09qpaqtSUbTBumnrStd2ousqOjTRdaCtYyuV9tI0VrEXaB0SmjRpW9VtMSSOfe8595xz+X7+r3Lu735rzj3PqCjp9K92Zg2vHNxuKU5PDgRqktOLt1evmDZmeJdEAUgnLiHriM23pzGJLMQwMVDnb+vZUYligQzMCeub1h7NJWGbWBOobs5E4UBc3p6aljyihKFzajAxDhUE4X6ondW+SaLOhhJb1lKUEoRROVyaSuhwlFicZlQU+P9UFza15BKqyl05/Sgs8OS0dRIW8kZ64lFd4COjo4Gwk+TLwVg3aC4zZTNhbV3yRhQatOxYJ7qSiCYOp6BLAhqJX7mLaGe0JgYlB/a8tlVEYzNGjAAC4w9Gl4NwMGDHhySwk1hHeKnYjRl3YMPZR3hqTEG0gUEnZC3hrcJu4lmB/tjEoRWDTen1rlrfyIiv1uVP7uhK6THGVOITQFqxPisRgDufw7MvGc8ZrK/bFeKbubXCU9o0XIgVXLKJ79hABOFxavngmcYttQNhP7uhccaWloCfb1mY7eVEHFb/Jm2eOuaIq8GgoIHZMxYjZpVkGAppIWLJXsl87C82ZWqnmiZu29PRjAFKoWXWG4hw9u9g2aU2JlNZ3HWwuywa+RFVzl4iotxkRv/Yxw3VUpxYtbZ0xSJDAoreSkQ1mcXgt/pQ7Sj1hu4Z9CJIgrGvIgILUN7aHpPO6Bu5qG4aU0sCqfIRsfUa6T1sv72E6fduQQICJYgHG4norMWURh5ibetYt9Uwk2NCqPiLs1mJBFpo/BAW+oo0aezRFOxR5i3hMJHDwTSVT2rO8mjX2glLFbLFU/4qIo1kNR9m5nyNZ59GOxBtbswWK5FIy2rFT5rFYVIV0eY2GtJH5LJzucK+tYdPe9ctw+gfBxmdRDatR5SMhPj4rRXo7cESQK0Z9xEJJUc67sd7IW6JE1HT1IptREp9EU1DmtO4L8S1BnDkvYafjR1EVgMRrMhImBGhxRN29Ee0mpWpJfKaDPdcnSVbxgRpcjvm2TUR305klp0Y3sexQHNPY8swza7BMF8JkVtSGCtZTV0Oodq8Bj/arD2wmcjOkbPoGJ9w//PmlaGnzZTXTeS3bZGVIz2jAjZ6CjORDMV2Ej3I7QnxjEtdgn72Lkf+mP1e6yPXhBQt/Jsds0vYf2gG0R1h1L92E70oml7gGdPyBG71CG5wZTIespnoR+u8p6CZbGK3ugGn29OXuYfoSdI8XdaqOtFbnZ2FINKeb/QQfRm9Z4FRggRdrdxqRJEqs4/oTepdp9QkrpOi2fU4FI2mYqI/DUEr54bGJGl2N84hpqeM6FHJnD0qKfJsdGt5AIGk5FCRLoNNSv87Mmy2yNRs92pEkoqNo0Snuj7NdYFcze7FoigqA9gVes01sX6yIMockK3d5RmIpWqmOqJfozH/fkC/fO2eQLJVayJ65s40+2Vs904kW6Ucg66DTUYCcrZ7J6bXVRnfR0BIe3ENgpqZ9P1IkKg6cXmNcunIj7h2YVeNUkYD4iMwD473U6ayHOERWi021ShhXovoCK4YKVWgDMERnh0xjZgXI33icyQiqJFCR0QGqVjqF6FphEYKBzA0EpGqVGRGDvUIayT8SIwshpHW8DUjL9JIwnqosJmwRkQiA4q72ebKmOYhe3VbcUHAX1pbW+qvL7A1tW3Zvb45ZpMuT+XGELZUCiJ9v5nOtC013Yf3hrpMyLqqc42ryd7s1dH0ZtUEwiKV/PBfrbE6sCaygQFHZ3fHdIIu4o1FfbKNZodzu1hVlqV7UvGfONjiX7lR8u7JeCuiIhnfIq80doXLTWGp5r4Zi1HiA3sw5yif9Qu/zmi7q5fiX9p2wPagnOesFSIm8pmY/3wo03LbAINF9fvWlnnlC3YdYiIh170vsj+nlOFJmwPFG+XKdSJCIiVj8GuMG/IdZP0n3U0yzQ21IyNSapgzTWMyujRadDzQJst5a5hMl5Xlf0MgHZNa/l3PsBQLDD1IiKSSPlmavSStXfMt2NkF4ndJMCQiL19UlLeJ0wbsErvgP9s+5ENeZbUcp9ZS20Q+5yS2CPEAhfKSxT12rQCvB5Qr8jkFXdY3ipcDqvQJGe0teDGgkmFKvCES81G8F1Att1S0SRsjXgrQsC2wCWN9oEf7BgVa2lq5AS8EaGk4JEywl+FtAM0BknFBPh3deBdAU2txvwjBduJNAO3+yHLsTQc9MtRkcu+JVOA1AH2N+ZyDvQPvAJgo5fujjfVPwEgFz3sXzI14AcBIURu/M6SwOR0YWsNtqXYxig8MZU9zCvZh1B6YKuCyeiQat0sDYx4eS/7sqDuw1liIFaugR44VWufalI2qgwZqNO5o45wc0EZdvKbBHkTFQRubNT1ZewQFB430ZmgY7HLUG7SSbdTuZDNUGzQcHEnDKDboUa5do2AHUGvQkuEIFoqALi3TZHpmDIUGjW3XINgxKDNoroN9sNNQZdBeG/Ngd6DIwMFK1sHuQ42Bx9gI68V+OFEEuMhlu18szooSAxetTE/TGUeBgZMxlkeOHEJ9gZcJhucypKC8wI2b3b2nNlQX+PEw2y22FcUFjvxmRsFuQW2BJ1bLRnAcJXBlYDTol4TSAlfZTG487UdhgbP9SxkEezXqCry5cFsY6NJu+sHOQlWBO8cO6sEeRlWBv4pMzKgDutlhwBXqIIT1lIPdhZKCCFZRPq7SgpKCENrpLhrBVl4QRDVWrYIebRjHXdOgRx6anZF61BNEQfNAhhqUE4QZGYlGVwT0yEcv2OmoJogjH6MioEeTSzFBA3pkwR2PoEdJq7G6D/SoFOuxQY8MlPYc5KOUIJQSOvOPy1FJEEsPrlYCPeqlcpxfFQoJgqGyZ93sQCFBLI1xOLsP9CiFRrAPoI4gmL39FIK9FnUE0VRj3SroUepSLBYBPaJwbW8OqgjC6TRhhgb0aEj9zby5qCIIpwR3qYMuFaoOdh2KCOLZiu28oEdFqm+jtqOIICCb2mBvRA1BQKlqV68u2YAigoBysAwK9KhPbbADqCGI+Pnoxdcj6FGbymAnoIQgogqV+9XNE6ghiKhZ5U92N0oIIqrBXY+gR6kmTNEA+iL3drKzUUIQUb3KvsgUSqiRE+98/XvXz9++c+fs+es3Xz35O1SEaV+kTLon/vzp/3v1EUka/cu3f/652SCP3vrmCcQ3BKO6YHtle94XggLyIxma/Nhz52fncxPpZdgXGZDseR8OysZDErT4yrXZ+X2I9IZQcZ/dqC5bsI+denKBXD/zCtIbisprqAsRbJZ+8vrsQi4juyGpPBPKPIlgMxwKub1grmd/geyGVHd/HXQmVbCPX1s4128dQ3ZDSlJ5PmUigs3MuYVzjTGRRWXdV30RmYL9/RC5nr2C5C4i+b66elqiYD97KUSuv43gLmZAZbAzEGw2vntPmh+98/Ffr199/D9zTKcR3MXkZqpM9mYEm4X370r1k5e/+OkKgFfeOXX5BQSXdSc7qhrBZuHGXX2PvyCpEWpSGexKB4JN35XgXN/CPGPE2tWewuBDsOn7VVBD38NSvsiNqj0D3ohgU3fig6CvxtcQUwWcaq8ydSPYtH0hqJ0fIaRKqL6PJgXBpu3juc18+WmEVAl/1P0zlC1JsJ9/eW4zLyKjiuxReehq1xiCTdlz2FJA4+tR1YFQiVJtopEk2DeDmvllZFQZFXcbVNVbCYJN3VmsC6FB+dV4Q+WSPaocwT4etB/sq0ioQhaFsY73S/eocgT7qaBW/gAJVWhKWa6dDQTBZiJ4FPtFJFQht6JpmUEHQbDZ+P3cRn7wGSRUoTwFwyLR9K4vffiNU+euPf7nJ86ceeJP33r3wul/fOOxcP/Tp0/++isf/eHijb+/+ebZ8xcv/PbDk89TDvaxF9/42s3LP7v6z9cvXvjNS69FttPw+PsPXbj63h9/eunMpbe+dOvcZ7/zVHhHkwWdkHM7vL/1yA9fevvHf3v3xr+Yu5agOLMqXGOVjtaMOotRy/JVoy5czEJnqZaWNTNaVmmVm1k5k7JKXejC0o1V/ZPuphu6m1cD3RAgBAJDQ0N4NjBAeIZnoGlICCQQQkh4vxNIIDAhSZUhhPCf+9/H+X/uD54l/Pf99bnnfOfce5fD8413x3PdR1oSq6dafEuW7dZuSdH8sxvP5769fr4j/3G2HTM9np6Eqf2O1rQUjsaZiux/6sb1b96W1PS9xUTt+ZC1+cflooLVMVP1AW1RZ+V6ikMWsOsqlrNg9cFwYRlyZJ62+irtWYGt6E4GZM7GRh2IV12kMkottUPUWby7QbTlvxGdK1D12wmHcvXVX8tLBz8Pvri4xBdeT7jMmsu42u5z2tkfuzmxy0sVn8keiBBFpjt23aYB+03dd/a9L6VdWyr7HHboEgdB9pImF/vc1NrELQnAro6N0Ktv6kLc+VfemMXqnncyhga5SgUl2rMzOaUh+qeZszyQpaupl2v7PbKO3yA7G0vbxhrqncwOOm8WMFbu6oCXPiGNZiV5/VFnrPFrcprNLeavYTibqnPSCz4Xrb5/8uwRgZ1z6Ry7+uk7Im1d5OL274wWctU4XCsJpLkzG2B/HFxk57vawZd7WtPWtkr5GWth3Z8pmv4U2vbXzSkxf8sUYH+iLyjzoZRGrRNO4SqG7migfXvShVn/YKHtKMB+ssKvfoSblxSzIu5fL1FDLhLYabBYQzL/80CbDQvse820Cgo1g4uIO5mt/akP8Fc7WBpvArBP6cH1F38npc2MDdQ6bqURvwYXEgDKpscwsDO6hbWv5rKHVuDE9M8bBSDXhhuVExik5+fFJZZP44BdWkVtj/DuPIOITgasBn7q93PkA/u/etzGf0lpMi6CxKfrtrpYh4KXynSDwH6wiqh9LJUxsvh1bAdBmnURrkyiusyVaUyRQAoC2Dlz9ML1ROgI1SIZK7VFY0oVy8/O1UFkvyMnlc8TQuMTOBZ5ih5kDxkC9pMqVO1+RkQwH92/IibFx5YaVZGlLFwZf78Y2Kzf1WegzIUxVIPbBBfSjetnRHq211/RuP6GJDpkE736MAVoVA+wle54A8BOcCJrdz6hFW/Ad++BWs97cWUqVC2hrTKlVAhs1r4EdEMprrUkOO3uZWw3I7J19vvYCM27knL5YvGrXwI98h1dyO7XD+w7TnTtrmGKiXUNXdynXv+zyEJLh2arS8dEdBkEdo0BN0C5C5cMr8SULdmPpyAvzflIUnPpfeih+gnnpVcXsAMevcDOHdNR/Y5Ww9TgS1eoy2UjC72iiO1ePRPh6jEGbDW9ke1HNgaDawN6+ik7k/ENFK7fMiUXYm/aN2d3e3KHR8crFrYIuzFMkvxaosjXHu4eud5MVZX5OoF9nsKehRYu1SbUVnRQ2POHmhCgZned6OrM3U65E9sSJokBQLWX4Bbee8CkuGlOinfrYl7e/AaN2F7JMAJsNb1xm/FLCvhCocTkoErtgmbGKdRe/XpUf39pdDelozEnEHr8RFZrHgjeqnz1pDvqamtUsRGNHasK6gSXF7vSDnVyenaLhlQ659YHbA19llxyuGWcLtgREbaEc7v8AGxUu+sqLmgZxrebkw4E+K7eJLVEatkkSmWh/cC2KWtr1/z7ohFgt6iIVgrLHazprzuY4JmyztqBR37SoC/TbM6b2a9+LbbhQdLwS5L70N87x3oW/TGEjvbyLsfwXOvLddXkERw4MJVT29o8BseFTL5xKQA26flVzUKjz71ILIQP9gFeB6JUaIMOZYVbojTrVnUVUwxGUmOwL8G2ejRR3QYksIMjFalp5WX2zv6WBZXGmdLGX2u1zPPQ0sBFcGkV+dZIhLCJ6sgY/qxUYH9LjOs/vyattevqgfTZqd84dsN7/23UGgt7PlOgl5Wk7CZ05ogeYLsJQ2RHewv1aB8vwv1EQYDy0/W9TT3Iikekc+H4UtWRsB3U1OZYJHE4gwF2ZJyeknSbdFVddzGOHqkpajS1WxeIPXZIJrB/JMT19z+W1pi1is16gB/zfUWhxPceKjulnHyweBjDGXPrADZh6O7QUgx7oB2VCMKHjeBfzCzD6oI1ZYH1zxRQvx2Fl6J4BPVUKAZ2VQmrzyQVvTaMWWoHkbo5SYnvxzfyaLAjyu+F15j9SV5j4L5FF+9WujpazCyjgZ/maIWTOYwHtnsN6iR61BxqZQV0sRmbOziUyhx3IUAaFWjxRCbgCD0fhNDZK1YRsNeYeQJkJksr7lhPFyy1QVXyDshzT8s8WCE69fid/0hs7AJweeQnCHRxFAAX2E/hMlxi1A/3zkk14MZY8RcdAqp/hFDqSisjO9VGJAWPC4AdYKOVuIXelYsbC/wBBhnprHHnOKroaPJbwXGZX8sEXpR6FM/kA9sdZAFPAGy4DD6WDZkBeK+ASsF4EFaEUMATeHSD5T4PsOodD7q6NwXAZlNtZU5Byh9dtpF+ITSaeiVi4ZtcXH/lJ1KBd1c9imb5wIae+E00sIkrqS8w6+9l5ZHC2nMNdd5RJUSQBzpyEfbenceJnGiAPcDuFJH/0o60FqD13Mo0IWfWzNrEuS8svS75lgVAHPlNuOYIAG8VDWyYgpbMPmBmZ9k6Z9mRRbR8yrbgGZZrAsdJgV8W8IDtZR+3iSdy+pBPljkCnEg7kAnwocR3SE4d51scs6YGUUme3B+PBXaIG7NkfjnPYupaDS3QHVAH9awrDNv38fKYoZW9wQN2NNLdByPmSg8n0sr7UuKjwz/m4Pq7P5CMOyKXplY6sCE2cpDAPs3JliUEZFwnqwgZWEWTkdR5sOsHqD4hVIR5vNpgPp6/mg1sJwd3l9hZieitmbAJCd0exHjtBuTnbFy/8T3ZuCN8emV9RnID2eyNjQNsuMEn8xqAjJ+KuCO27EoDd92MqCu4TvuCSJfhnr8sY3OTBLCbOLVscBKJ0cW4IcUmZkqhWRr7y/+WrlAzNOHgBrl3wsSA2tORwC5S2GQKF1oq75FMNXH16s4wBsFP6sPSnyns8WkkiWn229FxERhRQ/sORDGunp8ziVA4dawP72ovGoi0GXwVKyftwmzR4Ei4PrzZXbOwXtDVWW41COwbeAPJzYp6azPxg3P6WD+P2C+EuZFJ/PommdaxHW1fwKsElcvIoUDL3MWNwAPCr+8YWJEvmHFLcAUt9WYhRa/aHkodCNFOBSSHjADblqXDjgRWrurmjThaf9prdXiRPWLGEOYV3efXByliHxvYHH8gQWER91yBth2fxEsF38p7+4/FY//MlGuC4+iHCluLOvE3iDl2u5EnSJDAJo6wFEXzJMDiT+inxl3hfqxJ8lSMtmQsiaY1y/wOFrDPYOlTZdOQG6z4uBM6SD9NcWRhRB5f/4PFFJljgXCtMQZ1OMhaOq1gBQnsYcWoqAnLe6yDZf76WhRjPyA0M6zIsOO+lDMpNwhsXgT4IpYW5LGSekTeK8RvHe9zYB7O/QbXFmKEe11qpo5ZQgK7y/AydKB+s4ribHoq1ts3hYTxaUUcwmG5A2rbxo4mDYux8SAo7YZn9IE0pNGz+770VZOAbRnmmhEr+dy9yPNQ1yzF4YBdYngZACZmmrlHD+dH+b9aW1BoZlzG8+17EmSd+IHAXscSNfjDW5mGZ1ReGtRHVGD/wmKaJPBH5uzeZha9PK2YAexoOcC2xAm653vMo+1vgW+pd/J0ouN5L+QM60CRHW2qjxkiRSze/wNg/5R6h4jFREkQHXmuZyQkdPYppgC7SI4p8twLTRR8v/KU7SMvgS9vi8NPisi6ibBYTDuWxrYphjy7eMMTajB9jCa0M4/vvW0msC0prYLROTtoufg9WYo5wO4wvAzkLu4RXqQR6mHNCghe098y2IV1iU5SQdMolgXsWLSZjr2q3Woc2FeloYx2Sv2XFnMlQ2gqr3ZqCpUFFJOAvWB4GTSpDbZS0S7s7GUobZBpXYygfIWcbzErkdoosLHpmG7jwJb3zAHlXpE3X7OYLTGiu879ZDqyY4v+ofeMLyk54DoZjd1GYeo7RJZWEz1o4+PYOHSN7dGlsUsNANtqDHVHALa8+6De0+aI/N1ivvBeNKAmjxZov3i0mGo/yGDPibsc0z+VFzIC7AHDy0ClCTgvGrw0R2iaL8cpPqcyehQbu80AsAkbG3tFu8PwhK5KA9jH2rv73rUcj1wZ4F92B9I50oPkKb2pW8JoGxLYMNfdFXkuiYmJvn15eV9N5nOZ3pczzyX5hVxnGAPnC/kPLzRTwoppCIp6WJ8vt8I6FoQGNkFvXMEuLYwvryFmdH9Cp+U95vYPDa6/fnxP7lp3BzkmqX+YCT5FmatGhJGRwIY5x61ShlaXH0HThBQWlG7NXtV3mqWKtbvggT1tjMeG7MCU5QTkVxpgf3Cs7Vtj5pjsb9KhweWGP4As1tXrhoBdCzV2vKSh2aOeMc1t7YMWLUDH0WuEx3REx008zJ8BHthbIpeCLtCDmjsJYH+oSX76y7H3oa7iBn35Dy1NeDJG2bXIBPaSPp9Mh5zvuh+kjkx7ChfcsFHPMHldenB2lUlp4IEN6atF7Lg39WQhmiN/I4H9w5PoheVsIY30SH61/DC3uNEiFdh1ZuXh7MnM0mAQo7IDmCh3oh6cQQ4ly2YE2PDinTB20DDkVXwSiPqATBL5tuWExD6h9SVTqLae/7RcYP+PvXMPquK64/jGqOB0rLVRUx1NmjS+pmmiMamtbWps02nTGtPGMXambZJOmodtMrH9IzN7471yL/K4KILgoCCXh7yRhyBKBBEQQeVRXkbkodYYhFFSjCG+SGcaTdU9Z8/ZPWdf9277+/wL9+7u93737Nnf+f1+J5mj4EoLyVHyLBJ8FItkyjZCu411Kh8WzX2X1qawGxud+bez5mOjqeBH/bFz9u8xYy8R/UfbGXxs6yVOF/eJxhobK6IKMeHSTuBx+2i30onHU74GzXMeUj4mmiB+SpOxNVbQYLWtBX4wE7bwOH6O6E92YROS200D/qG83kfzxzpGY5cSD2oo7jMexbVjJMPQQ6tpKecwjGuIal92Y2PFi6xF5AlcieOmcC9q7K+L/uWj42iwmrgycdpoY2eiYcYUUy4N6++PxXVSaWVcIv0alKszG+jZRezGxsrNm1gjRsgyqpG156xMRNdnFk70s7HFlAzSCusoa4K9NmNjHmg059LQBc4v0D9eU60yIEyaFEu10NYeR93ajH1GW1Ypeq3ZyZb7aL5JW81oJ42UwJZnrrFdVVa8xScqJIs6w9gypNFwQ5hCVpILvQcOi9qMjU2yWeMisQ6ewKQJ/ApddFzjf2PHkBLYTrNFsbUaG2uhaGSjLSnb6Nkge9WrDAhzMqVONKgSaJyFw9h47z7GxcfkLtpSm0U8Y0mhIw/oEOEm/UobDDc29hbfZM7vkEMfxPLUqwy+GtnRmRq9iym23W9YikZj491WNzH2R8DaHe+02kYrpL4e+wvTj1fSkuvkGLEziJPgFsON7TrrYC4DpIZ8s9SS3zbRR+UB2loKDlYxTG3NhBXboLN2HmP3YNGcfragNPZo6Wqw2NhINvZM84+3weEoUq7+QeJeI8Q4dnu40caW1fPyt8tMCXNk5yo2R0nx0EPCyBr0hwpfgrYadmynRPxKtjkUXkt4jI12FHRQNr2RT/G3YIvIiZb6+ttIUORt8w9482ns2a8QT/NWEvPtN7ONU5qNXbIDq3Phzp+8lUlV1KH2H3diiujNeVW9yoDssxziTe7CuvdUerUb2ydLTWTqJNqIfepsupXGXovE+qabfrz/jjc7dlLH3Dxy4A1dQimuN9rY8jqGUqVottfXQAn4Xqb262vbTI+8JLA7DWtY7egkTO1ceOkE9rrNZWzZkO2o3MvwU7uxIdtxNEppqG9LijDSaI+Y2eVd6U1kqJpc/vFJNLnBAJqz4MgeZDJ2IruxnZvwny8jk3b39RRucYRhj9Y7TXs9/yJPtZydCvVBHazhzC9pwc6zRlawFYHth+S45NVjbNk+j464ZmK2Tt+5Q/RZ/s3ToD3P3DGnstGApF4WSY39rum+lr6jFZcmyceaQXRGMCKdwaJThaytxhpb1rr7prWHr8jelCJiQopIkTZpxlHlBvnJRR5XSiHM56iZjcRrM9rRO9BddgH7hzB8hOUzNmFnXkdYfzk6wrrjC3PQDdjxwMit51S+7I7w9tSl3gr1xCUY6LTZ0n3vzB+wsdKm6NKD6RLnuA7hzQskS4CpuEbFLTcQab1br0T17svQbGxyh7L2zrTumIb1BX2tvpjRDcOdd8f1JvTTaL2M5+SZDulq27o0rCUKtgZUy5HbhG8LcfMOzEpKuH3fHbmgVj3KbWzn58QCp8rzhVGxSYPl3ZkDLTnb5bGeBGI3u42ncsvrWwsK0hvqk8oKayvaSdXGut8dgyXGfsp8Y++XX2f2SGrahrLR0cbqUlm3kc2S+z+d0PLR01R6JHfPwS9yB2qP7SYlPXMZ26lWXexQyHSLJ5zdlsMHdh7MG63LbJYbA1uC+ZAxefEriM0rdlyrqSkaIv2lxq3T2GJBO6soSFixPoxL0BHjjPa4tDZ9lum+drbzWadb+mEtpeRcxhYTNnF9ObIn4TDfiZ1EJ71og+5e1cWA3VyF3/KmCbzGFkPjGA9WjDxFObt9GpfdOlfa5938ATuW7zqPI79+21mzjS3u2sxlGOksqorrvIqxnNU+5K9lqkImcpxoO6EgiNvYag0XaQuq+VyyGLez0kPWJqyOcl1mFTbSxG8329hiYhPPt0tCAM4hrvO6jh23nLfJQR+zs9tJMRp+Y4uNHrbjYcnsjXEcsmwxymiTJc1ygl6wIGxex9Gl7KisiiQpzGxjixHHOL5duo7SU8HxwQOKYQdPOIOSiYyzkc3EkLMGY4uDjB1BsWYnoZWnYOQAAA5NSURBVDyN6eIN8tnrkgH7RUsWhBKaWe/gdsIaTGi02cYWXYXsd0+0NLblrWMeRD+WLVR8wD9utfWzHKqCHDnUYmxx/TWmq8NXhRM5bvleg2z2lB8ysdM7mS5xI3EBdn0ll689KdzGFsXWS6xf34V2Ow0vZLrvwgjdy5DEjstsQnoPqh6u6xwlYUmTsUVnGstNv1E2VuxhHrTPmzDFXm3ZMn58v+p0zdNMKblwnmNvkd3+ARpTYzS26I1le8wflj3lI6rVp9pFhBl0ibZXqMhUZSE7qVEGbcYWxQKGvWWi5YlgEQPZLIJmVBtUaPObSXd9vVi0kF0DykGEfQpzrYQQhvvfs/v8ngZ8tGI19pdjTNIxtXuvqpeYM/1Rt/J4f+E6Kf/Px1pGgbO3lD6z+6xe4d0T+U+ehZH0ZmWPXjxC1CXlnGpMq6Yx3Ch//dwPjShvL8CGNl+lXGD2eZVXiPDRywoP4eKc2uv1xDvfLV0mOaoSelj3fgXVM57PBzroSck9O0dod8XJMifDUiJXNHddITGQczakT3FSIS15yODrtZ5c1095aoZdOuOj6uLqyKJ7O7rzeqKB7pLuPvNd0Wq8rddTm+LwpcTmGyyPI7cvv3YETzS9WJNaXZ6ukBHtdd6FIVu+LbS6fyM2q7x6qTazQ20jATEhtrcCv/eGDudT6xCQtSfu7jIFB0/tlpxm3MbSfHWr8kmBf9iXmVqEBF+rKprzfarZrAV1H1dgz+rijZ1HulsNbqgzTmLsx0S/4CyI6c5NO9BcW5sVknk6nm9b1ra+KyfK66LK6spP1LdudZtygq7IhpjYvO6yutODhz6J5KgY8271nc4/05tVW9vcWxgVo9gyfUQhEMz4BEz0JY2WleUl1fdYVV3oTWjtSCofHb0RGr+LZxIR3vPpidN1Ud03f7X1KWb0iPqrpMjgByLgN9AK9WEQRCfSdpTPgxz+A313zANBdDLTwt2UAAXeV1q5A3j5tTRl9XXQw38gS1ZXQQ8DZyJPTAY9/DfFzmZsLQEwMcbalFWARgytaAjQwppga8t4ARpZMMU2kpelZbx/Bj38hhvJL2kCQQyciQjzQA+/gZYVhYAg+lg6VuLroO+DIH5jH2JsHwiiD6TLKqw7+g+03eY2Lyiii8njLW5GCVBAW6n8EwTRx3tIW+xVIIi/wDZm7QFF9DEVMTYsqPuLdDS79TNQRB9rJiDGXg6K+MnXWAFwKEiij4fRLZV+CopYRcGeu5nZJblYmVUOvDrqfHV8AzX2UpDEKnIcnpPDewZjkrrTjnXhFVIwYOtkOerroOkgiVVzD8WqctBHJ8tQY/8FFLGKAaW+BetAH32sRX1tRWNs4BauiwrGHgV9dPI8ZuyHQBKLiGHtSgxo4IVgzNgLQBOLOEX3dYsL5NHJKszXwpOgiTUk07sotbhBHp3MmoEb+3cgijXQG/yHwHitm+dwX1vWaPX/Hlrz7apB0EY3aybJjD0XVLEGcivOruEIkMaEGbYgPAyqWEPSv+XtKpuqt4IwBjBFPmBDcp91JIw2F91paNY+sr+xADQxhkVyXwuPgCxW4ops9X3qa+gpASmM452VBGM/DboANmcBwdfCEtAFsDerxwowFQH+91hG8rXwMggD2JpXiL62Yk9eADCP6ePJxp4G0gB25j6yr2HlEbA1U2ZQjP0saAPYmBUUXwvfBG0A+7Kc5mthKogD2JZXF1ONDfsZAPblSaqvhRdBHcCuvDWWbmzoIgzYlT98i+5rIRj2DANsyrOCEu+AQIAtmResaGzYggawJa+OV/Q1JGQD9uR+ZV/DmjpgS55W8bXwJmgE2I+lT6gZG1ZoAPsxZ5mar4V7QSXAdqwS1HkNZAJsxitBDMZ+HHQC7MX8GQy+huIwwGb8bRyLr4VHQSnAVkxl8rUwG5QC7MRcNl8LwRNBK8A+vB3EaGzhhyAWYBveWsnqa+E+UAuwC4+9xOxr4QGQC7AJs8ax+1pYeA8IBtiCn40ReJgPigF24MGpXL6GJRrAHizg87Xwd5AMsAGLOH0trPwTiAYEPN8QuHkPVAMCnWn8vha+A7IBAc6PgzQY+2ugGxDg47UWXwvCalAOCGSeEbTxR5AOCGCe0+hrmIsAgcwiQTMwFwEClQff1O5rmIsAgcrEB3T4WlgMTVeBgOS12YIufgQSAgHIT8br87WwAjQEAo95C3X6WgiGvjlAwLFkgqAb2KIXCDDmrArS72vhDaijAQKKNWMEQ4DXRyCQWLvYGF9DP2EgkPjlBIN8LQS9C2oCAcLERwXjuB/0BAKD1eMM9LUw4XugKBAA3DNtgmAoq0BTwP9MmSkYzCQYsgG/89uXBMNZBLL+p707/2rqCMM4PiEJNwESIBAIWxBIDESQQAhhkVVSJGURBAQR2UoRWmvVYvvn9/Roe1ywJuQuc2e+n985HOZ9uGfuzNx34KzLNcP8XIsg90/DUVNXwhIRhhbOmesRFgneZ3ThkMZcu7AMp1fhkP4OYSFjkhGGE7OQqCEs1cE3YrDdyXy9sFqCYYa9PDPVwnoTx4w07LS6JWzBkh9sVDgVNjH6GW3YtRSyIOzjb2PAYYfpKmGreYYclnt4LyZsFjxn2GGt45a8sF8HkxFYaaBvVDhij7GHVUKJtCEc4htm/GGJ7bFR4aB8FyWA6TZaksJhHPODyYbCdYZwHr38YOaz+sG1T0ghMEk1YIq24R2/kIeXb9ZRudkX8Rohl/RzyoIKPFzsXd8VEspQG529mbz90lj37FFDVb2QVYrqamxFGNX7DTOvQ+X92OVweDApb6Y/nGB9Rnm1tfxvAz0jXzWYmppc/v+Ad3dtr4az8Zjkkf7oyUsKrKuve3y016bjmb6GlheJmeLm9PvN4sy9n3K9TYeD+2n/iE+4yu4sFdZTUagtv0GNdXScVzzYoraZKmsoK5S3NU6ZtdPvUz/Y4pSGDLoJ/Sx0kOSZzUREzdnIJbXWScHQJNjCz4Eojfw4IbRRS+NsfcSFRrzvKLgmwkIr9ZuUXI+VvoBewRaBHEXXwGVeaGenm7qr7nmV0FAnTRlU96fQUvVTSq+0nNBU/T2Kr7DpgK7BFsZFiPqr6l2N0Jj/NQlQ04ZXaC3Y6yEECmquFbp7+4oYKGd8S2D0BQ9txbypI9b/uP6LLKjkOE2mPy78NdEBTaFc87z+ZHnkPYFQZX5Nrj8TZz6ihKEYWf5i5W/lN2LhevdZ57thfSR1h2S426KXGN9kt/cx4XCx1Xoy/A35ME9t1+r1EeBvG1miEZortWUI73deIy8GiInrNLMtU8KB1oWpNqLiKsO8NpY4I+njse0enlSAyJb82E72zhEZd+zKdBLX8rKdzvEm6YJVviuiWjbf6fxiI9mR2PGgQUxv56p1in5/snpfTUArMbGWe1p2kx32Ma3WleFxXbn65GBusrTO8d3Lm6lo9cRdomepBLNr814ovemDhsTw8viNX5R1n21PP9hbj328MZPul1Z6ukAcLRDYjV2vH2T+zO4tNRzujQ2uxdP+3S9OK8RJn2XOBjka4lz4WS20yJv5duLloCYiaIW28C7ZclRet9fHkA2L/ifhCZLltF81C/aSP9Fm7W/4rYXzThJIa/bAHhFiImXhZZpzO8yt5fC7VsF+8GHB/8Ka5uOewjqn+GQR1SnXjf99JJ58ZPrt3s0tPxMnefhmNQr20af7tAcFEy/6OTnq4WEtl4w+ufZ80eXUOzZsyqrQ49UDZtbybdJsaBPs4td//VWmWOGc5CyxXkOKZBTRJtgdN/9nL6Re3rLrZ6iwkmTjXNpH9rImuV799hjUdM4XylwEHCru1QVJj8wO9Mh193f6QRq10dTmcgkvlCfnR0s97MK4YGFkW4tgJ0oajGAs3hc+enn/65l3448DkzNNkZ5qJh9u0aNDrh+XeXN50Os/rerZj65F1+M9Cx21uyznuY5R0CDYLdRZPzH1D/k1s9Kso5zywc5QZB2NjCue69/5WlxPiu/SeLjSSNf3x34NjqtCx/fHhwrn+hVvjvpKKRzsfcqrryfqHswuUl2dnaq6mH3JuQ69/cBEBCoKvtb48BNUXhk5UTDXv4xSWO1dqJfr52zNQBjPlAv2HlWFEKOq3fkxzRkR/COp1vUdc3Q9xQetKuW6LUlB8ZFKR7MzlBP/Ckxypg8q8qryAlng81t8yt+lRK4H2JnB56pUOJt9xpW4UHBpJHRKGfGVFbfn+uFbiogbuPyevMYoJcRNjEeuDnaECuJmPjefh+LkE74p4N4rIFeoHhRM9iG1w/8m+xm5hpLJTrgv1p4x6obvro20uC3Xd1upGkqw5K5cP16nZCjJhZva6HSlKRhK1Hnsmlzf5zJzlG5rziW5fskHjijHxKIrcp3gOlGUJ+iCgyPdfTRaQNkisn96MN5JkXAL6VdyT6/5XAa3c7Upca57+WwXt2XsyDodGacBNiqRlPMyj8IEpUFF6sMe+TbRs6yGoGJVG5LlejFGUWCC9lyjTD0Wsj5KAnPUncszu2aRD+YJrISkiPWrKLNrmCo/I0FHnKYaCgGzpd85nOuinyLAAr5WJ9dHFvmgAFYJZs8civUsk2tYqWbJiUbaswcs8cHqaO812xzrgVbOO8EGTyJ2XuzRH2cSArteI/eHbWoZUuT2aNhq65H1WzZD8xzig+3aLyz94Lf7fZSpNRx6bIeHrHphXOFhDSdn21U/mb/+t9zUwQsjnBbozJm5I3lOqiELI7Y02WZCqO9sRjiVCrnUv215Wkkzy1ChIU1fJ8gZ7uvD1VvsS3pmp7J1hBpy83buTW3fKbWNQv+LsWsuQIdrZt3edOaHe4Xzy5u/cb879Ho60bB2OsJIwZ2CXn/d27XBSHbnsOFwJxvJ/NF56vdyWA8AADv8Dd2Z5Hnakx8aAAAAAElFTkSuQmCC;" vertex="1" parent="1">
          <mxGeometry x="629.21" y="-870" width="85.25" height="60" as="geometry" />
        </mxCell>
        <mxCell id="b1W5nlMtBY8Uv-4wOHBY-9" value="" style="group" vertex="1" connectable="0" parent="1">
          <mxGeometry x="170" y="-720" width="140" height="80" as="geometry" />
        </mxCell>
        <mxCell id="b1W5nlMtBY8Uv-4wOHBY-6" value="" style="shape=dataStorage;whiteSpace=wrap;html=1;fixedSize=1;fillColor=#000000;" vertex="1" parent="b1W5nlMtBY8Uv-4wOHBY-9">
          <mxGeometry width="140" height="80" as="geometry" />
        </mxCell>
        <mxCell id="b1W5nlMtBY8Uv-4wOHBY-5" value="" style="shape=image;imageAspect=0;aspect=fixed;verticalLabelPosition=bottom;verticalAlign=top;image=data:image/png,iVBORw0KGgoAAAANSUhEUgAAB9AAAAIfCAMAAAAfYLeNAAAABGdBTUEAALGPC/xhBQAAAAFzUkdCAK7OHOkAAAMAUExURQAAAAAAAAAAAAAAAABmmQBnmQAAAAAAAABVqgBmmQAAAAAAAAAAAAAAAAAAAAAAAAAAAAAAAAAAAAAAAAAAAAAAAAAAAAAAAAAAAAAAAAAAEAAAAAAAAAAAAAAAAAAAAAAAAAAAAAAAAAATEwAAAAAAAAAAAAAAAAAAAAAAAAAAAAAAAAAAAAAAAAAAAAAAAAAAAAAAAAAAAAAAAAAAAAAAAAAAAAAAAAAAAAAAAAAAAAAAAAAAAAAAAAAAAAAAAAAAAAAAAAAAAAAAAAAAAAAAAAAAAAAAAAAAAAAAAAAAAAAAAAAAAAAAAAAAAAAAAAAAAAAAAAAAAAAAAAAAAAAAAAAAAAAAAAAAAAAAAAAAAAAAAAAAAAAAAAAAAAAAAAAAAAAAAAAAAAAAAAAAAAAAAAAAAAAAAAAAAAAAAAAAAAAAAAAAAAAAAAAAAAAAAAAAAAAAAAAAAAAAAAAAAAAAAAAAAAAAAAAAAAAAAAAAAAAAAAAAAAAAAAAAAAAAAAAAAAAAAAAAAAAAAABmmQBplgBmmQBmmQBZpgBmmQBmmQBmmQBmmQAAAABmmQBmmQBmmQBmmQBmmQBlmgBnmABnmABlmgBmmQBmmQBlmgBmmQBnmABmmQBnmABkmwBmmQBmmQBmmQBmmQBmmQBmmQBmmQBlmgBkmwBmmQBnmABnmQBolwAAAABmmf///8/i7Nbm7+71+LvW5AJomjOFrXOrxwRomz2LsjqJsf7+/zWGr/j7/TeIr0aQtfX5+wpsnRd0olmbvU+WuZnC1sTc6BJxoQ5vn4y60SuAq53F2AFnmWSiwV2ev0qSt/P4+laavAZqnPH3+W6pxVOYuuXw9UOPtMfe6Rt3pIi40HWtyOHt83iuyR95pkCMs/z9/oK0zd3r8i+CrJXA1WqmxNrp8H6yzIW2z6DG2WGgwJG907TS4T+MsqrM3UyUt3GqxqfL3CN7p2akwih+qa3O3+fx9b/Z5rbU4uz093uwy9Tm7qPI283h64+80uny99Lk7bHR4FaO2LgAAACsdFJOUwC66+FVzHkzA7kvCJ1AZlXDyToaa7uZVPyYAXfyRP4UBBH5AuD7/d20dCADyI3RgfAOh28GqvfaB9bTkx6AkBa+fcyl589RGOQdr/OE6oo+TO6xQQqsJyIr9aJ6X7mWWenBLTVsxkgLTjy3p2KboBBcRgxyVykw2FhkcQ1oJiQ3HEoyNNkJ/vgF4fKWNBuPqK/rQ6BcaDtPwCl0JcYvFrRvgYXRYhsSHg+GZiAh6h/dAAAgAElEQVR42u3dd2AV55mo8WORmI2FAYsmS6hXLASSkARCFRWQJRlJRgJEb6IjejMgwI7jJLbj9J5N2d3s7r1HxzXYDrHBvfca2yEucY0TO04vN7nYSXYtUDnlfWfmm3me/zkz8zHz/XTmTPH5iIiIiIiIiIiIiIiIiIiIiIiIiIiIiIiIiIiIiIiIiIiIiIiIiIiIiIiIiIiIiIiIiLzQv37+S5/5wlUf++ZHydS++u2rLv/eF6+4lJ2ZiMirfe1LV32uh9zSxy//yL+yUxMRea5vfeZTGOi6PvodTCci8lJpX/nqJ9DPlV32hW+xfxMReaRPfunjwOfePvGxz7OPExF5oS9yrt3tffVr7OZERG7vPz6Ldx448f7dT7KrExG5uo98Gu28cc07X9KJiFzcJz/DtXBe6dMfYX8nInJr3/8mznmoz8SxyxMRubL/5OJ2b/UFfkgnInKl51zd7rU++y/s9kRErus/8Nx7XZXGjk9E5LL+66Pw5sXf0dnziYjcVdq3wc2TfYl9n4jIVX0d2rzZZVew8xMRuagrLoM2j/ZxXpROROSeLuWGNe92Ofs/EZFr+h6sebdPfJkDgIjIJX2DE+5e7qPcjU5E5JJ4wZq3+3cOASIiV3QFb2Txdp/iEbBERHxBJ76iExGRI/q/fEH3ev/GUUBE5IK+C2iej6fLEBGZXxovZSHuRSciMr8vwxl9jjvXiIiM77/hjHp4uAwRkfHx2lTq6fkuBwIRkeF9n2vcqafnqxwJRESG93kwo56ey/gRnYjI8L4DZnSyb3AoEBGZ3eVYRif7CocCEZHZfRXL6GRf51AgIjK7j2MZnewzHApERGbHc+Lo/XhWHBGR4X0ay+hkV3EoEBEZXRy3odP7fZtjgYjI6P4Fyuj9PsaxQEQE6AToREQE6AToREQE6AToREQE6AToRESAToBORESAToBORESAToBORESAToBORAToBOhERAToBOhERAToBOhERAToBOhERIBOgE5ERIBOgE5ERIBOgE5ERIBOgE5EBOgE6EREBOgE6EREBOgE6EREBOgE6EREgE6ATkREgE6ATkREgE6ATkREgE6ATkQE6AToREQE6AToREQE6AToREQE6AToRESAToBORESAToBORESAToBORESAToBORAToBOhERAToBOhERAToBOhERAToBOhERIBOgE5ERIBOgE5ERIBOgE5ERIBOgE5EBOgE6EREBOgE6EREBOgE6EREBOgE6EREgE4E6EREgE6ATkREgE6ATkREgE6ATkREgE6AHl7J5509YsvwCfHxU4bvmDk0iQEhIo+Bfv8zNz746sv3vf3Wdde99fZ9d7z64I3PXI+lgG5Wo8blVmVl+HuVV1e0PWYaY0NEngD9+O333Hk0cFpH73z29uN4Cuhm1DazK93fX8UjF85liIjI5aDf8NM/Bgbo6lfvhVRAd3rTljZ0+AeppKmbgSIi14L+wrMvBgbtZ6/yPR3QndzOsXn+oBo5IpnRIiIXgn7kkTsDwXXiradwFdAdWveGDH/QlYxjwIjIdaA/9edACP2OM++A7sTKijL9IVXdzKARkatAv/HpQGjd/PYL2Ook0NeNk6zFzIMkblWeP9QSu/KZXSJr7gjRNjOiJNEc0d3ysDmgP/rsiUDIPXYbuDoI9DP8kkWZeba9M6yNrV3N3BdRZ4rue/6zGFGSaKTobjnEGNBvuCYQVr++C14B3TmNaw1za2PL05j9AJ0A3Q2gv3I0EGYvvoSvgO6Q0ioi2N71+5j+AJ0A3XjQj9wXCL9bbwdYQHdEbe0RbfCkQ8x/gE6Abjjod78ViKQTDyAsoDug6KoIt3h3JRMgoBOgGw36XVcHIuwHEAvotrcm8mMX0QGdAN1o0I89HanngZv5jg7odjdNYuvruF0K0AnQzQX90d8FIu/oL0AW0O1tichGFzEFAjoBurGg3xGQ6FaeGgfotrZXaKsnMAcCOgG6oaC/EZDpj8dgFtDta2ix0FZnrGMSBHQCdCNBv/dhIdADd8AsoNtWYYnYZk+NZhYEdAJ0A0E/8teAWPyMDui2VS643U3MgoBOgG4g6L+U8zzw4qNAC+j2NLdYcLtT5zINAjoBunGgP/OwIOiBV4EW0O0pW3TDG5gGAZ0A3TjQX5f0PHDrcaQFdDuKkcXEfwnzIKAToBsG+nsnREEP3IO0gG7+F3RuRgd0AnTzQL9P1vPArbxKFdBtaKiw5/7MnUyEgE6AbhTozxwVBj3wB6gFdOsbJg26v5SJENAJ0I0C/afSngeevB5rAd3qtjWKg95ayEwI6AToBoF+/3PioAduwVpAt7qlfvlamAkBnQDdINBvlPc88CesBXSry1YAfQMzIaAToBsE+ssKoD/ME90B3eKiixVAz0tmKgR0AnRzQFc44845d0C3vAS/RjFMhYBOgG4M6C9oeB54DWwB3dqaVEBfyFQI6AToxoD+oAroT4MtoJt8xP6zM5gKAZ0A3RjQ71AB/Sg/ogO6pcV1qIDeylQI6AToxoD+tArogRvQFtCt7JBfp1nMhYBOgG4K6L/XAf1BtAV0K5ujBPoc5kJAJ0A3BPS7dDwP/BRtAd3KhiuBvp+5ENAJ0A0B/YdKoL+NtoBuZZOVQC9gLgR0AnRDQP+FEuh3oi2gW1muEujnMhcCOgG6IaDfpgT6H9EW0K1srBLovBMd0AnQTQH9ASXQf4O2gG5lNUqgcyM6oBOgmwL6L5VAP4q2gG5l7UqgdzIXAjoBusdBP4G2gG5lXXxDB3QiTrmr9BjaArqVLVECvYG5ENAJ0D1+UdyTaAvoVjZbCfQu5kJAJ0A3BPTblUC/Bm0B3coWKoFeylwI6ATohoB+I/ehA7obQF+qBPp25kJAJ0A3BPTjSqC/jraAbmUrlUBvYS4EdAJ0U17O8pgO6H9AW0C3shQl0HcyFwI6AbopoP9ZB/RH0BbQLa1VxfPYaOZCQCdANwX0P+mAfi/aArqlZauAfg5TIaAToBsDus6N6L+/H20B3dImqIA+m6kQ0AnQjQH9PRXQfw22gG5tOlfFHWYqBHQCdGNA73lSA/THwRbQrS15vILnGZuZCgGdAN0c0P/ET+iA7gLQfcMUQL+QmRDQCdANAv0hBc+vxlpAt7oEBdB3MBMCOgG6QaAf+Y086D/GWkC3urR6cc/zuGkN0AnQTQK952X5d6c+g7WAbnny72cZxkQI6AToRoF+gzjov4NaQLe+yg7pp8p0MxECOgG6UaD3vCUN+g+hFtBt6Fxh0IuYBwGdAN0w0H8k7Pl1SAvodjQ3U1aTS5gHAZ0A3TDQe+6UBf0ppAV0WyoV3fAFTIOAToBuHOj3npD0/G2gBXR7yq+V3O4kpkFAJ0A3DvSeNwU9f+w40AK6TS0S3O7hzIKAToBuIOh3P8k96IDuAtDjxoht9vIcZkFAJ0A3EPSeJ8Q8f/oIzgK6baWkC211fSWTIKAToBsJes89Qp4/yQl3QLezg6kyb2VpZg4EdAJ0Q0E/InOl+4mfoCyg21q8yEbHMwUCOgG6qaD3vCDyM/oPQBbQba5AYJubmAEBnQDdXNB73hV4ScurGAvodhe3KeJNrmACBHQCdJNB77nh4Ug9vwdiAd3+kosifaJMMhMgoBOgGw16z43XRub5m9dDLKA74Tt6eSTbmzmF6Q/QCdBNB73nhWsi4PzoGwAL6A5pdGzYm1u8lNkP0AnQzQe95/jTYXt+7S34CuiOaWVWmFtbN5fJD9AJ0N0Aes/9jx8Nz/O/cf85oDup/JqwTrcXTGPuA3QCdHeA3tNzw8/C4PzhB8EV0J1V3N5lIW/q7sPMfIBOgO4e0HuOPRvyl/Rfv4utgO642uLzQtrQ9BFpTHyAToDuJtB7ep75082hcH7nDcgK6I6s7NyO4B/efuY2pj1AJ0B3G+g9PTf9Oug3pP/2dm5WA3THtm/KkKA2ckwL384BnQDdlaD39Lz75mNBaH7r6y+hKqA7uuiZC1oH2cLpTRcz4wE6AbprQe/puf7GNwd+vPuTb97Il3NAN6DC1bkT+3sJW337Rd1Md4BOgO5u0E925Mbn//b7vjH/9Q9u4sXngG7QF/XmCWOr6j+8Xa3nbGjacT5THaAToHsC9A/uTH/3oVfu+fXT1zz5cCBw4toX/3rnn1574KkXsBTQTaxt3s6hcxISEoaumJfCJAfoBOgeA50AnQjQCdABnQCdAB3QCdABnQCdAJ0I0AnQAZ0AnQAd0AnQAZ0AnQAd0AnQCdABnQAd0AnQCdAZUQJ0AnRAJ0AnAnQCdEAnQCdAB3QCdAJ0QCdAB3QCdAJ0QCdAJ0AHdAJ0IkAnQAd0AnQCdEAnQCdAB3QCdEAnQCdAB3QCdAJ0QCdAd2Nth1Y0z9y4Pf7MgoKKsR80u6Cgafuilpi5SWnu3eyclJTKee9XmZKSDOgE6IBOgG5qcYeaF02u6awtHnCQajs3FOxfvbPQLVudXLZuy4wlDctLonpt5vj0ujEbKiYsXXdeGFsK6ATogE6Abk9JCRMWTCoOZaxSJ9XEbx1l9EandY+b3JAVO9iWZpS0N+1ZEdJXdkAnQAd0AnTLy1/dtL423BG7oOGiS5JN3Op9WydXNYaypR3Lc0eUAToBOqAToDuyynEV1bGRjtr49QsviTNpqwsTcsPc6qmlLdsAnQAd0AnQHVXOutnTxUaufsnqaWZs9qHhDY2RbGlq1f5KQCdAB3TyBOgbx2pW0Saxjpt31ETJjp1/fNGOaKfvL2XbOxMj39LYqv1JgE6ADujketDnZPoVK54T+RpOG5GdobJy47u25jj494XtExPF/htqzo4DdAJ0QCdXg55Ur+l55o6IV/DgklbFFaytmOvIPSVuTlGq7Jbu3p4P6ATogE4uBr1B03P//kj/3JhQ4lcuMXuO4/aT/O27FbY0b/YhQCdAB3RyK+h7VbFsimzlEqS/pfZ3MfiUNiftJaNm5yltaGpXGaDTP7v7rhfeveGDXnrmGKADujFVXrx2VUHNmKrquqwhrSfLypreub5obMGqll1JngZ9bocmlJsiuTuscGmn37Lq9zvmSXIrszUvakgdWwno3u6uHz3x+D1v3/nciUCvjj751+tef+3xX7x7PaCTYytrOXNDyYCPFGs9p6Z8z9w0T4I+rU5TyfYIrjiLnlLrt7Qhw5OdsL/OW5CpvKFRq3IA3Ztd/94jr731XGCQjl79zvO33AXo5LByDpYvD/p6qsaRpSOSPAd6rqYcI8O/K6ztIos5f7+sjba/yGVeUaYFGzopBtC9172//N2tgeB77p1fvQvo5JRmLdoQ8o3LiZNylR834jDQDycqslGXH+5qbS5v9dvS7tW27rPbJjdas52xFWsA3VM/lt/2+pOB0HvuvifuBnSyvaTRI8OlKm/DnnyvgF65TBGN9CvDXKu4RbV+u0pcYN/rW3KmRFm3oekxgO6Vjjz0p1sD4Xb0usePA7ojSx4uWnMwy9wjusiZwX3P2RLhY0iK28dFewH0uPWKYizrDnOtDp7jt7PGeJt+So+ptnQ7M8rTvAr6HddJdl8IS/6x6JKvC+rqtZf+8ptAZJ1465FHAd15RcvOCMOCWabs3bTnBLHE7lKJ05Z5w4a6H/RVmi6uDPNH5Gy/3U1facPBua001urtbF/jUdCvDkh2TQhLvk90yYEjgy7w/oeuE1nStX95F9AB3eebbi3ocS1yM1Pd8Gh3g35WsR4WGYfDO+u8vdFvf6nlln9Jb7HjV4bp8wDdWtDvsBb0Y7+6RmxZJ9665X5A9zzodZaCnjBRdHH1q6JdDHq04iPYEreEtUorzvE7o7pd1h6ZuZm2bGbtSkC3FPSXrQT9yCv/T3Zxf779fkD3OOjVFoIeI/8ckqjyza4FvVRRiviwzjpXZPidUka8hQfm0BK7NnP8OkC3EvQ3LQT99msC4l39xP2A7mnQOy0DfdYmlR8ha/fmuBP0tYp3rOWGdVFYid9JdVn1atW0chv/jiluAXQLQb/HMtBv+G1ApadvAnQvg77cItDTRo9XO/2a4EbQRyneItUVxgNfkysS/c5q93xLjsqUBlu3suNsQLcO9GctAv3YsycCSt38zguA7l3Qq6wB/cByzUmv4ZDrQE87Q2+41odxSdmoKr/jat1qwUF5MN3mrcybD+iWgf5Ta0C/5cWAYkeffRTQvQr6YitAT44v1p30xq9KcxnoE/QGqzOMF5ftyfM7sMRy9WNyiv2XDdSWAbpVoL9qBejHXr45oNvVPwR0j4KebQHoo5brz3qdc10F+kq9t5KWhP5A/OTcRL8zy81RPSLTZjthI+vaAN0i0J+3APT3/hpQ74Q9X9IB3XbQG/RBP2zJAzOL49PcA/q+qWrjNOT80H9FXux3bBeu0fz5/AxnbOQGQLcI9B/rg/740YAV/fElQPci6O3aoKfNsOoJW+0prgF9k97vzqFfSXZxvd/BVeu9ge/86U7ZyC2Abg3ov9QG/dGXAxZ16xuA7kHQNyiDHt1u3bQ3ZJdLQN+jdx6jOeSVmdnod3R1WqLPHeKYbWwcPRXQrQD9FWXQjz8dsK53jgG650BfoAv6+ZOsnPeKF7kC9DK1d5NmrA15ZVbF+h2e0nf0mFa/awP0fvqVLujvvRiwsqePA7rXQB+mCvrcLGsnqsTyOPNBz9G7hnB4qOsS12QAT5M0RN/a6Ad0z4H+gCroNzwZsLYX7wV0j4E+VhP0i6Msn6q6ko0HfYba4IR8l1dyjRE+TU+R97zDD+jeA/1BTdCfujVgdQ/fAujeAn2JIugxdty8XJVvOOgxanc+V4S6Km3ZhgDVKX2te0uqH9A9CPptiqDf9FjA+m69HdA9BXqpHuiX2PMj5DlJRoOer/YrRVGo9/VtqzJGqHbZ+9EPu9tzQO+vR/RAv+nhgB2deAPQvQR6hRrou+y6qKguxWTQF2gNyxmFoX4/rzKIqLGSB2JChx/QAV0U9B/a4/lJ0R8EdECPHPS5UbZNV5FcJGU36FvU/swJ9aeIbSONMmqh3HG4crwf0AFdFPSXHgvY1c2/AnTvgJ6rBPqsLBvnqwi+o9sMerfWtdVTQ/0jJ3qMWUZlrpU6DG38UxTQbQb9CSXQn3kuYF8nngB0QI8M9LaJtk5YY5LNBD35HKUBqe0OcRymrTcNqcYVMkehrX+KArorQb/7jwE7O3ojoHsF9NkqoOfYzUFRnJGgNykNx/ihIQ5DXJd5Su3eLHEQbqv2A7pnQb9dBfQj1wXs7bGXAB3QIwC9wPYpq8lE0Odk6gxG8ZxQh6HJRKYa4iI/BtMa/IAO6LKg3xOwuyefAXRADxv0Hfa/bTNxj3mgpyi9BSUz5LGYYqZTEyI/Bmf7AR3QZUG/7WbbQQ/ceQTQPQF6gQLoK5xw10/jfONA13qPzehQB2FcpplOZcREegju8QM6oMuC/tLRgAN6GdABPTzQ851xVVF6kmGgb1QaiIKQb9sy9jHmU/dFdgRe3AHongb9F/Kg3/2zgCN6A9C9AHqTPOhFDpm1stOMAn2uEqObQv1leVa9uVJ1RXQAJqX7Ad3ToD8kD/p9zvA88PB7gA7oYYC+0THT1iqTQC9Uurq6IdSHok6baDJVMyM4/uIa/IAO6LKg3xZwSn9+FNABPWTQu51z1rJ4hUGgK12NNTI61BHoMpqq2gie+zvFD+iALgv6C485BvTAPYDuftAnC4Oe0+mgeauu0BjQE3SuQ5sU8rvnhhtuVfgn3c8qBnSvg36LMOj3X+cczwMnfgLogB4i6M76llNuCuiVtSrbn35lyJeFma5aYkK4R1+JH9ABXRb0BwJO6sVjgO520MtlQZ/vLA8ydpkBepzOk/Vad4a6+Wt2G4/V1MLwjr5SP6ADuqyg793qKNDVT7oDuu2gz5A9x+2052aOjDMC9NEqG9+4MuRdsMsFWoX33rXmREAH9Kdk33P2W2d5Hjj6HqADeiigO27q2mIC6CtUzmtkHA55D3TFc1U6ysI49tak+wEd0GVB/+sJh4Ee+O39gA7oJle72fmgR09X+TF5S8g74CjFF4dGdW4onTH8g6Y0DbtwuuLNEOFcF1fgB3RAFwbdgd0G6O4GfaHb565c54Oeq7LhoV8QGLdY6Y+qBVPWnX61fdmO0uk6y8sM/aeGizMAHdB7en7idtCfPAborgb9TLfPXanznA76YZVfb3ND3//2aqzHpIUDPA1g1KIGjV8bqkLd8pxqP6ADek/Pz90OeuDHgA7oRtflcNArl6lsdeivEr0yT/67+exBX5Gzea/C9/StHrv5HtCFQL/R9aBfexeguxn0eNdPXpm7nA26yvNG1yeHvvtdKL0SJUuDWou41SOll1wd2p8zSa2ADujeAD3wGqADutEVORp0lfPcnW2h731LhdehfmnwL8dJkL49YlxIm17hB3RAf7+b3A/6rccB3cWgT3D/7JU438Ggq7xjbXcYb45Nkr3CvbhpTShLT46Xveq9JJQ37c3PAHRA9wrogZ8CuotB3+6B6WuBc0FXecda7bwwdr4loquQ3R3q8g/IvgQglLeurfcDOqB7BvTH7gZ0QDe52G7Hgt6ksLmt88PY90S/paaG8+LanMmSV/t3Br/gOTbskh2trY2A7jzQf+QB0APPA7p7Qb/IC19ISp0K+tkK71grbg5n35M85oYcDG//3yF52j34URhp3Y5Ym10xZW1M9z9uys+fFbOlvGZSLKADuqX3oh8BdNeC7ol3QDfmOxP0fIXnjWasDWfXaxFcg8VJ4R4AzYI3zmUHfUGeRTthyblLz+tzBbY1T1ifCuiOAP2HXgBd73FxgA7oljTamaAvUNjU4eHseYWCL1mrSQ7/CLhYTvTEYN8012nB/pe5fNXAL7JNWdSQCuiAbtET3QEd0I2uJM6JoC9V2NLysPY8wb0gNy6SQ2Cl3C/LY4Nb4lb9ve+CgmBeFzNrci2gA7ol3QDogG50CQ4EvUzhcSYVYe14++RuWYuP8BhIEHsUbJC/s6h/Qc/aOy3IbZ+2KAvQAd2C7gB0QDe6GueBnrNcfjOL0sLa8eQ2ujTig2Cj2Lrsd8Il7kMWhfILRPL+WkAHdP071x4FdEA3ueLNjgNd4Rl9ZxSGtd8lif1yXRMX+VEgdkN8UL+zZKvudo0Lo0Pc+jVNqYAO6IZeFgfogG5RG50G+kr5ibsuP7z9Tuxd4NVrBI6CbVOlVidm8IWtUN3pimaFsf3dVYAO6Mq9BeiAbnRVDgO9rUT+x9pZ4e12SVIXog2ZJXIYXCL1p86mwZc1VnGXG78ovO1PPjMD0AFdtaN3ATqgm1zmIWeBXiq+hbXdYe525UIrEBsjdBzMEFqh1kHPd88q1tvjRp4f/p806YAO6Kr9CtAB3eimOAr0lkTp7Wu8JNxT3FIX2y+UOg7E7oofYdWfDn0dfdMiGIFDnYAO6Obdig7ogO6wc+7WgD7rAunNK54T7l4ntQdUpYkdCDOFVunCQZaTM0TthND2yEagbT2gA7piJ+4CdEA3uYwU54AeJz5dZ+4Jd6fLEbr3uXGe4JEgdEdf8SD/5y1aO1vqiEhHIGcYoHsH9Id/8+KL/+9W869zB3TvgZ6eXTphXMLZQ4cOXZcwc0f8sM5Wixa8xzmg7xffuNFh73Q7hNYgXvJIWCm0UoPc29DuWM9Pit4F6O4H/bl3fvzIj47/Y+HX33XvE8+//vRRS5b8DqADeqRNzZ056vRVqNxSE2XBwmscA/rcDultKwh/p5soswaTkkUPhcUyazXwG1pGKV1NHt77cU4trQjQXQ36w2/f9kxf63DsoTev0V/6tUcAHdAj0nzGiv6/jsQsGa+9/NYch4BeWC1+AVb4z3MZKrMGietkDwWhV6AV7xtoIRN0drTEjULTwUhAdy3oJ/72i4Ge1nbvHeon4G8EdEAP/zfe7NWDXDOVv6pEeR1WOgT0AukNa8gJf58Tei5bu/ChEDddZr1mDrQQpR2uXGoQUqYCusWgW/Q+9MeefWGwNbnr+Sd11+FVQHcj6BdZwXli+/xgJvGl9aprEe8M0OdkCm/XyOjwd7l8mRMjmTulj4WNMmPTNcAiLtHZzcbKDcKBPEB3IejXPn8smHV59PHHNNfiTkAH9PCqujjIAdhWoPigD/9iR4CeIv1XS0lSBLvcaJl12CB+LOTLXGcQNcDJiwKVvawuWnAUFgG660C/+fXjwa7NC29rPizuGKADejjjvyiEX3h3Kp537yh0Aug1wluVfmUku1ydzBf0+fIHg9AlYQf7X4LKu0rHHxAdhS5Adxno1/wklJF4Q/Gn9FsAHdBDLzu0L5DbNuityjoHgL5UeJtaIzrZLfRukiKFg2GtzKrN0L4c8JS2yI7C5lpAdxXo94X4vfilF9VW5TVAB/RQi50R8gXYUzK1VibeftDLhH8VbTwY0R4327q/lEKtUOb5BMu1t713DdLDcBjQXQT60QdCHou779RamesAHdBDLG91OD8caonebjvoOcJ3ImUcjmiHy5H5Pb9a5WiQ+W0iI9/KM+7jy8SHoR3QXQP6cy+FMRjHfqt1H/z1gA7oIbU7vBeAjVB64Ee97aALf3pihCd4z5ZZjdEqR4PQBWEtur829G6v/DCUFQO6S0D/8zNhjcYxre/o9wK6+0Dfruh5Sbjvx96rtEKzbAZ9pfBfKmdGuMNtkjntn69yNMySeSFdbj8fH6+wf42JUxiHXEB3B+hXh/s+lLt+prNCDwI6oIfQ9CRHTWL+QR4zog96m/Al/LkR7m/JMj9T1ygdDjJX4Hf28+lVCheM7NQYhqQ8QHcD6H++O+zxeO9hlTV6GdABPfjSD0VwRdRElVWabC/own+mtOdEuL9tlVmPtUqHQ6nI2qW29fnh+1Lld68FOuNQAOguAP3F4xEMyBsqq/Q0oAN68NfDRXRv8vkqr2tptxX01YmiH70+OdL9Teaxr3nTlA4HoR/R+74Ef6b83pVapnb5rCsAAB/fSURBVDMOs1IB3XjQH4vsB+v7VNbpfkAH9CDLWB3ZWCzVWKkSO0EXfkRcZ1uku1uczAppnXH37ZQZqL5vVhwrv3edqzUQCwDddNBPRPgUl7t/o7FWzwA6oAfZ9kgHY73CSsVG2wi67EO/didFvLsJPVllj9bhkNMosn593xouf9Na6nlaA3EQ0E0H/flIh+QRjbV6CNABPchZNOLrfbs1btfZZR/o40Q/t3Ze5LvbZJE1SaxUOx5kXjOb3tdHjzLoC7rCa+EAvZ9u0vH8b5Gf3H5LYbV+AOiAHpw3kX9/9FUorNdS20CvFL0ooHWFY64ir9M7HoQee5/Sx0fvEd+1Erv1BmIGoBsN+rXHIx+Te08oPIcW0AE9qGYKjMYsha/o5baB3iD5qcXNAuNbKXON3my946FcZrTmqF1B/+GqFCeGeYmAbjLoj0gMisKb1+4EdEC37jqpJfIr1mUX6FtELwUQuVFsh8zKtOgdD0KDNkXt7ERoJ39sP5kC6PaA/pbIoCj8vP8coAN6EOUliQzHefJPgF1uE+iy72QZLjK8w2RWRu8ndF+z2l9xm8VfF7CsUHNmKAB0c0G/Vehi8uvkr71/FNABffAWCo2H/JtUh9gDetwYa383CKp0maslFI8HofvW+nh3zGrxPStXdWZIAHRzQX9WaFR+Ib9q7wI6oA9afbTQeMwRX7XYZFtA3y/5kaUyg3tAZm2yFY+HJKETRhZcZeafqzszdAC6qaD//m6hUTkify/6U4DuNtAnyIO+UWo84uRvFu62A/TuRsFPLMqRGdyNMqvTpHg8pMXKrOOo0z65SHq/mq48NSwHdFNBf15sWP4ivm4PADqgD1a63K+J8k+xbrYB9JxOyasApE5/CP2EvkjzgBgvs46nX+Yu/pfiZOWpoRTQDQVd7At6T88N4iv3KqAD+mDtlxuQueIrN8IG0FcJfl5JktTYCj2sZJ3mAXGB0h6ZL30bmP9i5alhP6AbCvpPBcflGqe/bw3Q3Qd66xrBEZkuvXarrAe9W/D3z/RRUiMrdZ33Ic0DQujp96ddsBYjftlInPLUcDagmwn60eOC4/Ka9Nr9GtAB3crLfcXfi95kOehxgj9/1so9jUzqOu+qMYoJ/Sl02kv2VknvVqXaU0M3oJsJ+tuS4/KU058sA+juA130CZhbpdduk+Wgj5b7sMZL5EZ2st87nXbfmvir1rZqTw35gG4m6LdIjsujDwuv3c8AHdAHTvbR3m3Sj3+90GrQR8k9UiZD8qFsF3oI9AuUrxn3p0arzw3FgG4i6L8/Ijowv5N+IzqgA/rACV/uO0Z49TqtBr1d7KMyRR8uOsRDoCdG6/w23/8pAMdeTgDo1oL+juzA/ED6BMIRQAf0AYuRHRLpM8PTLQZd8ONGS45rit9LHei98fscfd1I36UDuomgC9/o/XNp0O8CdEAf8LTwNNkhGSc89Q6xGHS5E+7pOZLjus5ToJ9yI/ou6c8fpz83TAV0E0F/SXZg7pZ+h+oLgA7oA1UiPCTnCU+9rRaD7tQfM1Z5CvQdvTd+hPTnV+rPDSWAbiDo4m8/+Zkw6PcCOqAPVLv0mETJrl9snLGgZzYLDuu5ngJ9tO7/cZYFc8MkQDcQ9GuEB6bnHWHQbwJ0QLfsa+T7VQlPvm3Ggu7PynfusDq7U/bKTcIfX2TB3FAN6AaCLv3glp4/OPmuOkB3AOjxssvcIz0mSyw+O+pg0Pt6sTcXuQfTkt4bv9jJP4b000RAtwL0G2W9fE0a9EeEQX8C0AF9oMQf7S19FX6ZwaCf+ltwBHtaoqdAL9I8fe33L7VgbhgJ6AaC/rg06NLvZ7kN0AF9oMRfCz1TePLtNhn01jKhUd3pKc/9Y1Svy/DvAnRAt8LLnp67hUF/ENABfaCSpMdE+hajuSaD7h+T5sw/kxzeOb02vlD49ERmG6ADuhU/UZ/sWtkVfAPQAX2AYtOkx0T4Idb++UaD7r9IZlQv8hbovW+mPF/409N9gA7ofXaDOOh/ll3BXwE6oFs71o3Wnh51OOjFZ4kMaq63QO/t10rhT18M6IBuyXNbTvaW7Aq+AuiAbt1E8X6yz7z0rzQbdH+JyHtAarwFeu/HCa0V/vRNgA7ofXdcHPTXHX3VHqC7DHSFR2zI3oA76LPmnQ66zHPDvXUbuj+118ZvFP70JkAHdEselX6yv8iu4A8AHdCD/rFSpMWA3qvE1QKDuttboPtzNC8gWAXogN53d4uD/gdAB3TrQJ8kPyg1gN67eoE7CRo9BnqvVwaVC3/4CEAH9L47Jg76K4AO6NaBrvBi6FJAP6WGiMd0jcc896/RvCKwGdAB3ZLXjZ/sNkAHdOtAP0d+UGYD+qktinRMr/Qa6Js/vPVjhT98LqADet9dLw767YAO6EaD3gTop9bYHeGY7vQa6L1+pdgg/OEpgA7oVoH+EKADutGgzwD00+rMiWxMY7wGeq9X8qwX/vAcQAd0q0C/BdAB3TrAFEA/E9BPb0ZkY7raa6Cn6Nnoz/ABOqBbBfrPAR3QjQZ9O6D3gcjBiMZ0j9dA73VR3EThH0AAHdAtA/0mQAd0o0FfBeh9lLUvkjHd6zXQkz+89cKPKooCdEC3DPQbAB3QjQZ9NKD31VgHjanji+219XWyH14P6IAO6IAO6IAeQeMiGNMpHgO9o9fWTxI+WQLogA7ogA7ogB7Jbj0r/DGd4DHQe7+cpUT2w0sAHdABHdABHdAjaXFc2GO60GOg1/baeuEH2U8HdPeA/nNAB3RAB3Q7Cv+lIOUeAz2919Znccod0AEd0AEd0J1U8Ypwx3Syx0DfrQk6F8UBOqADOqADeoTVFYY5pjM8Bnqd5m/orYAO6IAO6IAO6BFWEOaYxnsM9DM0r3LvAHRAB3RAB3RAj7DMOeGN6XaPgb6h19YLP1gmE9ABHdABHdABPeLfb8N709cqj4Fe2mvrJwp/eiGgAzqgA7ojQF8I6AaD7q8Ja0z3ewz0yYo2nvKydUA3GvSfADqgAzqg29bScMZ0o8dAn9Jr66uEP30uoAM6oAM6oAN6xOWVhTGmWzwG+pZeWy/9PvRmQAd0QAd0QAf0yBuZE/qYrvUY6Ft7bf0GJ5wkAXRAB3RAB3RAP6X40Me02WOgX9Jr688V/vQJgA7ogA7ogA7oAqWuDHlMz/IY6L3fY1Mg/Om5gA7ogA7ogA7oEpW0hTqmZd7yvDhNcZcP904DQAd0QAd0QAf0UysNdUzzvQV6luoe5V9uxdwwEdABHdABfbBmALrxoCe2hDimaZmeAr1K9xr/WivmhjpAtwL0pwAd0AEd0O1tWWWIg9rqKdC7em/8aunPT7JgbpgO6IAO6IAO6B4A3X+hrTw4vd4PivOtkP78ORbMDVMBHdABHdAHqxzQXQC6f3hog3qGp0A/ZXAqpT9/lQVzwxBAtwL0WwAd0AEd0O2uMbTnj3Z5CvRTvkHHpQp//lgL5oZGQAd0QAf0wZoM6G4A3V+dHMqgNnkK9EOq33b9/k79qSHZD+iADuiADuhOA71D52Nn2DioDj97Ead6C5jfn5emPjUkATqgAzqgA7rTQE+NuVDlczNDeUfITC+BXnfq1jdIL2GX+tTQDeiWgP4QoAO60aA3Abq1oE/xlTWqfHBWfvCDOtRLoBeduvW50kvQf5r7HEAHdEAHdEB3GOjv/6cs1PnoruAHVe5Rceem9FnSvL67eGifNSf02eERfTe877bH99lpd5Xtlx759epTwyJAB3RAB3RAdxbo1dEnl1FYovPhO4If1XqpZbb7zCtB/Ff6Qu1VngHogA7ogD5oBYBuIegXlOmI8vday4Ie1SoH/4+rN0985GO0V3ksoFsC+i8AHdABHdCDKyPhH0sp0vn8MUFfbr1E7I8IA0FPK5Ye+Bnaq7wc0AEd0AEd0J0Eevw/lzIrT2cB24Md1YvEFnmlgaKL/+Shfif6BYBuCei3AzqgGw36bEC3DPQN/3tD9HadJRSfFeSotogtcquBoIvfOJg4T3eFpZ9WC+iADuiADuiRNGnN/y4muU5nGSXRwY3q+WJLLDcQ9CbxcT9Td4XnADqgAzqgA7pzQI8678PLWZeos5Rcq8/hnmEg6OPk/5DSXeEZgA7ogA7ogO4Y0GMTei9I6f0oiauDG1axYywv2TzQu+XHfYVJ18QBen89AeiAbjTouYBuDeinXghd2aqznPqkoIZV7mLIBPNAj5O/JrFAc33XpAI6oAM6oAO6U0AvilPesP+pweKzzqUGnnPvFB/1IZonKrb6AR3QAR3QAd0hoJdsO21JaROVRF9k7VnnIWnmgb7EplEPs7GADuiADuhBVAHoFoCed6CPRQ2N1QG9sTuYs85yZ/wNPOe+UX7U6+LU1jY5CtAtAv0RQAd0QAf0gctca9X3xA/qDOb0r9y92Bu4Ku79VqutbYsf0AEd0AEd0J0BelPfy0pZZtEFeH01RWxpGWXGgR53gfyg692/twDQAR3QAT2YZZYCujro2WnWnfn9O7EHBx/XXXKLyzUOdF+DwqjvUlrXWcWAbhXotwE6oAM6oA/U1M39flFcriR61r5BxzVH7tatvCTjQNd49G6n0q/os/2ADuiADuiA7gTQ8+b2v7T5qUqijx18YLPlllZhHOgHNQZ9nMqqbh4P6IAO6IAO6E4APXGmdZcwhIRLvNzCOg6ZBnpho8KYTy3UWNV4P6ADOqADelCgLwF0XdBnD7i4ffVKoEfNGmxgdwoubb1xX9Ev1Bh0jVe0zGoEdOtAfxDQAR3QAb1/6gZ57Moera/oiwf9RTddcGktpoG+SmPMWxUuJij1AzqgAzqgA7oDQK+vHGR5atfF+YcPNrKSp/uXVRoG+gGVMS8SX8+5qYAO6IAO6EGCfi6ga4I++NNG1K6LazwwyJITJJfWYBjoviyVQd8ivJbJ1X5AB3RAB/QgQR8L6JqgnzX4BhYoge6vG+QarWmil0/vNwx0ncf0RZ0vu5bb/YAO6IAO6IBuCujRWVqizx5kye2SC0tdZxboLTpjHtRjd4NuZzGgWwr6G4AO6EaDvgnQbQbdN1ML9Mw5Ay94hOjSLjhgFOjReTqDLnlP/rZJfkAHdEAHdEA3B3TJR7ycckleyoDLLWyVXdo8o0RfoDToq8TWMGe92o4B6IBuKuitoxxTPqAD+umVdWhN3INcdT1Mdmm7R5kEutaJkVSx18mW+wHdYtAfAHTHg+6gznUe6MMA3XbQfTPU9riBr7puFl5auknf0aMblca8MUZmBTcmqu0WtYAO6IAO6ICuAnrhbq09Lu+8gZabJv2cuqz5Bom+QW3QL5FYvRGxehPRMkAHdEB3I+hdgG4/6LK3hPdqZM5AyxV/kdd4gx4Zp3Yxoj+vOfK1W52qOBFFATqgAzqgA7oO6L4itX1uwOeLz8uUXlxiQZopoBdeoDboHWsjXbktxZoTUSug992vAB3QAR3QIwX9kNYPuv7UlQMtd7H8AmvyTRE9V+9ITyyPaM3SKnQnIkAHdEB3JegLAN0JoPsmqO10JW0DLFbj8Sq1Mw0BfZfmsT42OoLr9bqUJ6I8QAd0QAd0QNcCPXmS2l5XOtBXQZXH1BWlmCF6nebBPmlnuKu1c7r2RNQI6H33CqADutGg1wC6I0D3rVO7SSmxxfI75rISjAB9iurR3rE9rMsJ4jZ2qE9EHYAO6IAO6ICuBrrak8v8/gsGeLfpLKWLr7JXWO9zWneI/yBFmc6RZ4W+EfOrLJiIigEd0AEd0AFdD/TKVrX9bn1c/4vVuvwqsajbUs3zFxW1tsaF+I/GKh/wsZtmhbgVualWTESpgA7ogA7ogK4Hum+V3o43vP+llqkJUpx7nlWap2xp/+A2gVAXuEL/5PbspOBXZ9vCVmsmolhA77vHAR3QjQZ9A6A7BfS0c/RYmdv/YocputFwtj7myevKl2f8Y4HjQv3HFpzfblwS5OPzks6MsmoiSgR0QAd0QAd0RdB9l2Sq7XnVhf0u9UCs5i4/aeM2RczjVlyU/eE7+AtC/YCZlvC5fNGaQbdkzoZiC2eiOEAHdEB3IehFgO4Y0DV/0m2y6m+6088OFM2cpoH5tJgpRbWnLGtxqB+Sk2XNkd/YvnGAX9PbWpYMsXYmSgZ0QAd0QAd0TdBT9B5Gmtn/48UPqF+H1Tpsa7ToTjFvacXEvtY69GeU77Xu6N+9ae/K04ehsqWpqsPymagQ0Pvsl4AO6IAO6DKg+zbq7XtZ/T+RtdSCXb/jjPiLJZ7yXrhrUe6Y/v/uKQv5F/h0S2eAjKzFSyZftGjEyZYO399U01lrz0wUDeiADuguBL0d0B0Eelyn3s7X1f/VWHnW7P5RRRPmhP+g9zXz18bXTBrkbMJMJ39Fd1BtgN5nPwB0QAd0QBcC3bciQ2/v29PvUhdadwgk7q7ZvrU7lJ9wk+Yn7C3YMHFZpJcK9PcVPcuLoG8DdEAHdBeC3gDoTgLdp/iardZ+z0e31Vt8IKTuzq5YtTThrCv7vFwu//z5MVtHDJ+Qu2D9pNrQ/sJZb/sOZkb5gA7ogA7ogK4Mer6irWP6/RF7qW2HxPj0rKyS6r9Xl3WyIRE9WyX0q+J8ySUeBD0J0Pvsx4AO6IAO6GKgq9q6vd+lZrvlEAvj4XTjPAj6KEAHdEAHdEDXBl3z4WXF/a5OWaNLDrFxYexiI70H+nmA3mfPAzqgGw36hYDuMNAPKD4xrKTf25VmuOQQKwhjFzuY6PdaBwAd0AEd0AFdHXRfgeIeWNHv/d0u+SV5cTj7WLbfa80HdEAHdBeCLjuXAboA6G2KzzpJXN3fUs/OdMUhdkE4+5hrfnAIuosBHdABHdABXR901TeG1Pd7fXOTO46xsnBGfIbfYx0E9D77A6ADOqADuijoqqeAG/q9fWuiK46xmeEMeKHXbl1rBnRAB3QXgr4e0J0HerfmmzQ39rtUV5x4bgprxBM8BnoCoAM6oAM6oFsBuq9ccSds7O5vqfvdcIytD2/E2/2e6jCg99mrgA7ogA7owqBP2624F3Ym97PUuAYXHGPLwhvxpFq/l5oJ6IAO6IAO6JaA7tuquRvO6G+paya54CArC2/E13oK9BGADuiA7kLQFwO6E0FXPQWc0e81zudFeffLZ5eXQN8C6IAO6C4EXXasAV0K9PM1r1DL2tfvxWGxxh9kTWGOeH663zttBHRAB3QXgj4G0B0Jui9ec0fc5OI7steHO+JbM/2eaTig99lPAR3QAR3Q5UHXvTW6/99QS00/yKLCHnIPPV5mCqADOqC7EHTZd3sBuhjovnWarwyJmtXfYnOMv9S9LNwRz6ly+qZVDBf6SWQ7oAM6oAM6oFsGuq9Gc1dcHNfvXthp+FEW/i1ZSfXO3rIxcT6hu+sWAnqfvQbogA7ogK4BemWr5r64qn/Wppp9lDWFP+RzHH1NYOp8n2+6zEeVAzqgA7oLQV8O6E4F3TdFc18sXtHvcuea/ZCV7AiG/CKn/6VSJfdRgA7ogA7ogG4V6Dl1mjtjXWG/Cz7P6Du4oiIZcwdfE1hSKPc7TC6g99mzgA7ogA7oKqD7VqreSDXb51LRz49gyJMde2Fc5tnvr1+FzIctAXRAB3RAB3QrQfdtUhViTv8L7q43+DCL6EHl+6Y7dKv+/sDehTIf1gXogA7oLgR9JKA7GPQU1Uex1qf0v+SdQ8w9zCZHNObdyxy5UcuTP1i7vTKfVgTogA7ogA7oloIuNX/3U/tAt3CZe/fa+sjGfL4TH2hfW/n3lRN6h0w2oAM6oLsQ9E5AdzLoabqsDvSOjjXZph5myyIc9JXjHbdJiav/sW4HZT6vCtD77B5AB3RAB3Qt0H0Xq94ZnXfeQBfZn2vqcXYowkHfmurYXxHmyXxeJ6ADOqADOqBbDLryfVQjcwZYdFxTopnH2dpIB32tw0Rf8D/P9dsm84F1gA7ogO5C0CcCurNBz9d9ysuZAy58dauRx9nkiEe9udFJ27M4+X/XTGbFpgJ6n/0F0AHdaNDPAXRng+7borpLZqwc+JLvEhOPM4FLvtblOWdz6j78+voskY+sB3RAB3RAB3TLQffpPuqkpG3g27JNfPlarcCoNzvmyrgh58mfUosC9D57E9ABHdABXRP0nbo/6A7y0LDk8gzzDrRRAsO+0iFPtE+f12u1LhT50A5AB3RAdyHo1YDudNB9s1V3ysSWwe7LnmTcgbZWYthH1TlhU0pOeXO9zMMDE+MAHdABHdAB3XrQ23SfrH7BrEGWH12QadiBNllk19vsgOe6T688ZaWaZD63DdABHdABHdCtB903Tne3XD/o17W1hr1QVehBaNHttnt+2i31Qu/UTQJ0QAd094FeB+jOB92n/NC24YOfJCiINelAq5Xa+4bbe0N6w5rT1mipzCefD+h99TKgAzqgA7oy6N3Fqvtlx9zBV2HXOSYdaVdK7X7r7Dw3UdDHY38SZD76AKADOqADOqDbAbpvsu6OWV04+CoUzugw50hrEdv/yqrt2obM+L7WZ4XMh+8CdEAHdPeBPgnQTQA9Okt3z2wKZiVmjTXmvPtkuR1w2mx7LgmMOtzn6lTKfPo6QAd0QAd0QLcFdN9W5W+DzUGtxa4qQ4400deDrpxqwxas7+eytRyZP6oOA3pf3QHogA7ogK4Ouk/5iW1Z+UGtRdzSdCOONNlHm0ZXWL3+qVP6vfNgmcgCdgA6oAO6+0CfDuhmgH6+8utCuoJcj8L9JpCetUZ2L1w7xNLVT5+jfcTuBXRAB3RAB3SbQJdes9PaE+yKpI1w+BtbGscOFd8No8uLLVv/4vjkAdZE5leP7YAO6IDuPtBLAN0Q0AuVGW0tC3pVkjfudu5BNml7kk+jFSMt2oDqiwdcjw0iCykHdEAHdEAHdLtA9zUn6u6dy9NCWJmhCxz5zpbd8WU+reJ2ZFmwBa0X5Qy8GqUii8kF9L66D9ABHdAB3QrQhb6bSZ2G7a7Ic9jhVV/anObTLHm49mNm8uIH/fF/ociCxgI6oAO6+0DfDejGgD5LWdDiENd23/CRiY45trJmx+hq/kFJuZrXJmZ2BXF+Ya/IojYAOqADOqADun2gS72Yo99KokNdo+7JWQ44rjKWx8/3WVRSgdafVbEbVgR1wb3IwrIBva9eB3RANxr0qYBuDug52m/orgjjl+Xmc+19FdvUTSM2+6wspTxK4/TIknnBLT5G5oIJQAd0QAd0QLcRdF+M8inuxPAeIDY/3p5z76kjCxL2+awvepH0A95bCyqDPikissA6QAd0QAd0QLcTdN8w5T20PtxbvuYvXG7tm0Yz6ypmJvls6+ACufvSE6uWhvBbxz6ZSw4Ava/+BOiAbjToWYBuEuhJUcq7aEP467atpdSi29Oz2heu3uyzuc3DO0U2pragO7QFi7z0LsrJoP/2WsmeDuU+dNElXysP+kuyK/iKJaCvONulDfIS4rShogV1R+580UXOlZ83k2QHZdtgV5LLLi5aejjmDVUuOaLVK1t07iTNl5PFltRsn2O75f/sQFOkf8Gk564L+dr8FRL/zY5+fSoZ2sd8ROSu8reWr5c/kZC6O7tidMwap21s9/aqcH9qyKxrGuqO/3FAJ0AncrHqQxcVZGdJXCqXV70gfsTQFOdu6uaZFdUhv9O0pHRckmv+swGdAJ3I7VXGLJpc03lBOI537F6+YPaUcTFlOUb8/bK6Kbs+yC0b0lDeMstV/82AToBO5JHWdMesHT6jtGhMdVZUvyeoO5ZlVVddWLOk4MxVi7bO32zgZiYlTBg7Jr3/L+sZU9dXjE5Ict//L6AToBN5UvdRO4cOHRqT8EHNQ4fumjdvXkpKSrJbti+5e8644QtzhxVdOKazurp6+ZiGoq7cMzeuXXcg2a3/pYBOgE5EBOgE6EREBOgE6EREBOgE6EREBOgE6EREgE6ATkREgE6ATkREgE6ATkREgE6ATkQE6AToREQE6AToREQE6AToREQE6AToRESAToBORESAToBORESAToBORESAToBORAToBOhERAToBOhERAToBOhERAToBOhERIBOgE5ERIBOgE5ERIBOgE5ERIBOgE5EBOgE6EREBOgE6EREBOgE6EREBOgE6EREgE6ATkREgE6ATkREgE6ATkREgE6ATkQE6AToREQE6AToREQE6AToREQE6AToRESAToBORESAToBORESAToBORESAToBORAToRIBORAToBOhERGR/l2EZneyzHApERGb3OSyjk32BQ4GIyOw+hWV0sss5FIiIzO7fsIxO9j0OBSIis/ssltHJ/p1DgYjI7L6HZXSyL3MoEBGZ3RexjE72fQ4FIiKzuwLLqKfnUxwJRESGl8Z9a8Rda0RELugqNKOeL3IgEBGZ3pfQjHr+kwOBiMj0/pWHv9I3OQ6IiMzv23jm+b7EYUBEZH4fwTOvd9l/cRgQEZnfpVzn7vWu4iggInJDX0c0b/eJr3EQEBHxFZ34gk5ERHxFJ/u/oH+LQ4CIyB19kneoernPcAQQEbmlKz4Ba57tU5dyABARuaYv4Jpn+wq7PxGRe7qUk+6ccCciIhf0jU9Dmyf75ifZ+YmIXNW/Y5sX+9w32PWJiFzWd9DNe336CnZ8IiLX9d/45rUu+zy7PRGR+4q7HOE85jkXuBMRubPvcDu6p34/53w7EZFb++JlMOeZPs71cERE7u0bHwU6r9x/zgPiiIjc3KWXc9rdE5e3f5F9nYjI5V3xTbhze5+4/Pvs6EREru+TX+epcS7/9Zy71YiIvNGl/+fjqOfavv1l9nAiIu98S//ix/gt3ZW/nX8BzomIPNZ/fP2r3MTmshvPP/sRLm0nIvJil37+u5/9ON/UXfHN/KNXfedbaezSREQe7pNfu+LzX/kImdtXPn/Ff7IfExEREREREREREREREREREREREREREZGR/X8o8pyy5Q3zvQAAAABJRU5ErkJggg==;" vertex="1" parent="b1W5nlMtBY8Uv-4wOHBY-9">
          <mxGeometry x="14" y="30" width="94.11" height="25.52" as="geometry" />
        </mxCell>
        <mxCell id="b1W5nlMtBY8Uv-4wOHBY-10" value="" style="group" vertex="1" connectable="0" parent="1">
          <mxGeometry x="170" y="-560" width="140" height="80" as="geometry" />
        </mxCell>
        <mxCell id="b1W5nlMtBY8Uv-4wOHBY-1" value="" style="shape=dataStorage;whiteSpace=wrap;html=1;fixedSize=1;fillColor=#000000;" vertex="1" parent="b1W5nlMtBY8Uv-4wOHBY-10">
          <mxGeometry width="140" height="80" as="geometry" />
        </mxCell>
        <mxCell id="b1W5nlMtBY8Uv-4wOHBY-3" value="" style="shape=image;imageAspect=0;aspect=fixed;verticalLabelPosition=bottom;verticalAlign=top;image=data:image/png,iVBORw0KGgoAAAANSUhEUgAAAvkAAAFICAMAAAD9HBEHAAAACXBIWXMAAAsTAAALEwEAmpwYAAADAFBMVEVHcEw/TFGFjZH///z///v///pATVA+R0z///11f4B2f39sd3r4+fb///n///7t8PBBSk5/hor///rN4O3///eUm53R1NZgaW3///vi6euXn6BTXGCzuLpncHX///b///na3d+61+1ZYmaorrH///q5vcCMk5b///qtzexNVltKUlfDx8qfpqhvd3tQn+ubwuv///x4gINDTlKMwO5JnvKAs+hXmOE4QUc8l/A0mPSky+8zj+twen3///1kqet1r+R5tfAmctJPkuJ/vu9Ak+pYpvI9Rktyt/NDl+k8hdgxdtFequ87hOFHjeVuouAcgOYsjOpureksgd+QtuJmnuB3ptlzf4U4ec9Ohs1qc4QdKzQAgPscKjQdKzMdKjMdKzUbKzQBZeEAY+AAf/saKjMAgfwbKzMZJzEYKTQaLDUdLDIAf/oBevQZKDAXJCsaKTIZKjIAgfgZLDQAf/gAgfkcKjUAgv0DZuIbLDYIaeIBfvcFZ+IbKjUeKTUAYuAAffcaLDIBfvo2QEYVJC0VKS8IaOEIZuIAf/4AgPwYJi8XJC4UIygAZOAYIykBfPUYJy4ZKjQIZ+AAgPoBdfABgPcAgf8xO0AFbecEaeEVJi8EcuwXKDIBY98ZJSwAZ+MdKjAeKjUAd/MUJiwAb+0BevcAg/sDfvUBdO8Af/8HZd8EbOUBffwlMDUeLTICZOYCcOoBZNsWISgBaugDffACgPMcKzcIaeEBaOYcJy4DYeMHaOQZKzcBce8Agf4FffgIY90SIysAg/cCge8Bf/kBefEBd+wDX9wDdO0DZ9oAbekCefsBZt4FcOgeKTIDX+ACfPsAg/MDYO0KaN0AhP8Def4BYOYfKi8EY9cCZu0BfP8Da90iLDIFePENfe4GfeoDcfYdhe0IZ+cCbeEtNzwJffMEZ9MLYucCbfEEa+sDY/UPfeYIXtUFd/crNDkljvMCgeoDdugEgvoCbdYDcvwabNgnMjkPaNEDdOQRhPIndd8ZdOQMd+MbhfcMde8Cct0HhPx8dvxGAAAAWnRSTlMA76ERCBTx+Q60uL5BAx5I9qgyWiSRW84YUIzdc8UuO1Jo1nwobZo3deTpZYW604UbseuT46DJ++76ffS3Ib6sqPXVnufS9bHd4+7I6uGz/vux9Y+9p7jhzb9q7ltXAAAgAElEQVR42uzcf2wT5x3HcSSSiU0B1IIQSGsZFRtpkWBbCKNUIwXWMlhh2jrUyjZJzpeDgXGMF89GznSRRzUf1PyQZVeteuEvYnlydTpmT+xU2ZHt7eT1NGM3XK+pFBapBIlahbEhRKui7e6cxEnqBBI7AyWf1x8QI+cSPXr78ffONgsWAAAAAAAAAAAAAAAAAAAAAAAAAAAAAAAAAAAAAAAAAAAAAAAAAAAAAAAAAAAAAAAAAAAAAAAAAAAAAAAAAAAAAAAAAAAAAAAAAAAAAAAAAAAAAAAAAAAAAAAAAAAAAAAAAAAAAAAAAAAAAAAAAAAAAAAAAAAAAAAAAAAAAAAAAAAAAAAAAAAAAAAAAAAAAAAAAAAAAAAAAAAAAAAAAAAAAAA8BhbX1Tdt3rt3745tjfWrKzjM6voXX9q0adNLu7Y+iUWFx92qX33Ji5qsKCoFUSx80Vg3g8Ms3Pp8IOCNdB3tSHdEo0fdNxvXYW3hsVW7vzevFi8IBCHIsiD4CFpUsvnr+6a59S/bcNWbTkS8Xqc94Q0H4x2xmIO517gQKwyPoyd3ZMWCyLJmTiBYnuczvCBzhHRd4KX8njXTeNq42XWUicdjqVDCHUsGHPbAFQ8ZDB+9nHpxltpfPGuHqUEWc97y1wt5da+XWB/LsqJIC4JgZjUSz7LKDXH7Qw49657vJx1UwJ0wOimGYSKRiCdtdDhiqUBP5PK1xoojfepit6q9vXtEe/vpi3XVWIGlb7brigctegthzHX7C3ktcZbWmM20Hr1PZTabfeqDISOL+x7mOA33w/5EhDQajaTFYvFr1C+L1C9CA2sq/EW/ddIwUVvby9VYgpffbZ145HO/RxlzW91dPv9xRi3fPIw2074i/SHA9iqX8sTdFQ86zqINR+O5lJNRay+LvB1htiyp6Ff95inD19NvX1/5GqzvbjP9wzTuuM0of46rl0VFEUWZMJcpn9BwkpLJyPTmqY+z+qtcKhe4HPSTk5UfSbkvfLam2uUbrJ9WvgifWw2mI4+2/B+vrNUs1NXWfh9lzq6azbJI5AVBLm35I+Vr270Wvs/FCUKedcl3pqp2lz3mcTrDVxJ2csyEY9QHniKLkTIGo1d/UeXyTW3WJypdhSfO2loecfkrL544MXKC0X7inYufo83ZvaRzV5R5lucltkz5RJFPPfXlpUwvJyp7JztO7c2QI5Fkkkmqp2d4z3c4HJ5AB+MtlU8lmGSc6X9hUXXLbznW/nRlq/D0RZvNpHqU5S968/ifW0e0vG/D6fWsWtqb1c5oh89sJylfS1/9wyf52ML22vLP1IMkNUKfdtT93sIwEX96bPnqP1NMMpAeXFnV8m0Hrc9VtgzPnS0zRP3fy//Nbw8M/+gDhhaUP6uWKbS5tNWPL3941Blu30dot3x/ku+Uuyq//F7S6R8tXy3c6PGQjNcbjjMWi2W0fBXFUH33qcElVSzfcNBm7a7oLRLfabc9ZuW3oPzZDZ8Q+TLhD5dPjOFzubTbUq+L/+XXj7P2v2SKKlFTt/ipHnXacVJOv4MsTTsqo7cnPJC8V1vF8lUnn6pkHX500oDy59WoI7J5jh7XfHHap83Fk1vfxPJ9vcol7rWJr0fV3sv1M6XwGe0MN8ikz0T/9tcLEaO/eLKrnukWy49f6+uLXRusrV75rc2/O3Z25ucOC759asKEj/Ln+MltgVfkofHlmwWaVZ8HCLO6v0u0YJZK8evln+eEt3snpr/lSs6e1Kru6WHSDBWIRULe6OCmXTsbdm7bMhBRbzEBiokwlFErv4+5xYS96RcWV7H8w+esFWz6751rM7Si/Hlj5faJJ7babq/wXF4WsoKQzdLEeY7Ty5ek4nOA/rKWi+B3jztQk5ehmOKeHw7knJ7bnlioaXnpmWVboiPmSQRzobC+5xu1+94OujdXsfxm06HTa2e6EN+zvt/8EcqfP74Q6TIjPsHyollQ/1Y75zMSoV3jIaTRfV8vnyDGpt8Q06ovlp/LBVOpcHTX+FGmpmEgHIgFnbdKE1GI8QSbqjjnG1qsz85wHWr+YjvefATlzxv7zgvlzm2zWZbNioWCIvok+brwtksjFacdVr/hIj7OCK+Mziobc5f14V5HxVOxRFOZEb7+q2sx0jvmXIBiumIbq1d+s8HW/d2ZLcQzVsNBE8qfP5d1ZJEfc16rTj36KEPz4oeb16xdvKBmydKNu3mioLfOstqLWcPhuwiXcl4YucKzlYq69SFGi5/KRbw3J3lRadsHF1LUyFTEGJ1R48DVuqqVbzC1vvPRjBZi/clDNpOpFeXPEwvvKlxpxGdliTcLgpAXxdeWjduqtys0x7skF5sRJNdI+Z9wvX8v7NDvsC56IVS8kO+123vIUN9PJ31PeyOZdjNOf1q7O+MccDq6yC1VLL/lsPUHM1mJT99tOXjEVPZ55Ncof+55XeZlYrR8WpZYgc9klTvLJt5xoyIJUkZwSYJrtHxC3fYJfr/2ANrT77nl1N6RbEmG4h0d/g1T/MymM85QPB1g9GcIhiLJwJn66pXf3Hzs1AxeGl5htRlMJpQ/X2wtcJyglMofyudFJTtU7nLLoh0Zjleu5zOusQiCI9RZ5Sdn+ryJgPbaFdnjJj3eqTfxnZ5cwt43Mu1bSKf7dm21yldDPXzomemvxLNTHBDlz71Zp8ANybI0elWT5mVByguN5e+9ZuhGJnP9PDGavXo+0NnpEr5c0BiJ3Er020nt/QkRx62+nz/g5aRGxuGO2/XstQ+uMDFyQ/XKN5lsp6f9n0WsPt3WakL588YOWRkSeFn/1BWtz/kF3lfYP9ndl+/JfNLLEWO3/M7ODzn+lX91Xbsa8ob9xnTa81n4ysADL6n/LBXRniL0NzioD5ZcqGtVFcs/YP3GdFfih4eOHcGeP2+sEjl1bB/KD5dP06w8JGdfnfwbavbcyIxc0y/OOp2dGe4P0j9T3n5H7AOj0ZImLZejD3GpZkvQXhx1tDdw2vuT8cGKym/WHCxemDEdsb3xxorpHW5F97m25gmPHxPKn7O2C/onD33F8mna5xvKy/un/Jbdrt5LXObfHKfNOmr3Otcf73ekPR53YCAcMkb/8zCX52vupW+HvbmOiPb5XAdDJa82VFT+4ePH1Vxa/8fe2ce0dV0B3CHNgpZkKCwB8kGShgDNB9PC1mXLujRppSmrou5L09THe/c9ivNcmzyejXmxAZuYGQiGGGPkZrYcm84KKAnUIiHEBtSEQJfRWk6ouoIDW5SMNFuqSdWiJJq6Ndp9fv54gAE/aDUpzuEv29z7juTfPfecc889DjGL0gJvZ006ELUGm0K+7Bn5T63sH6sKnOAqEU5x6FeduvbifA6Se+yKOzA8zLk6nED7/5djLWWXlcXVn3W0vxrXw1PvKru7699mK5YLhoqPtl38a8aiyJcyJIaRkdemJCGzJXn9UfIBYM09BsAz8p9S+db1U9beUCFa2N+5tm/eYT/7aNx3j/V5KnlSd+JyWcvlwTPVx27ui/Pxz3949erNMgXr6g8NHT16tP77iyAfpWkDguNk9EquQ8BC2nZeIgNMBDcE0IDGcewZ+U+p/OD6KeeVCPlsV5E3r/92/mGrDgxbh+tUU8k/e/aD4upj7R1Fpw/FH14rPm63BG1+QVFxff3Fjs2LIL/1JS/CgxWVGwQY/e1iOBRKaLAtfwkN8J6Fk78qNS1rbU5SUs6unSuX/Z/JX7ouexeryvqNKcnPmOcMXVeVz+0JV6CdYP+uVcXzPWUcuH/F555Cvsrq8/zhuPLMkSP/WRP/nvPFmc+Vx9mS/fp65eXq9tMHF04+4RV5aYaJOCioTjwRf6DvalZr8IivQ+s3LTHhPT0L83ZS12+ddA24XDa93jbg0usH6D0v7RTWo+0rIz8lacdEI1TF5tJDjVwlSH7Symfgi16pUgXbKoTJ7/W5x+I7Sk0dC5iHK6eI1Vxrfb/97j8HhRzG7jtaPdim4KSgqKW7adPCyW8V5dD9JBrdA9T2nHjn2mNgAAhZfBnoF28QLafUOtkCyN+S/q7eLqEBG2ZzoTYcLTEYBnbMlWvKynwjLy9vRUjyVjQAJEI+hgF89YpYkjlPYV7aVq/LRtEop0ZQFZoyGPBMPvzb0jPz8iIPfyNzdQKA/9wYe79KFa06dj++Hq+n8sK1YTff4qtUVmtd5bm73SOCCnBSmyrayzhRFBW1DTV9ZzHkix7ZQYR8wi9t9sZpabONPDcJAc0Na1jyScG5nVVJnQ6TAfAni5RO08aJnFlv4OxubIh0GSlpaKDAlOsxgKJ4H0elce1cymRBXWgUn3E4B2jKuCNqYTY31jh4zx5YngDkv/CJyllYqOL6SLHwd/V2xX2n4/VAL5/8vj7W6Bf+vvtLYb1ifzhYfzVCvqWt/kjGgskHItFGqpVXvSOVevPim6qTIgAWPf+lt4oWRP6uTpNdjskQXIPNxI0mJA7HbAZ1tV5LNIcFpQExtWCUxunmGDIwB/k7T5pq5IQGF89chDQipY3pYa92s4uIPpvQ1nwjAcj/MXvnxFl4gjX8XDMR9yvxjz7UVcnLabLkW2vN5vcFFp6tvPWeJUx+QcVIW/f+BZPvh+/9zktEs5w63FQSV8yxVoJiEdQAQjpSFkL+zkkDTZSyPgWGxToHlhI0QCc2xibfpVVHRBPrEFkdQ1yzkr8t30ippaWlGoaJNVl/P+o1rg/uUqJUF+mPTpkQ5GewLRWcTmfwJJa1+ifcYwKin6UPVYWVqrDJZx19q8/q+7lQLQ5WKMsUCs7mdxwvO/bvxdh80TqjGECHnQiyIqYxyYZ4vD5vc7+fu48CfWogtbMbvlDyl21vrCHpd4L9ONFYpc5AjNAa2m7b/lxs8jEQkRgLB8QQtGQ28nNK5HJCygC/TBZTFYBLKLkpP5kjX6olw1OS2polTz/5L0Ls2RIErl1mwOmr+uiAIHP9Se+V8SD7KnN5ufWSubbWXDkm9ApsyrFB5fFiC4xwW1qK3h6sOJK7QPIREMxOUlK1BgTJhy4HLilJmX+iPIcGDuHIxxmp3ZginPzsUVAqZwveiKllD9Ma3uJqMTWxJhb5DIYIFn1s8pPzTdC3QsUAKgJALFXgswhSIp9gk8i5rlJ/ZKNMDPIfu63OsKgKTw2Pu68Jq2/c++l9t5UNbqG5t1ov1bJifig0ZXxQ0XHcYqmH6JdZFBWXz7y8KPKXtVJqdZB8NieCINT8CcFtDZKQf0KSGMMwkhXsuz8VQn7GVgcN4IpDiVgXunjEAakGbe1M+6rIXx9LmY2dlBjntkFiTl0YyguXTu6ANMHI3+vu48iHLo/K4xz2XQgIbYHwm3sP7qk4Fz9Evrnvg0NCjX7HTcvI0HHW4bmq+HO75b+LIl+U5RDjPDtnb503S5dO03T4e8dJxNspEkp+qrymhuCfAM9e588wBO01Jn2N5ENPR0PjYN7BpLZHajJlijbpmQQj/1ceayBi8y94fO5Al+C2fF986qnsm0K+Z2xc6OWq203Ki5YOS0WZsqDjxsjnTZsXRb7oJFUaTeojOsoxz9FchoOOfu9MqdyRJZT8pZM1Uh0JMGx+eNljYgw3OHK+NvKzHdDfQxAiHvI1Urkte41ek1jkZ/S6xz1O5zmOfE/hcODN14TOseqzs1yIy5JvDZJvrfM8FvgbWN+7daPYooTkKwraBz+++94vF0Y+ESI/zUGSUYunU0vS5zH5doRPvimEePzkJ5+kRrXaqMUPNkAOY06SZPA1dLhB6EiWUattxqwZ5AePmzghCDK6jNhJ4PhYEsPPT3MZUDXZ2krwSq0JqERQFVYRVqHgaxLHYRBgH11n6yeRRCL/14Hxfzg9YbHeeRAY+7bQOfYN/r3ubDmEHga3lUE3v9Z67s7wQWGzfPdWd0f7RSUkv6Vi5HB1++3FkS/Kp9QR8jGtVF4yZ8ycy+sgS2Ia8fl1QsnfI39Li7NVP6H/lclGZVqM1tHwTaYH97/jhwKk0hD5GENo1XLHymnks2mYkPj9LJa86gUc8/M+jsrMrOYmk5xGAAqiV2xQHdyMWP1wXAvFr9VimB8P6gvXAIpSjyR4YpH/2jnrBc8FVljyodX3PBQ6RcqXh2+pzGYzZ+65ANfa1+cbFni56kft1UoLS34wr18RbwXDbOTnlryFRb9Jqc40Z1vxfEfUzSAQmg43qYo7t7PdBPAe1oqGTSw07xo1IpZRNtuAzWaSi0ulEGRdiHyIfnBr6UyeSj5cGmEhNQyYQj7cJ0hpDJlBfvIjiZqZ5l7hMGhnguRDTQgd3sMAgEfK89i9iOelJQD5Gdef3H8S8ITJvzMe8O0XOsftm0OKP1rN5toQ+XARmMvLy81mgWto74cWRXVFRehA6/DpVxdHvmi7gfdNakop45bZJ0kzyvldw2njJoHk7za9iyK8ClEZQqr7++1UyeieDekrMjcsbx2w2fv71eJoppMlXzc6ZT2urumJCvxvnJ+DAQDOqO6ZKTPI3+EXa6ZFG7i2Ry0laUNDQ8MAFJfBTpayx21YrBKLRCB/7/0n9x9w5LPs3/nbhS6hvzXycsVIW/W/zqnq6swh8svLL/VdguyrXhc0UfKfLBdvRMgvaPrFIslPc0S8HRLHxMhcpY4nKX4sSHojzWjjJD/NQaMA45HPFj/YSybXR881fpK1Qy+hEV30KTguBsDEd/W/2Vhynid6mozkp1BUBsD5KR9HZFqgvNZB49PDbLrHT1GNk+k52Vs2565My9r9P/bOPaiJOw/gOR8t14F6KtYX2lK1atU7tb1zrtXzzlpv5m4615l25m6SzW5uyIMNbjaEJMZcGKC8Eh0MLz0wk4sIgQZQphCEwQgHgQGsDBoc5LCCIAXtiEdRz3p3Xm83r/0lBLI75C/S7wzDDGF/2ex+9pvv+/dSo6RYL4bDlvxD3YMDo7VuK7+2trJ24I8MV9g6NpSYbZWX/81NvlPhE+TnHR/pOsYsSvR+b7nWQ77c3vrVmvmRT+DMhmGh0OUeEh6lbtNsa2wyQi6nwFVUKTJGMCN/SXUxG2K7vVfScoBRHMtZ758+W7q8kXhC2G7LwnlSGoMJSOYu3XzgVUp2bzXyZJ73hoUy070l0eDrbjkQ7RtLiDbq3Fk8t6dNvBEP10n2bfINby3bZTJiMKLgzsw/LHzylzhGK2u7a91S2VB5f4BhMDLiD1XWK82c698WHCsadGt8J/mZTU0jg88ZzQV/r6y5Wa222+0k+VblzW3zJP91CY4q3H4bmZWNN81Ss7n0Aub2PJ2cxWPUI0KP/O0Y6VNArsMhrkojlOo3BEpjR60y4VAuonFFgMiTUhlmr6yIOCnzRuRhBDXRq88/gkMahCKfeMJUfLxxV6CKlB0v61E+G4V7xOFG/sr73ST33R6pHbUwnGF/eCg7TpAQly//vuZLB0W+U5qmL37KZK2l7XFlSWo1Cb9cfj07+9A8yWf9uBFRJLvJJ+xkvmiWQv31OGGruMgnlCzO38tiRv46YzzK9VYrwHyUb6qerVxiq1iKay67qjidJ6XKmbWyYvFJmbfFBlYo6HWmLDoPk+t6Ueby0Xhs/Wwp9R23TVgu0tMTbuR/et/Ju1cmug4zWyD2aq81juyflcvVx/Lcto5bLuUNZo0z6vz5b4o1iRA1afIUapPuzJd8Vj8OdORCbF11wBXW5ogoz1Qmg8HpVH7kB54o24/52NUwZDozu6W28bYJQjVUyCY3fcMcOp9xT9YSo9TPaNfES9bN8aX9ti4XRaFws/Ofl3b7yEQDszHeEWMPC/Nd5JsTX1gsFPZOk+f+4DSjtNivjlpTkpzsy+X5Cdarm+dL/k4JUPBIuIiigLVdR3TA//BUOjDnRYf85UYewqV0LI7A9+aqWlrRr+fhlCsslppCSf4ek8HPt8Ub5x45tD9dqvIbMbTgyV88WFoDSHf3tYvMdij8MKmuWZBAWDv2OAHn28pMP/JHBotamOTFVrYeVbvJT0rsbe19b77ks+7ppEDlvjC3McACW4xU4B8yCeP1a5iRH2XEUZB8RHRubt/8tRygrgIWo8U7Q0h+owj4xIR3y8Yb3whmH0lwv5atBU/+2tGJGh+p/DczN6Hd3qrtJQdiyu1VAk5dw/ho3iUK/bysogddTCrXFreVeciXJ/aa6z6kc9Arc5G/Q5/LBci/jL8yc4FJDOidwlUGnzIHGuS/pUc0IPl8bFOQU96l51NegRg1nAkd+at0AMQ8MVdjoLF9xh59hu+m1wue/F9fm6gp9RFGHmnU3boUpZ3c403bl1Blzuf8jyC/yIM+mdC6dOn4LSaZ3Ltl6hQ3+XK12frxvMln/YTS5zwIRvD03TNYKRYCJlF8vG9BAQ3yq8lQvpByETOCA1qNU5EgsVgsWREy8iczeJS3yuuBLxtW07iG66V8tjicyP9odNgX/IlYRmZ5e4pWYLeTezknnta2Fd6M/U1l5kimh3xXnKeLydfIuw8p8ssTC7+Jmjf5keCOzoQxO7M7q7+Yd85707mobi+LGfmREl9LAZcErzKN0cGQu+mKIJ+v2xMq8jfmSCHq0xBeCz9nNx0d9hTDQa2/4Ml/8mzCl/wGJtOQost6q5QCuXN/lDt9gsS+91nb7jsqQfLz8jJHL35Cf8kPSpI8dj5Bfmv7xnmTz3qTL/Jx9/xqxFibGnng4Ez/sePByV913hd8ER0lO4mxXdlTLtktJXoaKvJ3GkHlDfMwjN70kNdyCFNfDJK/oPtwX514Ziu1gfKcyeHvpsTFOTcx12oFzX3W00PRLNbvxqed0XwX+c7atRYL/UzusnaA/LTrtHJZQciPqBf5vI75sXtP573lZO4V91O/wck/YgB1Po7x6XSjxUhwRT3ZDUiWYPIV6ZEhIn+7DgLJR7B9NK/8m7pkYWrYkL9yeMpGKHoX9GdtNZ0TTLqxthE2eYqdsHQ4HLP5Sl8bhxyBHP2gK8vR1ASQ35Q1SP95WjLk5J5sT5Fby6//4+D8yWfFNPIhiKpT5/tqweUZQjf5PBhGYdEkiyH5ERIU8CTYPJoDbPtxtB5xk49AuuUhIl+PJ7MpgGG+ka6XFWlMForZ4UL+O7aCsxUVpWdJKe2cuNY5zCCav/ibUwIlqfDNZrNS2ZdYeNf554NFWdMjI5dI/zYzKzOLkIHpcfr2znekmU/OH0nKLyz/POVwCMhn7TMAvdUQz4ABZS6LyUozl4FLDubJTd/ClPyYDA0QPeJJv6BXbbQaQz3FO4Tgn4WG/Mh0No9NmeuQdJL2lZ8UIcnCcCH/F7YCW4XNVkGKrXO4ZmpiGf2Df5ptb4sjnVuBgKNUKsvl7sD9k9pKR56zgifTYrFkZn19Y3DgX7TnRv3SQ34iJ6FOYL8bCvLX6oHwOcTDcSBnugED3EFEhR1hMSV/QzFV7MgjDGuaxGzRy6jh5GxYEhryV+l8s1j6VbTv53JdGJH/sa3DVlFQ4ZKpYVvHX+k7uLF1pz63Kl07nRPkm5WPPCbUrQeO8SIypJlncRDsT99wFP2ZthX1+7IUL/nW1rjeUJDP+hEGwUCLhshbfM/aaDQAXUsyUU4kY/LPGChg2JDs/E56H3TNFzLUG0zl8gIb+ozJX4/5Zm9P7qZ9QxedCCPyX3R2DHvJf/bQ1vkf+qH87+rGlFYBRf6QNyTypxuDNxpc5JM/TX9xOFpa6H6ZfFLm1vlyeaG8MKkqIhTkb9GjQKU+gpi83SBvQyD5qdjMssmg5BtlPQD5fAndQUP9fJWXaliTsTMk5E/ivnEmBsOXw4n8qGGC/AKPTD0c7nxE+9iDV09b85sF7h3MlUoBlW7d3DI97qBkfLpo4DhtJzfWqfPJoTut16+kjaVsDAX5rOp4b7OdMLleJcpx+31vGONRyuJIlRqjGZO/NR1wIti49ALdK/iyQQV5yVcV7w8F+VFGwKyDubhu/w/kBw5qdkwNO/V9R0dHxdTjIRvtCcavH9Vy4jicfDKmqb5ibS0fAyz5gxcrCV1PiFPxO0hft4tuUD+y6oW2rSotLcnZlyW3rwwJ+VuMqEqBeKZIcXEPQp8Z6nsoqi9jAQbPBiM/RoRQL3N5jdvpXsLV+nqKfIVhb8AoAkPyV/wd2EEjVaU5sYMR+Ui4kB85UQDq/Mcdtp/TPfTRV64dTkjyOW193//Tp2f2SZfF4iHfQpCfdXx8Oouek3ugrE5rtSe4yJfL07aFhHzWPhyhBuOT6Syn0o8xXgbmirEN/VFByZ9Rn7+oGAXIrxfRdinfwhTUbHwk/mkoyN9xHmjbTU3FT0QzI58bJuSvLC2ZKiGhLykhfnU8LCmg24/1wals1wa2JPnmcqXZd4Bs7MUvLS0tIPmDN0Y/ohfQH6vTphSmecl/JzTkrzXCUqGC0mk6p0FfjaFA1x7fGIjaYOSvBskXKiD2hdvVNOT27VTpOe/5cDWoPhTkryumHkIFKsMbWT+QH8go/Nmzq53tJR7pKHtcQtMPfX2sXJvg1fnK1jG1n1Fy6JbF0mJp8ZKfN9rydQO9cuU75eqbVi/5Vb8NDfmsDUY0NdlLGoQXLyMrJnE27P0bjgesVAlG/ksGgHweAv+fvbMPauJO43ha9cZO9RzR4lvPl8rp+XK1ts4p07k5b6aetXbUuf6Xl01uNi+EvPCSwEFMJ6TIZCND0BgkoIjSsM0l9vBKiJ40UInMKRcvNngqIAoYLUepb1VxrL27fYHNBjfZBXfGseT5gxlmslmY/eTJ83tevg8glgJ8BiYtKACIBY4C4Z7iqSyQv7aQTL6odH+CfErbOHThx/rTiGHk77N8r2T25Ti9B4JzsY3lGPk2qOyp88H9g81R5N+8d9nOTKB5u86CkY9vDvJvYol8TtcuMvmi0u84i0oyVQj5Ajz458p2p4yH/P1iEvlo3+VhAFe1iWsNqKQfQIx9C4T64iQWyJ8T8flADp3C0AQmf+u+wdZB5Yi1tSo/Y6YHuA0K+xDsb0EAABUgSURBVMtAgnzolOapZPSqf/37of1mc3Pz8EnX6y3KP8SoQNzTBltMRj9yfkYXxrnXsUX+0hMigVQaGYRSLX0JzX3jsT+qqmqmHgSnI/+o/nCkWwD35lIBraGKVORR2YzsimkskL+ARL70Y33pnAT5lLbps8HTR5Qj0Y7jiuMfjC5bONDudoZ5BPl3DRTJ0N8f+/MZwu3vxcZV/hRiUie7NaizmPwI+VY0nnJvYIt8VIKEvNZcpSqtJivf5JTMGxf5n+eQyB+38TMrklkgfwWpIi39WFjziwT5lLbudFs94vOPHMF8vuNK2x1mHxin31dGIt8WpHBXS479fecN1OdHyM+3M+nCudWmsYAY+WiZzMQe+cklgkiZBxOCivwqEAtVMSSk6Miv1rNAvuhwQcUqFshfuYtMvr741wnyqck/gpA/7PER8k9fYFTCXe43dPt4pmHyEfQ9lBHJ/W+/vhHt8/NDlxkcclMHrbA74vPfZY18zspSYZSId5QKmTiGy6cnn88G+fyCil+yQX6Uz9fXJMintvccmM8fNoT8ASZX7eA1ZeVexU64ChBUSKBuyqH15IPNZzCfj8f5KPmdvY+nMyCfBxv9WJyP3AFikfwkdDqLjw1CCfBzJvGgBZkZsSpQtOSTox1UzEzEH49lV7zORrRTyE1EO4zIv1DvIMhX1jMifyOkBSW5Hh5KPiixmdo9G6lf+OGxnRj0WFYfn83tddGP+aa2mTzYe4Mo+e4d7JHPmVMqSgcwpRuBQEjW++YK0koWjpP8o3tyIqtZkLeVpp8rGIelq9nw+QsqyBIrDerECZcR+RYm5C/80XgKVIA4lyBsqpcMxFDs++0lvJZFkO91hXqbaYWnUh0mj5E3Ymz6fM6UKjNXjGs8RUU7AACkxfSOdOR/l5YTUeYDcpDPlD7n8JhNL6+i8vlj7duZU0hKsAJ61YoE+dRxPhLtOCwOh8OCmoOJz5/6pN1jA0e4BG1+bVvMmfU1B1Gf/5cI+X0hV/9juvxOahDCyVewHedzOKtPiOVSil2bQtmD6eMlf/0eYYR8PhcQ5zU05IzZGhp3s0H+2khWk39OLDd/kiCfmnyl24NTP0w+vZrfBtPt2iDhkUGfsTZO5/2WS2eO4T7fa7fn2+2XOwM3/ruFlny/h0gbsZnbQe0lWR7FdswMmTm2CBkd+QsqSD6fn5kBdHV9Pg7rOrGUBfLn10TKyen8vMxE90KM9KSywxM0IIaKuOqC9cFWuivW3HaGJTqcejTm8ZgG4vjwlEuXQiHM53v3ouQXufr6H56l6Q265fB7QCtB/jpWyZ9W2AgAwKiXC7iyOAobdOS/IiP7/Gzza2w+obGSv6qCJDLFF4uKpyTIp7KtrR1KzOej6BvgJutpmjmQlAGbNWjTYODreD4JfB6M23y8LXTG9ddQURES69jt3vzO/vyz3v5Q/ELxratBfwdBvnsrq+RzVqaJ5aMUJIFGfcmi8ZO/uiKPNORbMKbQmnXyF31F2njE5YtqFifIp7LNrc6wAff5yA9bm5ZO3uZdGEKhx8jXghIJqO2Jf8H9fz48XoSpKyPhTr6r3OVyffowftNm9+0OrZGIdljrWBvJtValjVoRKz3cmBYvBUJH/uIa0kAHP1PW9TzJn/xVdBhnXpYgnzJ22dehNGI+32DQaLRtWmV8hbXNDhMR4ivKsmBeWRtNaWrW5W9v9JLIR9Dv7P8mbrwTrgdttgj577BLPue6ShRNPiAQl859BvKn/E0kIGnPC9ULnyP5nAdRy76EsrcT5FPZPKXbojAYhrWdFEGrMq6HneewecAI+X7dXSPt3s8Pj4d24uDjPr8cgb93KE5QleKA4SYse4SQr1C4Z7FM/qoq6aiOGVFpXBUy2s0RR4EMUheCSLWMxSc01nw+Z0XUBDpXXJUgn5IyQxNsxbWLMfJtwdR436Q9HdZIQpOnkfgs3W/R3eKth1+HiqLID7g6z8bRj5qlcJwfPAWO+PxgEsvkc36mGt0rdpHzTOQvKBVFEipdol2fsPiERvv863QXLDNjtQriv1MzH0d82TxxyOdYYIMNTevYUNMpsqB4Cf3NtlPQcFc+ak25PguDtZ0fHQr1hnq9e+12JMbHfH5doL8v9hzA7wxNp9qsCj8I+nP9kqzgZLbJn6bOyBCRjF+z9NnIX12aHRF2OCfKLk5ikfySyHtzpULgKN0FMyrQPZ8kTXTmHfrrM3IibdM/dfKf1Ltt+FIqdCNbrZV3NbYWXdIPZRpNGUE+6DwPPWFyjw/sJ4v6vN58OxLnoCfcQKAu0PfHmC/vCSoURqsuyw9q2sO+lv9x2CYf8dGFapLtpqGJlvzZ6kaAtHA6s/pV9h7Q5OJGkhpVNZ8+P2+WZgCk3aQH1Ew1vpIKyTPJP3Xy37R0ZPmHVxFqrbWwAoopvpD0KLcdhiM+H9QOahiNF/481PefeyddBPnlQwHEYu1+W37EiJOvALVlTblwKvvkT0peHGVJz0g+Z/8BkhCrPLu6JIW9J7Rbnk5arpKtppUfelslBEibwUQn3mB4pzmyPOHE8fm/sgVrs/CBV53OqvDkmgwx4pDZ23W8cJjni5Df4tzA7CYf3ezr7RwhH4nzA+WBLwOx9E021WPkZyHkKyD/Xc077JM/RqMnf2YNOSARczNYZKY6LZ3UgyYvpB2Ufq1wj15AEhGVqZMZ3WhGlUpeAAAThfwUT1iLjnpjI6882CYJO6krR1N6wBYdzHNC1mHuQdAzwLQ++IH9C+9JgvzyuvKhysqzQ5QlsLlXCPJ5EKhtMsx7AcifoeYjwbVAMLJwWm5+nbW7PzhAIl8qL6SVLlykbhSSKmtiuew6oxtdV3H5cvmEIZ/zKIwJOmVZrVYtz6bVdmvDVOXMSTvckLYs1wdpsKZ8HgzdVRgZb1dZcvler9flGvH5nwYClZVD1+qoYqVtkMWAhV+Iz4d0tU2WqS8A+ZyLMi5xrBQI9XLZxclM350u+b/+ANFnJELIl9HHLl1pelLBQqznVy1l8He8IRUDwEQi/00DGuxkYV3HmLndFIfPKVvK3J5chUJhxStMOqs/DL7P/C6/OeQ6WY4aFuzUVVbWVQbuXLv/tD+f90OHxaDR6Wzon5TbXWZkpHb43Mlfu0uaQZAvAIAcM9NDbvKJ+TREmvMAQqH8XF4afYV4piqPNCOGfBOJG+g/hzML0wB0aAeYMNuCljhb0FDHT0TvWfW1TyGd1OPxeCCnlXiRxNeteTSGXqjJjzu/wMBHgx2U/MovvwncudM/OgKdHW5x6nAVcZT8Fs35jUze/pXnTf4kNbr6R0raClrFLN6ZX1VYFT9yn6kmPLgo/ZxcT78IYm6VLJPcjgpkAH+gBb/ELJxg+3Cn11sUSHARabjn1TZdeC+6V31N2AnBPidMZPJhH9zuGdMmuVnHXSMuvxwFv/JO3bXK1u8ro8UMU7ZfvdACG7Ad6Gi0Y4Kh5S8E+ZxXq/WkvIhAyK8uYVJBerkmU/5/9s4/pI00jeNT1/6Aa+u11dqt2mqqtbaetdfbH23tXpeWZZfebq/l/jjiZDKQmDgxk0mjFi8oMY1goiQRjS4xhDRZq6HpUSR6CFGpNkEQxbBXCpJWe62wy2JXl6XIUrrczCTWSYyJURd0835R0BDneQ2fPHne533meTS+wkhPyTFXM5vzo+a06IGLJfiUmovURalhyDBbuFickQ99WF9SsnQuW1zssDdP8Z4zHEvyOcXjwRl1a/HM0pOetZYXxGbmH/+5xyT/wfzC9HdjC9P9BYy6zbNv52+OTt2kiykMFWXFZXbdc2hrkL/LXMrIhXM4sAw3R2+jzzKbMFSqj3jmm61FOcyGEaLo2Z1sbdDcLgSBpfjOCAHPoT/jBCwQxBv5BybVJf47C/0yOP97d6qk58IJGslDWQUzPcNe74B9pucu1TqZR/d/GrDf2BOjnV/uUaIc/4P2Bw/IOH+hf9rjmbe++eR9ehObfema06187KxXvCP/UYXi0hYhHzpuqrYwcONjpbAxyt3f6ZY6rPLOuLS2LqIbtxAM8kUE2hR9/E8qSTGKCpZqGGCi9t+ZKz372BMc42O1aJzNQIegL3jyckY1TvG7na566KcyZX29Q714z20Z+a02zNm9zTPP98Zq5tCnY2Nf99Nj1tvpeKd9ZGSEambbb20Rd+rcVrFY10F+K3Ryf7hjKJfzpgq3CvnQSZxx2Erd2Avzidf5K/qH7SltGoLcUQpIP87HI71HUoUo0+cjiKktmtdPfK1hi+4winDIPxRq8sLm9dPbNFI+NRISjjvy39d5H9/tLF6mMp5cXl5Soi5jPsgzeFsfT5Ub1lCZkvz9/8Z+JbkfGwuQ7xnxtAT6OLvdbrGbuh+SJF8RmAT9qLzEcB3aMuQn+qT+QdNLfhYR9vUVhT3OzTkp0eNEYFYp3FSnjRAZHdSgQf8dp1Ko/UOUZE2mzSjjI0HthITCBr0vJSRHnJRhIdfBDtctKA7Ihy4MT3ody8kv5v3UTPr5suagx+Q3Ww085Ym12Ml68eI70t+PtdPkj7SPeDxdXU+fPrW6xWKqyRtNvmKJ/EfFzsKtQz41SZngBrUvhNlNpU3avJzgwpnkdJYex02YdOmYVVb7JEJxTR8RgmQlgevz8pP8ubXEvUk5CakvQyqjU/VY6P3GBIzieslHZ9J3X9y1B3ov99TxPEuDqdSFMabnxhn5R2fnOm/xwjh9UqEP89STBi/vw7UZuv5tP5N8T4B80t9bw5KvuwptIfKhM0Ihk1GYjcpkGFeoN2vv78jYl3L4cMq+jLw2s9as53MrURljqg9cG2mXGzzzjR7zhTXV2R4+lPQ96TNrHz40qkyq0Jt/X5lcgpD4hTTJhQmbjfxLbWNjo9aMw1WuKowPw/FKPvQX74SXiuWbm4PJv3WrmUF+M7m75ZVV2AcHnm1fo6G/fUPtbqmvdsrjB8j3uAPdfhbJlwfI7yzcFOR/tkryoTzcP1c3MFyXdOUii4ggsCqTyWhTqYwqVZ2xjnw3VNXUcJA7SyX9NTVorX7lXW66kOAIUJTRpxypqXGV9vb2olJ+bS2HYxHhy2Z/Hm1w1YoQDszAmtwjcLhVvb3Vva7x8fE7473VlQhC/kQlf6i+cARBMOKjuCB/+7Pyu3b18M3JyD7fwfO22pXO4bdJazWU/O2/Zl/ca6G3t11dI9R8LirasQb7fGqPqyueUXdch7YW+dBnUil1euofqO7vGRjY7ZI/vGsjSG5rBSTJ6FKPBF+lSxMh/681uRBGJQ6jSzl9UepW82U+H8qXmHorObAsKGWz2MKcjVKpH4R6Q5FCMJh8A+CN+UaXIL7Ihw5M9Aw7Jku8YUIe5ua2YtLhHL41mrUOQy/Gfh5boMh/G0w+0+dTXv/RU+XEVOFWI3/PbSGfYhwJ08sqghAMIyLV1iRoXIJxNOIlVMtrIIrMUhgOH8mENjAnnyRATX8qVLlEcUY+VDBRMTTpiEK+t2Kyp4InP70eQye+vje9EM3nk5G+TulQrt7QZiEfSmwTihAYYeYTVyF+Fe47GmkFr6QyGRwr+VBqH/kJREZS0fs4W5AqV9Nr6EhDZdCdKfFA/qFnxUM9E/WRyVc7hofs1tPrs5T1YGyETuXT5Aeymv7cDtXNecnnl8VQEHdms5APXfTpcTaXy46JfCHfFzlLnCmpk8ZOPpRnrkPHxwXRyX+CuEy+ZGi/Cos78qEjX9gNTjt9YhUGf//BrVreab9xYL2Wkn7pp1OaXSM0+V3B5HeQUT7l8zs6YskfbR7yoV2peryyF+ZEjTNQOtQmQ24hQSREW0JOA58dMXQJSz6UapNWctmRF0LtQcaJ0m1kaJlrc1nijnxo1xWed8Zw19FpCOfvhwcnh7yDN+UXtq/fUuI/2+enu+Y9ntnZt6THp6bTLUY7ig6xWKEsdzqHxV9BW5N80kHfx118NlskikL++DiHU+NqwrVpq7gFIUdbKkUjXDI8+VBOn8lEhjwr7zvI3TcX50j9bfb32wTx5/OpWJ83zBvsae4MF/IMVnhnJ7yGgo2x9NX3Xe3T/fRJ1iL5gR2uTidWOGdHHasfSL254ny/MroRnI1GiczZSHV1NSw0t2WuahGncI0Aq0JiJB/K/khvlMmwas7Km2s2oQn0sg0lf0eckA+d/aF+zl5iCEc+r0LtqHB+sFGWTryZn/Z4RrpmQ8h3OnUdg6Nz3qkY00ebjHxo920zzpdF3FoSbKyqVqp/mbPaVeS+xktdnFjJh6AEs4RfVb3iOrjVuHlboAgrbsmHsj+f6JSHJV85ONd67cDGWUr88tf2Uet8S4B8a4B8t1unEHc8/vIQtLXJJ130SzPOHEC3DHwuQTRI7h+LZR0ZWhwnYiYfyk7rxoUEO+zHBUH6e9+7ReTGabRDZ16ezynV/mpNemxDGb27LVYPOp9d2rOhls5/2tLyZr5lkXx/nE8ld9xvYs8eFamEQcI3dKk7G5pM+NLFTatroZbf1qAh6BMtMpZmzMGlfmGjhIaM7w/GuJD9OzSEkO0/DAuqCmXDqkity3dvU1FVbxw223/CRp3m0tdAcKGE0Vgx9yHOfBVtO6B40tm/i5WD5Z1DFQP19oGBEqXc0KxTuJ9f3rXhls7f+ObnBY/Y7aFKd6xO6+ysuGW044cP1mDp+M4/Bmnnhi6UFXLx1XYJzz3zqtusMUmxKgyupsaicLncSqwX45saJD7WmrozHEzTmo24VIY1wTAB80mhaFOpUa/1Rb5cJksrEZIfQaiAsIgsFgsmkwkIk777ZVDxZu7tHbQW/1MWFF86cvnCTMfoaPnwlJO6GbxT8ePVA7+NpezLP451TU+3UHU71o5Zq+faJ0m/r9cy+RjrpVYisdEyqmw2laRb+5qVv472g6eKbpu7JfpG6oqNErOk0bezKP3iKt40RW1mailGo8lopFrL+U4ezoaAQunPOnv143PnPi64fjbrvd/W0vm/Fnx+5cqVguundyf+Ll/LxN05KWcyWGlprIyihPyDG9FifG/mscMJ+/YdTzl26mgsL1pu+vGiVBa5kH2HDxYCyoGAgICAgICAgICAgICAgICAgICAgICAgICAgICAgICAgICAgICAgICAgICA/t8eHBIAAAAACPr/2hkWAAAAAAAAAAAAAAAAAAAAAAAAAAAAAAAAAAAAAAAAAAAAAAAAAAAAAAAAAAAAAAAAAAAAAAAAAAAAAAAAAAAAAAAAAAAAgFf0+6DdUEzEhgAAAABJRU5ErkJggg==;base64,iVBORw0KGgoAAAANSUhEUgAAAtgAAAIACAMAAACPYOt1AAAABGdBTUEAALGPC/xhBQAAAAFzUkdCAK7OHOkAAAL6UExURUdwTACe3QCh4ACg3wB//wCg4QCg3gD//wC2/wCi0QCZ5QCi3wCg4gCf3wCg4ACk4QCg4ACh3QCh4ACg4ACh3QCh3wCh4ACh3wCi3wCh4ACj4wCg4ACh4ACh3wCg3wCe3QCh4ACh4ACg3wCi4ACh3wCh3wCf3gCh3wCh4ACg4ACg3gCg3wCh3wCg4ACg3wCg4ACg4ACi4ACe3ACh3wCg4ACh4ACf3gCf4QCi3gCg3wCg4ACg4ACh3wCh3wCh3gCh4ACg4ACi4ACh3gCe4ACi4ACh4ACh4ACf4ACh4ACh3wCg4ACe4ACh3wCg4ACh4QCh3gCe3QCh4ACi4QCR2gCh3gCg4ACh5ACh4ACh4ACg4ACh3gCh4QCh4ACh4ACg3wCh4ACh4ACh3QCj4ACe3QCf4ACf4ACe4QCh3wCf3wCh4ACb4gCe3QCg4ACe4ACe3QCf3wCe4ACe4ACf4ACg4ACh3gCf4ACg3wCh3wCh4ACh4P///3jN7yCt5Aik4QKi4Cyx5YzV8QWj4f7//0y96XTM7vz+/wul4ROo4h6s5AGh4GjH7d3y++H0+/T7/uf2/Em86VfB69/z+/3+/zm25xur4+X1/Beq4+L0+/j8/iKu5FG/6vH6/Q2m4jy35xWp46nf9YrU8S6y5nzP7/D5/XfN7pra8/f8/tHu+XrO71/E7HLL7iSv5Ciw5YHR8Nbw+vr9/tnx+g+n4q7i9W7K7WXH7DK05sDo91nC67Tj9p/c88bq+NTv+pbY8uz4/WvJ7YLR8Mrr+aLd9Ea76WLF7Lbk9kC56DW155HW8vX7/r7n92nI7dvy+53b86vg9Te25zCz5hGn4vL6/UO66Lnl9sLp+M/t+U6+6vn9/szs+WTG7Cav5ZLX8iqx5abf9FvD64XS8IfT8eT1/Aql4X/Q75jZ8rPj9qTd9I7W8VPA6sPp+On3/Oj3/O34/TS05rDi9ZXY8snr+D646LHi9rzm987t+dLu+j+46Or3/Nfw+nDK7lXB6l3E62/K7cTp+GpJkAYAAAB5dFJOUwD+PRQCJRwBAwUKIDT0jAh4/WSD5VGGWSj4Cy1B7En88kWJa5ow+4DA0jecX+PbulwQDmlmj+wZF7yfsZCi1d98OcX5dbZ+2JdxqemsU03d9q4qB81tE8pvS6RW+nOTp/D1MuaVzyJgw+gS3qXh7svG8UPITzu0Ytclrv0PAAAgAElEQVR42uzde2xT1x0H8NhxYvLEjpM4jvPGeZg8TBICJonzfjiQEEISIAScBEQgTXingZO209hUUKdW09qpaqtSUbTBumnrStd2ousqOjTRdaCtYyuV9tI0VrEXaB0SmjRpW9VtMSSOfe8595xz+X7+r3Lu735rzj3PqCjp9K92Zg2vHNxuKU5PDgRqktOLt1evmDZmeJdEAUgnLiHriM23pzGJLMQwMVDnb+vZUYligQzMCeub1h7NJWGbWBOobs5E4UBc3p6aljyihKFzajAxDhUE4X6ondW+SaLOhhJb1lKUEoRROVyaSuhwlFicZlQU+P9UFza15BKqyl05/Sgs8OS0dRIW8kZ64lFd4COjo4Gwk+TLwVg3aC4zZTNhbV3yRhQatOxYJ7qSiCYOp6BLAhqJX7mLaGe0JgYlB/a8tlVEYzNGjAAC4w9Gl4NwMGDHhySwk1hHeKnYjRl3YMPZR3hqTEG0gUEnZC3hrcJu4lmB/tjEoRWDTen1rlrfyIiv1uVP7uhK6THGVOITQFqxPisRgDufw7MvGc8ZrK/bFeKbubXCU9o0XIgVXLKJ79hABOFxavngmcYttQNhP7uhccaWloCfb1mY7eVEHFb/Jm2eOuaIq8GgoIHZMxYjZpVkGAppIWLJXsl87C82ZWqnmiZu29PRjAFKoWXWG4hw9u9g2aU2JlNZ3HWwuywa+RFVzl4iotxkRv/Yxw3VUpxYtbZ0xSJDAoreSkQ1mcXgt/pQ7Sj1hu4Z9CJIgrGvIgILUN7aHpPO6Bu5qG4aU0sCqfIRsfUa6T1sv72E6fduQQICJYgHG4norMWURh5ibetYt9Uwk2NCqPiLs1mJBFpo/BAW+oo0aezRFOxR5i3hMJHDwTSVT2rO8mjX2glLFbLFU/4qIo1kNR9m5nyNZ59GOxBtbswWK5FIy2rFT5rFYVIV0eY2GtJH5LJzucK+tYdPe9ctw+gfBxmdRDatR5SMhPj4rRXo7cESQK0Z9xEJJUc67sd7IW6JE1HT1IptREp9EU1DmtO4L8S1BnDkvYafjR1EVgMRrMhImBGhxRN29Ee0mpWpJfKaDPdcnSVbxgRpcjvm2TUR305klp0Y3sexQHNPY8swza7BMF8JkVtSGCtZTV0Oodq8Bj/arD2wmcjOkbPoGJ9w//PmlaGnzZTXTeS3bZGVIz2jAjZ6CjORDMV2Ej3I7QnxjEtdgn72Lkf+mP1e6yPXhBQt/Jsds0vYf2gG0R1h1L92E70oml7gGdPyBG71CG5wZTIespnoR+u8p6CZbGK3ugGn29OXuYfoSdI8XdaqOtFbnZ2FINKeb/QQfRm9Z4FRggRdrdxqRJEqs4/oTepdp9QkrpOi2fU4FI2mYqI/DUEr54bGJGl2N84hpqeM6FHJnD0qKfJsdGt5AIGk5FCRLoNNSv87Mmy2yNRs92pEkoqNo0Snuj7NdYFcze7FoigqA9gVes01sX6yIMockK3d5RmIpWqmOqJfozH/fkC/fO2eQLJVayJ65s40+2Vs904kW6Ucg66DTUYCcrZ7J6bXVRnfR0BIe3ENgpqZ9P1IkKg6cXmNcunIj7h2YVeNUkYD4iMwD473U6ayHOERWi021ShhXovoCK4YKVWgDMERnh0xjZgXI33icyQiqJFCR0QGqVjqF6FphEYKBzA0EpGqVGRGDvUIayT8SIwshpHW8DUjL9JIwnqosJmwRkQiA4q72ebKmOYhe3VbcUHAX1pbW+qvL7A1tW3Zvb45ZpMuT+XGELZUCiJ9v5nOtC013Yf3hrpMyLqqc42ryd7s1dH0ZtUEwiKV/PBfrbE6sCaygQFHZ3fHdIIu4o1FfbKNZodzu1hVlqV7UvGfONjiX7lR8u7JeCuiIhnfIq80doXLTWGp5r4Zi1HiA3sw5yif9Qu/zmi7q5fiX9p2wPagnOesFSIm8pmY/3wo03LbAINF9fvWlnnlC3YdYiIh170vsj+nlOFJmwPFG+XKdSJCIiVj8GuMG/IdZP0n3U0yzQ21IyNSapgzTWMyujRadDzQJst5a5hMl5Xlf0MgHZNa/l3PsBQLDD1IiKSSPlmavSStXfMt2NkF4ndJMCQiL19UlLeJ0wbsErvgP9s+5ENeZbUcp9ZS20Q+5yS2CPEAhfKSxT12rQCvB5Qr8jkFXdY3ipcDqvQJGe0teDGgkmFKvCES81G8F1Att1S0SRsjXgrQsC2wCWN9oEf7BgVa2lq5AS8EaGk4JEywl+FtAM0BknFBPh3deBdAU2txvwjBduJNAO3+yHLsTQc9MtRkcu+JVOA1AH2N+ZyDvQPvAJgo5fujjfVPwEgFz3sXzI14AcBIURu/M6SwOR0YWsNtqXYxig8MZU9zCvZh1B6YKuCyeiQat0sDYx4eS/7sqDuw1liIFaugR44VWufalI2qgwZqNO5o45wc0EZdvKbBHkTFQRubNT1ZewQFB430ZmgY7HLUG7SSbdTuZDNUGzQcHEnDKDboUa5do2AHUGvQkuEIFoqALi3TZHpmDIUGjW3XINgxKDNoroN9sNNQZdBeG/Ngd6DIwMFK1sHuQ42Bx9gI68V+OFEEuMhlu18szooSAxetTE/TGUeBgZMxlkeOHEJ9gZcJhucypKC8wI2b3b2nNlQX+PEw2y22FcUFjvxmRsFuQW2BJ1bLRnAcJXBlYDTol4TSAlfZTG487UdhgbP9SxkEezXqCry5cFsY6NJu+sHOQlWBO8cO6sEeRlWBv4pMzKgDutlhwBXqIIT1lIPdhZKCCFZRPq7SgpKCENrpLhrBVl4QRDVWrYIebRjHXdOgRx6anZF61BNEQfNAhhqUE4QZGYlGVwT0yEcv2OmoJogjH6MioEeTSzFBA3pkwR2PoEdJq7G6D/SoFOuxQY8MlPYc5KOUIJQSOvOPy1FJEEsPrlYCPeqlcpxfFQoJgqGyZ93sQCFBLI1xOLsP9CiFRrAPoI4gmL39FIK9FnUE0VRj3SroUepSLBYBPaJwbW8OqgjC6TRhhgb0aEj9zby5qCIIpwR3qYMuFaoOdh2KCOLZiu28oEdFqm+jtqOIICCb2mBvRA1BQKlqV68u2YAigoBysAwK9KhPbbADqCGI+Pnoxdcj6FGbymAnoIQgogqV+9XNE6ghiKhZ5U92N0oIIqrBXY+gR6kmTNEA+iL3drKzUUIQUb3KvsgUSqiRE+98/XvXz9++c+fs+es3Xz35O1SEaV+kTLon/vzp/3v1EUka/cu3f/652SCP3vrmCcQ3BKO6YHtle94XggLyIxma/Nhz52fncxPpZdgXGZDseR8OysZDErT4yrXZ+X2I9IZQcZ/dqC5bsI+denKBXD/zCtIbisprqAsRbJZ+8vrsQi4juyGpPBPKPIlgMxwKub1grmd/geyGVHd/HXQmVbCPX1s4128dQ3ZDSlJ5PmUigs3MuYVzjTGRRWXdV30RmYL9/RC5nr2C5C4i+b66elqiYD97KUSuv43gLmZAZbAzEGw2vntPmh+98/Ffr199/D9zTKcR3MXkZqpM9mYEm4X370r1k5e/+OkKgFfeOXX5BQSXdSc7qhrBZuHGXX2PvyCpEWpSGexKB4JN35XgXN/CPGPE2tWewuBDsOn7VVBD38NSvsiNqj0D3ohgU3fig6CvxtcQUwWcaq8ydSPYtH0hqJ0fIaRKqL6PJgXBpu3juc18+WmEVAl/1P0zlC1JsJ9/eW4zLyKjiuxReehq1xiCTdlz2FJA4+tR1YFQiVJtopEk2DeDmvllZFQZFXcbVNVbCYJN3VmsC6FB+dV4Q+WSPaocwT4etB/sq0ioQhaFsY73S/eocgT7qaBW/gAJVWhKWa6dDQTBZiJ4FPtFJFQht6JpmUEHQbDZ+P3cRn7wGSRUoTwFwyLR9K4vffiNU+euPf7nJ86ceeJP33r3wul/fOOxcP/Tp0/++isf/eHijb+/+ebZ8xcv/PbDk89TDvaxF9/42s3LP7v6z9cvXvjNS69FttPw+PsPXbj63h9/eunMpbe+dOvcZ7/zVHhHkwWdkHM7vL/1yA9fevvHf3v3xr+Yu5agOLMqXGOVjtaMOotRy/JVoy5czEJnqZaWNTNaVmmVm1k5k7JKXejC0o1V/ZPuphu6m1cD3RAgBAJDQ0N4NjBAeIZnoGlICCQQQkh4vxNIIDAhSZUhhPCf+9/H+X/uD54l/Pf99bnnfOfce5fD8413x3PdR1oSq6dafEuW7dZuSdH8sxvP5769fr4j/3G2HTM9np6Eqf2O1rQUjsaZiux/6sb1b96W1PS9xUTt+ZC1+cflooLVMVP1AW1RZ+V6ikMWsOsqlrNg9cFwYRlyZJ62+irtWYGt6E4GZM7GRh2IV12kMkottUPUWby7QbTlvxGdK1D12wmHcvXVX8tLBz8Pvri4xBdeT7jMmsu42u5z2tkfuzmxy0sVn8keiBBFpjt23aYB+03dd/a9L6VdWyr7HHboEgdB9pImF/vc1NrELQnAro6N0Ktv6kLc+VfemMXqnncyhga5SgUl2rMzOaUh+qeZszyQpaupl2v7PbKO3yA7G0vbxhrqncwOOm8WMFbu6oCXPiGNZiV5/VFnrPFrcprNLeavYTibqnPSCz4Xrb5/8uwRgZ1z6Ry7+uk7Im1d5OL274wWctU4XCsJpLkzG2B/HFxk57vawZd7WtPWtkr5GWth3Z8pmv4U2vbXzSkxf8sUYH+iLyjzoZRGrRNO4SqG7migfXvShVn/YKHtKMB+ssKvfoSblxSzIu5fL1FDLhLYabBYQzL/80CbDQvse820Cgo1g4uIO5mt/akP8Fc7WBpvArBP6cH1F38npc2MDdQ6bqURvwYXEgDKpscwsDO6hbWv5rKHVuDE9M8bBSDXhhuVExik5+fFJZZP44BdWkVtj/DuPIOITgasBn7q93PkA/u/etzGf0lpMi6CxKfrtrpYh4KXynSDwH6wiqh9LJUxsvh1bAdBmnURrkyiusyVaUyRQAoC2Dlz9ML1ROgI1SIZK7VFY0oVy8/O1UFkvyMnlc8TQuMTOBZ5ih5kDxkC9pMqVO1+RkQwH92/IibFx5YaVZGlLFwZf78Y2Kzf1WegzIUxVIPbBBfSjetnRHq211/RuP6GJDpkE736MAVoVA+wle54A8BOcCJrdz6hFW/Ad++BWs97cWUqVC2hrTKlVAhs1r4EdEMprrUkOO3uZWw3I7J19vvYCM27knL5YvGrXwI98h1dyO7XD+w7TnTtrmGKiXUNXdynXv+zyEJLh2arS8dEdBkEdo0BN0C5C5cMr8SULdmPpyAvzflIUnPpfeih+gnnpVcXsAMevcDOHdNR/Y5Ww9TgS1eoy2UjC72iiO1ePRPh6jEGbDW9ke1HNgaDawN6+ik7k/ENFK7fMiUXYm/aN2d3e3KHR8crFrYIuzFMkvxaosjXHu4eud5MVZX5OoF9nsKehRYu1SbUVnRQ2POHmhCgZned6OrM3U65E9sSJokBQLWX4Bbee8CkuGlOinfrYl7e/AaN2F7JMAJsNb1xm/FLCvhCocTkoErtgmbGKdRe/XpUf39pdDelozEnEHr8RFZrHgjeqnz1pDvqamtUsRGNHasK6gSXF7vSDnVyenaLhlQ659YHbA19llxyuGWcLtgREbaEc7v8AGxUu+sqLmgZxrebkw4E+K7eJLVEatkkSmWh/cC2KWtr1/z7ohFgt6iIVgrLHazprzuY4JmyztqBR37SoC/TbM6b2a9+LbbhQdLwS5L70N87x3oW/TGEjvbyLsfwXOvLddXkERw4MJVT29o8BseFTL5xKQA26flVzUKjz71ILIQP9gFeB6JUaIMOZYVbojTrVnUVUwxGUmOwL8G2ejRR3QYksIMjFalp5WX2zv6WBZXGmdLGX2u1zPPQ0sBFcGkV+dZIhLCJ6sgY/qxUYH9LjOs/vyattevqgfTZqd84dsN7/23UGgt7PlOgl5Wk7CZ05ogeYLsJQ2RHewv1aB8vwv1EQYDy0/W9TT3Iikekc+H4UtWRsB3U1OZYJHE4gwF2ZJyeknSbdFVddzGOHqkpajS1WxeIPXZIJrB/JMT19z+W1pi1is16gB/zfUWhxPceKjulnHyweBjDGXPrADZh6O7QUgx7oB2VCMKHjeBfzCzD6oI1ZYH1zxRQvx2Fl6J4BPVUKAZ2VQmrzyQVvTaMWWoHkbo5SYnvxzfyaLAjyu+F15j9SV5j4L5FF+9WujpazCyjgZ/maIWTOYwHtnsN6iR61BxqZQV0sRmbOziUyhx3IUAaFWjxRCbgCD0fhNDZK1YRsNeYeQJkJksr7lhPFyy1QVXyDshzT8s8WCE69fid/0hs7AJweeQnCHRxFAAX2E/hMlxi1A/3zkk14MZY8RcdAqp/hFDqSisjO9VGJAWPC4AdYKOVuIXelYsbC/wBBhnprHHnOKroaPJbwXGZX8sEXpR6FM/kA9sdZAFPAGy4DD6WDZkBeK+ASsF4EFaEUMATeHSD5T4PsOodD7q6NwXAZlNtZU5Byh9dtpF+ITSaeiVi4ZtcXH/lJ1KBd1c9imb5wIae+E00sIkrqS8w6+9l5ZHC2nMNdd5RJUSQBzpyEfbenceJnGiAPcDuFJH/0o60FqD13Mo0IWfWzNrEuS8svS75lgVAHPlNuOYIAG8VDWyYgpbMPmBmZ9k6Z9mRRbR8yrbgGZZrAsdJgV8W8IDtZR+3iSdy+pBPljkCnEg7kAnwocR3SE4d51scs6YGUUme3B+PBXaIG7NkfjnPYupaDS3QHVAH9awrDNv38fKYoZW9wQN2NNLdByPmSg8n0sr7UuKjwz/m4Pq7P5CMOyKXplY6sCE2cpDAPs3JliUEZFwnqwgZWEWTkdR5sOsHqD4hVIR5vNpgPp6/mg1sJwd3l9hZieitmbAJCd0exHjtBuTnbFy/8T3ZuCN8emV9RnID2eyNjQNsuMEn8xqAjJ+KuCO27EoDd92MqCu4TvuCSJfhnr8sY3OTBLCbOLVscBKJ0cW4IcUmZkqhWRr7y/+WrlAzNOHgBrl3wsSA2tORwC5S2GQKF1oq75FMNXH16s4wBsFP6sPSnyns8WkkiWn229FxERhRQ/sORDGunp8ziVA4dawP72ovGoi0GXwVKyftwmzR4Ei4PrzZXbOwXtDVWW41COwbeAPJzYp6azPxg3P6WD+P2C+EuZFJ/PommdaxHW1fwKsElcvIoUDL3MWNwAPCr+8YWJEvmHFLcAUt9WYhRa/aHkodCNFOBSSHjADblqXDjgRWrurmjThaf9prdXiRPWLGEOYV3efXByliHxvYHH8gQWER91yBth2fxEsF38p7+4/FY//MlGuC4+iHCluLOvE3iDl2u5EnSJDAJo6wFEXzJMDiT+inxl3hfqxJ8lSMtmQsiaY1y/wOFrDPYOlTZdOQG6z4uBM6SD9NcWRhRB5f/4PFFJljgXCtMQZ1OMhaOq1gBQnsYcWoqAnLe6yDZf76WhRjPyA0M6zIsOO+lDMpNwhsXgT4IpYW5LGSekTeK8RvHe9zYB7O/QbXFmKEe11qpo5ZQgK7y/AydKB+s4ribHoq1ts3hYTxaUUcwmG5A2rbxo4mDYux8SAo7YZn9IE0pNGz+770VZOAbRnmmhEr+dy9yPNQ1yzF4YBdYngZACZmmrlHD+dH+b9aW1BoZlzG8+17EmSd+IHAXscSNfjDW5mGZ1ReGtRHVGD/wmKaJPBH5uzeZha9PK2YAexoOcC2xAm653vMo+1vgW+pd/J0ouN5L+QM60CRHW2qjxkiRSze/wNg/5R6h4jFREkQHXmuZyQkdPYppgC7SI4p8twLTRR8v/KU7SMvgS9vi8NPisi6ibBYTDuWxrYphjy7eMMTajB9jCa0M4/vvW0msC0prYLROTtoufg9WYo5wO4wvAzkLu4RXqQR6mHNCghe098y2IV1iU5SQdMolgXsWLSZjr2q3Woc2FeloYx2Sv2XFnMlQ2gqr3ZqCpUFFJOAvWB4GTSpDbZS0S7s7GUobZBpXYygfIWcbzErkdoosLHpmG7jwJb3zAHlXpE3X7OYLTGiu879ZDqyY4v+ofeMLyk54DoZjd1GYeo7RJZWEz1o4+PYOHSN7dGlsUsNANtqDHVHALa8+6De0+aI/N1ivvBeNKAmjxZov3i0mGo/yGDPibsc0z+VFzIC7AHDy0ClCTgvGrw0R2iaL8cpPqcyehQbu80AsAkbG3tFu8PwhK5KA9jH2rv73rUcj1wZ4F92B9I50oPkKb2pW8JoGxLYMNfdFXkuiYmJvn15eV9N5nOZ3pczzyX5hVxnGAPnC/kPLzRTwoppCIp6WJ8vt8I6FoQGNkFvXMEuLYwvryFmdH9Cp+U95vYPDa6/fnxP7lp3BzkmqX+YCT5FmatGhJGRwIY5x61ShlaXH0HThBQWlG7NXtV3mqWKtbvggT1tjMeG7MCU5QTkVxpgf3Cs7Vtj5pjsb9KhweWGP4As1tXrhoBdCzV2vKSh2aOeMc1t7YMWLUDH0WuEx3REx008zJ8BHthbIpeCLtCDmjsJYH+oSX76y7H3oa7iBn35Dy1NeDJG2bXIBPaSPp9Mh5zvuh+kjkx7ChfcsFHPMHldenB2lUlp4IEN6atF7Lg39WQhmiN/I4H9w5PoheVsIY30SH61/DC3uNEiFdh1ZuXh7MnM0mAQo7IDmCh3oh6cQQ4ly2YE2PDinTB20DDkVXwSiPqATBL5tuWExD6h9SVTqLae/7RcYP+PvXMPquK64/jGqOB0rLVRUx1NmjS+pmmiMamtbWps02nTGtPGMXambZJOmodtMrH9IzN7471yL/K4KILgoCCXh7yRhyBKBBEQQeVRXkbkodYYhFFSjCG+SGcaTdU9Z8/ZPWdf9277+/wL9+7u93737Nnf+f1+J5mj4EoLyVHyLBJ8FItkyjZCu411Kh8WzX2X1qawGxud+bez5mOjqeBH/bFz9u8xYy8R/UfbGXxs6yVOF/eJxhobK6IKMeHSTuBx+2i30onHU74GzXMeUj4mmiB+SpOxNVbQYLWtBX4wE7bwOH6O6E92YROS200D/qG83kfzxzpGY5cSD2oo7jMexbVjJMPQQ6tpKecwjGuIal92Y2PFi6xF5AlcieOmcC9q7K+L/uWj42iwmrgycdpoY2eiYcYUUy4N6++PxXVSaWVcIv0alKszG+jZRezGxsrNm1gjRsgyqpG156xMRNdnFk70s7HFlAzSCusoa4K9NmNjHmg059LQBc4v0D9eU60yIEyaFEu10NYeR93ajH1GW1Ypeq3ZyZb7aL5JW81oJ42UwJZnrrFdVVa8xScqJIs6w9gypNFwQ5hCVpILvQcOi9qMjU2yWeMisQ6ewKQJ/ApddFzjf2PHkBLYTrNFsbUaG2uhaGSjLSnb6Nkge9WrDAhzMqVONKgSaJyFw9h47z7GxcfkLtpSm0U8Y0mhIw/oEOEm/UobDDc29hbfZM7vkEMfxPLUqwy+GtnRmRq9iym23W9YikZj491WNzH2R8DaHe+02kYrpL4e+wvTj1fSkuvkGLEziJPgFsON7TrrYC4DpIZ8s9SS3zbRR+UB2loKDlYxTG3NhBXboLN2HmP3YNGcfragNPZo6Wqw2NhINvZM84+3weEoUq7+QeJeI8Q4dnu40caW1fPyt8tMCXNk5yo2R0nx0EPCyBr0hwpfgrYadmynRPxKtjkUXkt4jI12FHRQNr2RT/G3YIvIiZb6+ttIUORt8w9482ns2a8QT/NWEvPtN7ONU5qNXbIDq3Phzp+8lUlV1KH2H3diiujNeVW9yoDssxziTe7CuvdUerUb2ydLTWTqJNqIfepsupXGXovE+qabfrz/jjc7dlLH3Dxy4A1dQimuN9rY8jqGUqVottfXQAn4Xqb262vbTI+8JLA7DWtY7egkTO1ceOkE9rrNZWzZkO2o3MvwU7uxIdtxNEppqG9LijDSaI+Y2eVd6U1kqJpc/vFJNLnBAJqz4MgeZDJ2IruxnZvwny8jk3b39RRucYRhj9Y7TXs9/yJPtZydCvVBHazhzC9pwc6zRlawFYHth+S45NVjbNk+j464ZmK2Tt+5Q/RZ/s3ToD3P3DGnstGApF4WSY39rum+lr6jFZcmyceaQXRGMCKdwaJThaytxhpb1rr7prWHr8jelCJiQopIkTZpxlHlBvnJRR5XSiHM56iZjcRrM9rRO9BddgH7hzB8hOUzNmFnXkdYfzk6wrrjC3PQDdjxwMit51S+7I7w9tSl3gr1xCUY6LTZ0n3vzB+wsdKm6NKD6RLnuA7hzQskS4CpuEbFLTcQab1br0T17svQbGxyh7L2zrTumIb1BX2tvpjRDcOdd8f1JvTTaL2M5+SZDulq27o0rCUKtgZUy5HbhG8LcfMOzEpKuH3fHbmgVj3KbWzn58QCp8rzhVGxSYPl3ZkDLTnb5bGeBGI3u42ncsvrWwsK0hvqk8oKayvaSdXGut8dgyXGfsp8Y++XX2f2SGrahrLR0cbqUlm3kc2S+z+d0PLR01R6JHfPwS9yB2qP7SYlPXMZ26lWXexQyHSLJ5zdlsMHdh7MG63LbJYbA1uC+ZAxefEriM0rdlyrqSkaIv2lxq3T2GJBO6soSFixPoxL0BHjjPa4tDZ9lum+drbzWadb+mEtpeRcxhYTNnF9ObIn4TDfiZ1EJ71og+5e1cWA3VyF3/KmCbzGFkPjGA9WjDxFObt9GpfdOlfa5938ATuW7zqPI79+21mzjS3u2sxlGOksqorrvIqxnNU+5K9lqkImcpxoO6EgiNvYag0XaQuq+VyyGLez0kPWJqyOcl1mFTbSxG8329hiYhPPt0tCAM4hrvO6jh23nLfJQR+zs9tJMRp+Y4uNHrbjYcnsjXEcsmwxymiTJc1ygl6wIGxex9Gl7KisiiQpzGxjixHHOL5duo7SU8HxwQOKYQdPOIOSiYyzkc3EkLMGY4uDjB1BsWYnoZWnYOQAAA5NSURBVDyN6eIN8tnrkgH7RUsWhBKaWe/gdsIaTGi02cYWXYXsd0+0NLblrWMeRD+WLVR8wD9utfWzHKqCHDnUYmxx/TWmq8NXhRM5bvleg2z2lB8ysdM7mS5xI3EBdn0ll689KdzGFsXWS6xf34V2Ow0vZLrvwgjdy5DEjstsQnoPqh6u6xwlYUmTsUVnGstNv1E2VuxhHrTPmzDFXm3ZMn58v+p0zdNMKblwnmNvkd3+ARpTYzS26I1le8wflj3lI6rVp9pFhBl0ibZXqMhUZSE7qVEGbcYWxQKGvWWi5YlgEQPZLIJmVBtUaPObSXd9vVi0kF0DykGEfQpzrYQQhvvfs/v8ngZ8tGI19pdjTNIxtXuvqpeYM/1Rt/J4f+E6Kf/Px1pGgbO3lD6z+6xe4d0T+U+ehZH0ZmWPXjxC1CXlnGpMq6Yx3Ch//dwPjShvL8CGNl+lXGD2eZVXiPDRywoP4eKc2uv1xDvfLV0mOaoSelj3fgXVM57PBzroSck9O0dod8XJMifDUiJXNHddITGQczakT3FSIS15yODrtZ5c1095aoZdOuOj6uLqyKJ7O7rzeqKB7pLuPvNd0Wq8rddTm+LwpcTmGyyPI7cvv3YETzS9WJNaXZ6ukBHtdd6FIVu+LbS6fyM2q7x6qTazQ20jATEhtrcCv/eGDudT6xCQtSfu7jIFB0/tlpxm3MbSfHWr8kmBf9iXmVqEBF+rKprzfarZrAV1H1dgz+rijZ1HulsNbqgzTmLsx0S/4CyI6c5NO9BcW5sVknk6nm9b1ra+KyfK66LK6spP1LdudZtygq7IhpjYvO6yutODhz6J5KgY8271nc4/05tVW9vcWxgVo9gyfUQhEMz4BEz0JY2WleUl1fdYVV3oTWjtSCofHb0RGr+LZxIR3vPpidN1Ud03f7X1KWb0iPqrpMjgByLgN9AK9WEQRCfSdpTPgxz+A313zANBdDLTwt2UAAXeV1q5A3j5tTRl9XXQw38gS1ZXQQ8DZyJPTAY9/DfFzmZsLQEwMcbalFWARgytaAjQwppga8t4ARpZMMU2kpelZbx/Bj38hhvJL2kCQQyciQjzQA+/gZYVhYAg+lg6VuLroO+DIH5jH2JsHwiiD6TLKqw7+g+03eY2Lyiii8njLW5GCVBAW6n8EwTRx3tIW+xVIIi/wDZm7QFF9DEVMTYsqPuLdDS79TNQRB9rJiDGXg6K+MnXWAFwKEiij4fRLZV+CopYRcGeu5nZJblYmVUOvDrqfHV8AzX2UpDEKnIcnpPDewZjkrrTjnXhFVIwYOtkOerroOkgiVVzD8WqctBHJ8tQY/8FFLGKAaW+BetAH32sRX1tRWNs4BauiwrGHgV9dPI8ZuyHQBKLiGHtSgxo4IVgzNgLQBOLOEX3dYsL5NHJKszXwpOgiTUk07sotbhBHp3MmoEb+3cgijXQG/yHwHitm+dwX1vWaPX/Hlrz7apB0EY3aybJjD0XVLEGcivOruEIkMaEGbYgPAyqWEPSv+XtKpuqt4IwBjBFPmBDcp91JIw2F91paNY+sr+xADQxhkVyXwuPgCxW4ops9X3qa+gpASmM452VBGM/DboANmcBwdfCEtAFsDerxwowFQH+91hG8rXwMggD2JpXiL62Yk9eADCP6ePJxp4G0gB25j6yr2HlEbA1U2ZQjP0saAPYmBUUXwvfBG0A+7Kc5mthKogD2JZXF1ONDfsZAPblSaqvhRdBHcCuvDWWbmzoIgzYlT98i+5rIRj2DANsyrOCEu+AQIAtmResaGzYggawJa+OV/Q1JGQD9uR+ZV/DmjpgS55W8bXwJmgE2I+lT6gZG1ZoAPsxZ5mar4V7QSXAdqwS1HkNZAJsxitBDMZ+HHQC7MX8GQy+huIwwGb8bRyLr4VHQSnAVkxl8rUwG5QC7MRcNl8LwRNBK8A+vB3EaGzhhyAWYBveWsnqa+E+UAuwC4+9xOxr4QGQC7AJs8ax+1pYeA8IBtiCn40ReJgPigF24MGpXL6GJRrAHizg87Xwd5AMsAGLOH0trPwTiAYEPN8QuHkPVAMCnWn8vha+A7IBAc6PgzQY+2ugGxDg47UWXwvCalAOCGSeEbTxR5AOCGCe0+hrmIsAgcwiQTMwFwEClQff1O5rmIsAgcrEB3T4WlgMTVeBgOS12YIufgQSAgHIT8br87WwAjQEAo95C3X6WgiGvjlAwLFkgqAb2KIXCDDmrArS72vhDaijAQKKNWMEQ4DXRyCQWLvYGF9DP2EgkPjlBIN8LQS9C2oCAcLERwXjuB/0BAKD1eMM9LUw4XugKBAA3DNtgmAoq0BTwP9MmSkYzCQYsgG/89uXBMNZBLL+p707/2rqCMM4PiEJNwESIBAIWxBIDESQQAhhkVVSJGURBAQR2UoRWmvVYvvn9/Roe1ywJuQuc2e+n985HOZ9uGfuzNx34KzLNcP8XIsg90/DUVNXwhIRhhbOmesRFgneZ3ThkMZcu7AMp1fhkP4OYSFjkhGGE7OQqCEs1cE3YrDdyXy9sFqCYYa9PDPVwnoTx4w07LS6JWzBkh9sVDgVNjH6GW3YtRSyIOzjb2PAYYfpKmGreYYclnt4LyZsFjxn2GGt45a8sF8HkxFYaaBvVDhij7GHVUKJtCEc4htm/GGJ7bFR4aB8FyWA6TZaksJhHPODyYbCdYZwHr38YOaz+sG1T0ghMEk1YIq24R2/kIeXb9ZRudkX8Rohl/RzyoIKPFzsXd8VEspQG529mbz90lj37FFDVb2QVYrqamxFGNX7DTOvQ+X92OVweDApb6Y/nGB9Rnm1tfxvAz0jXzWYmppc/v+Ad3dtr4az8Zjkkf7oyUsKrKuve3y016bjmb6GlheJmeLm9PvN4sy9n3K9TYeD+2n/iE+4yu4sFdZTUagtv0GNdXScVzzYoraZKmsoK5S3NU6ZtdPvUz/Y4pSGDLoJ/Sx0kOSZzUREzdnIJbXWScHQJNjCz4Eojfw4IbRRS+NsfcSFRrzvKLgmwkIr9ZuUXI+VvoBewRaBHEXXwGVeaGenm7qr7nmV0FAnTRlU96fQUvVTSq+0nNBU/T2Kr7DpgK7BFsZFiPqr6l2N0Jj/NQlQ04ZXaC3Y6yEECmquFbp7+4oYKGd8S2D0BQ9txbypI9b/uP6LLKjkOE2mPy78NdEBTaFc87z+ZHnkPYFQZX5Nrj8TZz6ihKEYWf5i5W/lN2LhevdZ57thfSR1h2S426KXGN9kt/cx4XCx1Xoy/A35ME9t1+r1EeBvG1miEZortWUI73deIy8GiInrNLMtU8KB1oWpNqLiKsO8NpY4I+njse0enlSAyJb82E72zhEZd+zKdBLX8rKdzvEm6YJVviuiWjbf6fxiI9mR2PGgQUxv56p1in5/snpfTUArMbGWe1p2kx32Ma3WleFxXbn65GBusrTO8d3Lm6lo9cRdomepBLNr814ovemDhsTw8viNX5R1n21PP9hbj328MZPul1Z6ukAcLRDYjV2vH2T+zO4tNRzujQ2uxdP+3S9OK8RJn2XOBjka4lz4WS20yJv5duLloCYiaIW28C7ZclRet9fHkA2L/ifhCZLltF81C/aSP9Fm7W/4rYXzThJIa/bAHhFiImXhZZpzO8yt5fC7VsF+8GHB/8Ka5uOewjqn+GQR1SnXjf99JJ58ZPrt3s0tPxMnefhmNQr20af7tAcFEy/6OTnq4WEtl4w+ufZ80eXUOzZsyqrQ49UDZtbybdJsaBPs4td//VWmWOGc5CyxXkOKZBTRJtgdN/9nL6Re3rLrZ6iwkmTjXNpH9rImuV799hjUdM4XylwEHCru1QVJj8wO9Mh193f6QRq10dTmcgkvlCfnR0s97MK4YGFkW4tgJ0oajGAs3hc+enn/65l3448DkzNNkZ5qJh9u0aNDrh+XeXN50Os/rerZj65F1+M9Cx21uyznuY5R0CDYLdRZPzH1D/k1s9Kso5zywc5QZB2NjCue69/5WlxPiu/SeLjSSNf3x34NjqtCx/fHhwrn+hVvjvpKKRzsfcqrryfqHswuUl2dnaq6mH3JuQ69/cBEBCoKvtb48BNUXhk5UTDXv4xSWO1dqJfr52zNQBjPlAv2HlWFEKOq3fkxzRkR/COp1vUdc3Q9xQetKuW6LUlB8ZFKR7MzlBP/Ckxypg8q8qryAlng81t8yt+lRK4H2JnB56pUOJt9xpW4UHBpJHRKGfGVFbfn+uFbiogbuPyevMYoJcRNjEeuDnaECuJmPjefh+LkE74p4N4rIFeoHhRM9iG1w/8m+xm5hpLJTrgv1p4x6obvro20uC3Xd1upGkqw5K5cP16nZCjJhZva6HSlKRhK1Hnsmlzf5zJzlG5rziW5fskHjijHxKIrcp3gOlGUJ+iCgyPdfTRaQNkisn96MN5JkXAL6VdyT6/5XAa3c7Upca57+WwXt2XsyDodGacBNiqRlPMyj8IEpUFF6sMe+TbRs6yGoGJVG5LlejFGUWCC9lyjTD0Wsj5KAnPUncszu2aRD+YJrISkiPWrKLNrmCo/I0FHnKYaCgGzpd85nOuinyLAAr5WJ9dHFvmgAFYJZs8civUsk2tYqWbJiUbaswcs8cHqaO812xzrgVbOO8EGTyJ2XuzRH2cSArteI/eHbWoZUuT2aNhq65H1WzZD8xzig+3aLyz94Lf7fZSpNRx6bIeHrHphXOFhDSdn21U/mb/+t9zUwQsjnBbozJm5I3lOqiELI7Y02WZCqO9sRjiVCrnUv215Wkkzy1ChIU1fJ8gZ7uvD1VvsS3pmp7J1hBpy83buTW3fKbWNQv+LsWsuQIdrZt3edOaHe4Xzy5u/cb879Ho60bB2OsJIwZ2CXn/d27XBSHbnsOFwJxvJ/NF56vdyWA8AADv8Dd2Z5Hnakx8aAAAAAElFTkSuQmCC;" vertex="1" parent="b1W5nlMtBY8Uv-4wOHBY-10">
          <mxGeometry y="10" width="125.36" height="54" as="geometry" />
        </mxCell>
        <mxCell id="b1W5nlMtBY8Uv-4wOHBY-13" value="" style="group" vertex="1" connectable="0" parent="1">
          <mxGeometry x="620" y="-620" width="80" height="80" as="geometry" />
        </mxCell>
        <mxCell id="b1W5nlMtBY8Uv-4wOHBY-12" value="" style="ellipse;shape=doubleEllipse;whiteSpace=wrap;html=1;aspect=fixed;" vertex="1" parent="b1W5nlMtBY8Uv-4wOHBY-13">
          <mxGeometry width="80" height="80" as="geometry" />
        </mxCell>
        <mxCell id="b1W5nlMtBY8Uv-4wOHBY-11" value="" style="shape=image;imageAspect=0;aspect=fixed;verticalLabelPosition=bottom;verticalAlign=top;image=data:image/png,iVBORw0KGgoAAAANSUhEUgAABLAAAAIlCAMAAADyhPE3AAAABGdBTUEAALGPC/xhBQAAAAFzUkdCAK7OHOkAAAAzUExURUdwTP9JAP9KAP9JAP9JAP9PAP9KAP9JAP9LAP9JAP9KAP9HAP9JAP9LAP9KAP9JAP9KAAbdp6EAAAAQdFJOUwDPYJ/vEDC/QIDfII9wr1A62e15AAAgAElEQVR42uzd6XabugKA0ZoZz+//tCdt055mwEgyg5Ts/eeuu05CYyE+QCbOjx/whXTDOPb98f6PQ38dL0NrbIDM3Kf0xgYQLADBAgQLQLAABAsQLADBAhAsQLAABAtAsADBAljO7ditE6z6cDK6wJLO93vTrRGs+mXDN+MLLKY9/CzP42KlBav+9SWjIQYW0jW/0/OwWEnBql+/5upT/oBFVM2f9jwqVkqw6v8/nFSxgCV69U98HhQrIVh12JYBAo1v6jPdlfhg1YFbBghTv8vPZFeigxW8ZYCkXk13JTZY4VsGSOvVZFcigxWxZYAAl08L9HlX4oJVR2wZYF41kaBPuxIVrHpqy35NB0gyTDbos2LFBKue/GLPYwEpuuYeU6yIYE33ymc7ACl+//5geLHCE/SoV/f72dADsa4Ps/KxWMHBetyr+70y9kCcy0xWPhQrNFh17IYBHuvu98iwBAarnt/wwfADMW732GKFBSugV94pBCJVscUKCpZeATkUKyRYegVkUayAYOkVkEex5oOlV0AmxZoNll4BuRRrLlh6BWRTrJlg6RWQT7EeB0uvgIyK9TBYegXkVKxHwdIrIKtiPQiWXgF5FWs6WHoFZFas+zP0CtiyWHoFfIdi6RVQSrH0CiilWHoFlFIsvQJKKZZeAaUUS6+AUoqlV0ApxdIroJRi6RVQSrH0Cti1WMe+Hl/1faNXQJ7FOtbV8O5r22G8NnoF5FWs6+U09fXD+ahXQDbF6k+Pv2PQKyCXYlVz33HVKyCTYrWR36BXwJMVGsMd3i5gzW67fRusc8Q/dbJngA/65AeqLvMbP6y5ceDbSW9KN7/xc/LGR3sG+CA5KU3Axm/JW+/tGWC5YIUkpRUsYDnDujdt6X8GzK4BlgtWFbL5XrCAxaSvMg0hm09fdffMFvDemFyU07qbH+wbYLGiBG2+EiyglGANggUs5ipYQCn6dR+UEixAsADBivhbEoIFlBKsu2ABG6sFCyjFyo81XAQLyCBY3bqbFyxg46KsfMcJfCvpvzsT9CHGPq0BWE76qvg5ZPOrfp4p8M10q34m6MknjgILuq9501YJFrCg45qr7ulr7v5qDvBRv2ZT0mtY2TPAB90Q7hD524TvlrAuEf+UT0gGnlLHfkjyu+fcm84YAvv0av5JrPd/VVqxgJ16dT/eHt8QfvxFQsUC9unVzwDV1cRiU3c5fPoNigXs06vfa+/15e0S+WkYr5N/8VmxgP169Sdb/au5JxkUC9i5VzG/JahYQCG9UiygnF4pFlBOrxQLKKdXigWU0yvFAsrplWIB5fRKsYByeqVYQDm9UiygnF4pFrBtrw7TNVIsIK9etdN/9qZSLCCrXv148He6FAvIqlePgqVYQFa9ehgsxQJy6tXjYCkWkFGvZoKlWEA+vZoLlmIB2fRqNliKBeTSq/lgKRaQSa8CgqVYQB69CgmWYgFZ9CooWIoFrOAS26uwYIUV62T8gQinJrJXgcEKKdbV8ANRbpG9Cg3WfLGOrdEH4pzjehUcrNliWcICovVRvQoP1kyxKiMPRGsPMb2KCNbDYp0NPJCgayJ6FROsB8Wy4A4sW6zPehUVrMliHSy4A4luEVWJCtZEsfQKSFeFVyUuWDFbBkgs1lRVIoMVsWWAtGJNViU2WOFbBggtVhNWlehgvSuWXgHP+/e9wgdViQ/Wm2LpFbBIsY4hVUkI1j/Fqg0zsIg/z7w/vApKCdbfYo0GGVjKef6uLSlYv4vV3IwwsJyqmVtlSgvWz2IdfGAfsKiunlkVTwzWj8qvOwNbSw0WgGABCBYgWACCBSBYgGABCBaAYAGCBSBYgGAJFlCGxt9GBYrRDrdxvPZ9/+sDSl/+t6/HcegMDAAAAAAAAAAAAAAAAAAAAAAAAAAAAAAAAAAAAAAAAAAAAAAAAAAAAAAAAAAAAAAAAAAAzBhetd93CNrfI2AubDHRWiNB1KwZx/Ha9/3x/pnm5b/U43gbui8fqdt47vvD+wE49P15rIaTqbLEZBt/jnH/+TT7OcsMM5NT5zrRqClNf32ZUl9wMLrq3DezL//w8uodT4kjfHuZbWGzzDDzplRV8NSZnlFf6DK+u1ybqGiP7hSjzwbRc+xlmG9uFb+3driEXEeEVquu9jkNdi/3sJfx1eXl/zxzq3qrkwakHzvzaYWzwfs5dt793HD6d7aNVty2GvaXC/LjfXHH84ZnwZebivrjAtOfZaZ6vEU35HZ94rU39c28enyCrOrnT4/NtWr3CdVl7KcuDPv+5UzZPrPx6tdKXvNmm7/X8D5stupL8+QOG1Zp1V/bTKjuEHRGHiO2+PzRtFqzlps75/1qdS1siv07N/qw03XK0XipH2/88v47zvfSXNJnze182OAH3GBCDYGXfMGH00Lj0py73V5s0L3rPrlasFavp4ZNb8EDd8Ah+tIhIIT1h7NXccE65ByrP8M8ZDGF7kHlPI3NkrunWvrFXsoO1gLXrpsM8/OzbY3V0g9H+7G4YN3jzy7duHmXj5c2gykU0M1TvfRLb8ZlX3pdcrCq1Wbe0sO8yWx73WBEw99/b3m9+niVONfyfaLcnE+7T6HZRaz2nP+x1BcbrLZadeptlazQ2RZ20ddeogbl3UHUFhisJmawz82eaT3tPIXm1kHHpoBj6V5osNpx9bm3TbIWOz2mDMqw2oJmnveEO6/RrZSsYZEDdFjz/N9cvnewNsjVVskaFhvdhEG5lB+sqFm395sK60yo0N326G3C9rrySz8Om77WvIJVbbYOcaxyCdbsm9KXhIaPq70Ds1kCTiUF62U33vabQg/euLltcAFQt980WMOmy6Z9l0ewZt4m7JLepr++W8QoL1hxtxo5PLbRn3abQt1el1evJ5cFYn0pLlinzSfdmEewHoZzXGSXlResyDmXxXNmy63nxE6hibuyYbO3Iq5PX2SNpQVrj2PqOOQQrNvSl1dfIViRVyuZPMnft/tMocvuh9Sx+17BGnZ6snHMIFjTP0OVfobM8AJkzf2SS5GbWzZTqN14pz95eVmXFKx2vxPk4bR7sM5r7MOyg3X4UWiwlj0FDk8cod1h61f+3Np7X1Cwuj1/caSp9g7WxPCenppxZQcr+v6iyudnv7Y5TKFuhydpD+33CNbeZ8fzzsH6/LmGJ2dc0cEa1xvs3I/bxFeVR8Cb7hsEq+2/0AxbZrYtMeNKDtYxfn90Of38Tbf3FKrKe+WlBGtocjhCul2DdVrhqrPkYKW8d3v/isUaEodsvxvk9AWWQoKVySPYzbBnsIYV3jIpOFhJt+jNVyxW4hTadUGv+srBautspli1Y7CqFd7iLTdYTbv3fM+mWOFTaMznDYjq6warPWQ0xar9gjWuMCzlBivtSabcPgN6kWIlTaGhzCOpgGB1eX0MZrVbsOoVMl5ssK5Fry38b4l3coaEQ7Rrymx1/sHqmsymWLVXsPoVLjtLDVbTrj3amxVryyn09x9rMziqkoqVfbCy69XSxRrSpvZCt8mlBit5H+T3UuoNp9A9q1WWlLNO7sGqvtTRssxsW2i9veRgpU+1wxecThFTqF12+mx/P3zOO1hVnsfLbe9gLTbh/mPvzLbsRnUwbOMB8Pz+T3uqk3Wykk6lUxIg/TLS3b7aNpY+NCGwDhN8eWvmn+wEvHmxOPFOUKGE9Z3p3iX2tIaAajCrCrD26l9tswmsghP/N+DrjHIqFMASeeergLXCWsy8aAArVee4zXlYJYoGeTFQFlOhDJJw/02nNXyY2sACzLeXRN/VgLU+nQOryL+Nr3sjigpNaCtA3fqBZ7oj86pGbYf+Bb77z3vFdTnQi/71/RHIizZGKRWKcLvS9RZgLeDXpp/ywMrV61zZILAKMz475EsFIRXa8PIsREOCBdaIbjirDrCOhnayWgBWeqNiFSVFKfsM3usTS74zKLDqdYrMMV75h0yxVgi/LRrAupsavwFeFc9R5MeEY/wuaHEuBViAaUoaNyImsKpkGsYpp0/9oBSOCu89SQPrqpvA+sRLnOF5Vb5NfD0m/NjqjpzvlD5z6lK6c47V/JWC1jKTF3azg8IDEljln2DM6S+qnXKptt3CrxqrV3hMlNCqBoQf8vdbQ7eYz/TFkH+9c6zB+QkbWFv8IdWTy6R4+EQEVmmnyBW+tgT7OYotdBVgVS5xbe0C8UYyNV7xOR6BwcT1LL87eccE1ge8w297/5rOI84qX3VFBFbRRj8GCkfWEhu9hIFVOSD8/YuhN2LVadj9g4sQ811ymds9lX2djAesbfrPFdnDVMnbouwR+T9FBVglZjORi3d75ivaLQus2hFbtWYyqTxlnUOc4RPLDBWKvkuIKjBuA6zx/Aq+17NGGm+splQawCpw+ibWFrmzvawKlULNjGnW5BUj7r8q/fUvfsF43PVuyS1x2E8gFdry19dkP8od/2AYWPyO0YuteGtUM3lNYCVNYF2CPsifXKwPz6r2ld4Fux+MCkWqJxtK3azNMLC4dcutyPxO5i6xWwbWqsirW9AF+dzFimeb99+j8P5RWYVYYUoqRFY2C6yk9MZMNYtGgDXHX+WbftkKCCu2zYR5upeGMObtfhOCCrHDlFCUgK/lPcsrFO+1a9xxmkW3RSFgfWsp+vQZ9/tUBBbdj573wYwsvC4H/UH1Y4E6LweAiyUOLB41rip8Zl0vPcICa77+2jyrJklNo4WENbcpKKvQXDqYa1N3saSBxTtLf1TSsnWU07LGwGqVoFErrIyDLeFMR7p0VSgW+7BLQf/saRJY8ZFHxs8LziDWhgesKyzY1szwo9ehA2ItmiqUlb5s1UKhMLCSLq94xApYwNrOBd6W3x4QcokV9FRortTjwp9hHAwCa1PmFYtYGxKw4m3AlEel7Reey5eaCo27IqcrBv2ywArqvGIR64YBVkwWDJkRNiSLwKLr86ylQldFr5xNrGQNWJwhDaG6ltETwhEEWFswYcaMI9zHYFMmEZstV6G6h0qT4lOIAitrrzR3h0gQwDoWG1ZML6xsi1FgkTe/rKJCta2Im8dabAFLt/n5J7klP3gtYG1WoibGkIY0WJVbQqETGK/YtcLTFrDobzk32nnJLbv6820nK06I4pAGC+6kggq1iFJ4/VibKWAxNLnZzktNvGdtYAUzFnzBbEsisgqodILjFXfkSrIELLqDlWHUbNMF1mynq5IxpOEeLAsx735Kq9DYZjtISvAUBBaZyS0Pa2Qxo6oArNEOrzoLCOnf9xJWoWbuK+sk9GwIWPTKQlMz3aS2hgoXBBkKmd49pKFCemETVqFmWRVeUHjbARb5/doe1qAqgd5Abku8YrzsaZxX1J1YVoUaGhHryt/JDLDIi966N4dY3glawLLEK8auG63zaliauzx8FYpAFsSvkqoAaxJ3Hv8ixEE3lxKwTPVUMtpzdvPAItZFT0EVahtusy6TuY0Aa8fbeYkIXVSANVuautLHkIbCmPAQVKETyoKqxIRSDCG3P7dvfiYyNKgAy1QPOP1Y+fgCXhFjwiinQiOWBVWpE0oBa4NzsKgbxKUBLFMOSA9T+8pBvcmpUMKyoCoPJQSRhOhZECMYBWCZykgzhjTkV/CK2MshpkLt7/3muFiHCWBNkJZKK3Pc4sCy1aLU0ZCGfwmtwL8LqZCE9jBcrNEEsGZAB4uaLZ3EgRUsWW1XQxpKHI0kpEIS7iunULgbANYtS+E2HN2kgWUqIFz6mdpXqEe3jArJHCmP0tuwjAFNoK7FIbA18IFlKiCkD2l4S0BINdsso0Iy+UHGKL/JALBmxM2B7NGessAylZHubkgDf+MTApbQdkd3rDd8YN2iDKYIqdtC9soTU1Oi+hvS8Ivkti/OUaEJkdUVUCoCLGpEKNedQ1pu2StPTB0KPt7N46rfOIqokJQNrcKutQiwNkmfseFy74LA2l5rsAYroPaAJVewoZ93P9CBtQL7FnNzI2MCy5JBdzmkgW1Gm4QKyanPKfvtJf6IemRDsjo2Nd8amF1/r03hGGyJrWtGj4AKCaoPo9sdHVjEXg3RA7Gh+ZPhdv0ppjHOwYHVUoUmwXenu9crNrAWZFvdm28NPGBZSkmPskGB+SUQUCHJlhF6wSVgA+sW5G/j/UHsjqbJkLF2O6SBG0S0VyHRhAJdwQ9sYB3Ai01MYgUpYBmy6H6HNOACS3a/myUdbIH/GaGdi7P11sAB1vhWWzX3di0WYW2uQrIl5kvSAWwPrAV6sVu30PCAZSgnfb7afWwCrNRchRZwFdiRgZXkXqb5CsxCwLKTcu96SAMqsIRdWHqVOCEDi5iTFe/wHhuThAEsQ8fsuh7SgAos6S1hFowg2gOLmOOYoE1O5lI5O13ujCENaXBgNVahgPz2hURtD6xZDL48yY1VgQEsMz6IB4SQwFqRTaiwTNj8b1b0DZjU654lgGWnitb5kAZUYEm/fRLU8ObACuCLTVvtSQJYZtqUGM7jPTiwWgNL/BzBQlYDYGAd6N7F3ngJ6FZtpezPGNJwDQ6s5sCSPyZBVoQdF1joOffWo0HAz1WIpi5MBIRrSnf+R474Q478f7nTh+zYwMrYvC5L/DQH1gwfDjX2ZdNbvZB3DWnY05mv+HVX4QNjOZ8pLXjAkq/DkreuGxZY+4O+2I3PgdGBZSWF9ZYhDXv6INXDly1OeesbWEFOx9EOpuzgwBK4BdNIo9IbpvYtKcf5kZbWwJJfx/QeYFHVenBg2eAVY0gDVkC43Mf4qMj7gDVQl+CCBRZ8kbB5qzv4QTCxPCvUiyUtWAkAS2OdqbtXhAVWlHoRodim/S2YNnLuhoc0LGGaH01pDKxoYPvCBRZ+kRANWCZy7ovZqX3herTlhcAiLyossB4H1htz7nSrhwgIV2XfSgRYE7oNIQOL2qtzZXmJWMCy0OduckjDErYHQhoDKzuw+MBKz8vkar4E7wwI1Yc07BDO1VuBRbbzHRRY+W3Aan7PuIUr6ulDGrSn9qUJSIccWAUOtwMLDFgGruxLAjZa94EjlA69EFj7W4B1ObCI5o0/4M7akIY9gunQC4E1vAVY0YEFf9S+vdesOaRhmeB0yIGFC6zRgUUEFvw8d8aQBsWpfXl+HFgCQl3mDAqsx4EFf9S++R6kFxCmDVGH3gis6MByYL0lINQa0gAYDTqwsIG1O7CowAKfyWloSMM9Pw4sB1brAnjvwAJ3sKLAitVxrw5YHXJgObAcWDJCH9KgFBCuwOWeNwJrcmD1CSzsGyjMDGkI8+PAQk5tggLrdGAZmA3ydbEypGGC1iEHFiywsgPrTcBiDGnQmD2xgHf/ObAcWA4sDwgtpK8cWA4sB5aUMIY0aPBqfhxYDiwH1nc5+gWWjSEN+LxyYOEC63gdsFpPHMU9+8wY0nA4rxxYpoAVHVivARbdW1aY2meBVw4sB5YDqz0K6Gt1O68cWA4sB5aKWBjSYINXDiwHFrCyvQRYFqb2LdvjwHJgObAcWJwhDfIB4fg4sBxYDiwHlo0hDdPjwHJgObAcWDaGNITHgaWnQpcDC1OGHoG1GJjatz4OLEUVig4sBxaM0Ic0iAeEVRPuMR453ymln9zE9eNnOnPOMUYHVrGlJweWA6uVMIY0iAeEdRJYW8zha6aUUsj5ipsDy4GFLFuHwLIwpOEu/7TjcbMwm9IHuWYHlgMLUWKHwKIfCB0NMPXXEsF0L3L26hepwgJrcmCZBxZjSMOKz9RfaFX+vA4soiyYwHrdeJmpO2BZGNJQcnVArHLVtgOreS7YgcWR3B2wLAxp4Le4T5WqA70DKzmwHFgQwmhvEp/aF7Rx5cCiAmt7CbCw74yR+JZowKI7L+IBIbcFK1ZMtfUOrCBm6GAelgPLekAoP6SB58bPoeYz9A6s/BJgJQeWaWBZGNLAa2m46nK1d2BRy7TZgeXAaiD0Pjr5qX0sB+vUXKgXAis6sBxY+sIY0iA/xp2RwZrT4MBS/QgBFFi7A8swsBjBVhB/SEaJcK7f2No7sOQqyY0zZfAlcQfWn8XAkAZOGbMBr3oHFrn5ZXdgObBqC/1AsfzUPkafWAte9Q6sWy6SagyszYFlFVgWpvYxThE24VXvwKIWPkZYYEV8lXdgVUKBStsvmaptsmydA+uS05TGfyM26tmBpfrY32SVf0pyLDINDqz6ssmZeWNgUX3Fw4EFEhDSuwU0Hp06v6jVwey+gbUI5g7AgBUdWBhCb8ccNR6TGhG2ypH2DSyyN55ggZUsaL0D6zexMKSB8ZjN+vD7BhZ5d1teA6zHgQUhBoY0cCxld2Cpv/0/ldoBFliDIHsdWIoB4aby4YiWMg0OrBYiWU5u/T+zgcDCgfUvYQxp0PluMGXMroFFDqMyMLC8EcsgsOhDGiYDS9uyotM1sMj++A0MLGr74eHAUhcTQxoYDxocWBj72w4MLO9rMAesxcDUvu9C7MJaHFhN9IW8vQ3AwEqSL+PAqiH0IQ2X0pOOME/ZM7DIA34iMrAWSXfRgVVBGEMatEq7MBFh18Ai35ackYFFLhPeDixrAaFWoWTF2Qp7BhZZYRI0sKgZucOBpSo2hjQwVnYbHFgYHvkCDazus+62gEUf0jCrBfE01bocWBgpz7Ljd81ZIjiM0IFVHhDaGNLAAVZ2YDXRGOFDXM2BRb6HIjmwBiMMKN8v5SjRVq/6BRb9EpAbG1jknNzhwFITxpCG1QqwVgdWC6Efkx/AgXXZ2bK7BxZd+7KZpx0cWBBbXEQHFvmgx+7AMhMQbpqP+ziw1FWI3IRV2gTTHlhJ+I0cWFwxM6SBA6zRgdUi5U5XmR0dWAP1jS4HloWckH6+EahdpldgyfvkAt+cbAeLA0tD6EMatsWB1TewNvE9TuCbkw3hdGApyGIsIHRg6asQvaehuFgr8M3JhYTRgaUgdoY0OLBQVIjuYG0DPrDopyNXB5a4GBrS4MACUSGGg/W/9s5syU4dCYAgFi2s//+1Q7snwvaMr+/RXhKZbw4/9EEUWaWSEHsLwvJe+pwQVgMTwurnaiCsyiHkX2DF1yIl7rlqLne/T1gNHdKAsISEUECB5YYWhOX/fuSBsCT/yB9JZUNY7xZWQFGe4LcVuee6vIgRllfsuRZziqCQeqOw/PdgpXiLpYiw/Hf4KIRVEv/Yk3BsGa/m1AyhLcBXemhDWP7X5hBWQdYaqRJhtR1COkBYqhFhDeOLS6wGhNXWIQ2BwuI8rKRcAb6ah1aE1cynOV8pLP+7I2NrLwf41QuhkI57kl9WRljL3WYOf4WwAg5pWBsUFkckp+QM8FWSPkKhltlZ5+oQVpZmhJBk4vfD+QhFQlSIr5LsBy8krIAZr0ZYRfCPPSdkuu63tslnvtKxhkwI00zKSykkYBf/gbBkNiOkfCbEyinZ3yWsZQzxVZoKpNRfDNhlNq8IS2IzQsxXQjzLdj5Vn4rprlZgFRNWyDazEWFJe+gFTQi93yc6EVYajrtegVVMWEFWnhBW7uLef6p+iRlZ37XnBWFVa7gnayQUE5YJuUiFsPLif0iDpBP3ZzHR9CJhrXfNAqucsIK28vfwGWjJwgo4pEHShl7PkBoRVgJfzVULrILCCqokO2i8SxaWa7vm3cWkv9cIK9RXyTYpFfyj7p3GEiysNg9pCM+BGmFV8lW6XFHwfoc165o3llxh+XcjZlmvH3hfwIWw6vgq3fJZyQTlXmksucLy3/4nbS+v7/OTbUvGO4QVuD6YNNGVFNYVeLUGYeXAfzuNuLelvBdyToRVsoOQ4ScVjVcdeL0KYaWn2UMaopyrEFYgyxnsq5SvcRYVlgm94glh1a9OBJ74E9CFWxFW2FCPwb5KujpbdkYQLOlxQ1i1+xES35TyrxLztLG6F9YRrqu05UZZYW2hqwz3fCCspAV+BxPCIeiFr3FBWN7PrY7wVdq9xoV7ruF9u1sXLbKWrW9hNXxIw6+ErOPkMFbfwrJzhK8S7yUpvUjkIkxdrodynelWxEQKq+VDGiLnhFmM1bOwLhejq9QLs6WFZWKu3RVZLlz3OWWnUKKwAg5pELq3JOhoJrcirI//to7SVfJEV3wbzh51+dpkt5VLvOlIorD8b4LUddqwBDhfCKuIrtInuuLCWuIKzHvMWGWZ/dcft3UrrMYPaUjRY5iWboWVrtmoxlhdpY/n8hudTewYuCPH07Ooac5y4wUKq+VT+/6X0PX2WfUqrOcBSZFr/9sZiSP9uxEV/voePw5T4gfI2D/kkrlXYfkv1Z5ifRX2Rc/k7QVRwvqah+xxbbrtiC+u8hTmFYS1pBiLOZmzjP2naFN9Cmu928Bmz386WQw5YcL6ekJOFSit3zsjMWTYulejvlvnJKMxTyqy9F3VPmavK8QJa2xEWB8O/xbzN5yNnT1tl/VtTJcR1re0rPEqchZjdbo7mKPdXGVCqpINiZvC0shijv3f78zSo7CORnz1cbhNcX9mPELrAKOsDsm95YT1bS292+vfvWUue7qkNzDLynKdDtqeclyeG6I+zyPPfdk/DTPVobC2uRVh3cWu6KsQ8ai0tsdUkw7/q4WF9fP51Y+6Hg7zK4d9HgidISryND4rtfwzTEu0tk8i+bO5VvN46gmyscKQCxOWvnsTVsz7Xr+VWvr8fpi3P1XkD8+zfuoE41dLWGUZl56EtbicYzXrnxR5ZNoRlmoo5D+dqi15ikYXHT5vFlYmX9USVqrGe2au3oS1zA3FvOnRwi8RVraDzWsJq42bsPcmrLOloP88XWiE9RJf1RNWE2lx7ExYV1NR//lYbDPCeoevKgqrCWMtXQkrb+eworDa2avxCmHl/NBVRWG1EGVXV8La716F1dSksHdhZf0wX01hxW75E/bMiBdWa4naZ1dJS6sJnQsr74dEqwpLfsrXPQnLNSYs3elD3bewXN6z/+sKS34fqyNh2btnYTV0eV0La8x8clplYYk31tqNsNa7b2E10GB4gbB07pMeawtrULKbD6obYY29C/16O/YAAATiSURBVGsZEVZt8p+kXV1Ywve8216Eddy9C6sZY/UrrAIfiakvrGEbO3popAqrra2VgWPfiLF6FdZc4lO7AoQ1LIJfGHGdCEvfLxBWI8bqVFi6yIdKJAhL9HylD2Gp+xXCasNYfQqr0CeAZQhrMGJnLGsPwlrmlwirCWP1KCxX6kO7QoQld1poehDWeb9FWMMyIazyTMW+WylFWM+0UGYVYDsQ1nW/R1gN7CDtTliu4Gcr5Qhr2DTCyiKsxb1KWMM1I6yS7CU/Cy5IWDKLrLN9Ye33u4Qle6NMb8IazTC8VVgSGxC6eWGZ+23CEj4t7ElY8zEMLxbWc2+kJcexeWG5VoUV856HcQirRMNkGV4uLHkvF7YuLNuqryLHwiKs7BllGwaENSx2RljJWO+XCkvoIk4/wqqhK5HCEqasxoU1tius6PaIGRFWX7oSKixBypr3xoXVrq/uBMtPSmAry/9ITnHCmvdKuhIrLCHKGlV8U7GysM5XC+tRlqgqS9tryR1C+Y17LMOAsMTFmkuTRioL62pXWKkWnmU4e5zUWiSEcs8FzVATycJ67lS1fVnzlOp1g9qrhPPbhTUM2z5XdtVhyoVQ1iupWVw1IKxnZniMLdtKgLCmVn2VNNyuSmWWjnSVJGG5ep2rdoT1tTC/u7K3JW3NW1tYzW50PxOnPlXWWbO2au3nFo52HSTQgLAKOms+j62uMDLsdD91m6Q/IHy5piJxNJ7WbB3lnPlU2yAEj8118Sv8UX2II3eC1DZLO3H12b/o1AB5c99xZmxouXRlVbCwJjs28FhEpB2j7KT132pbvdvLLPV/qrGZNi+76chZ8G7PEO9az38LdG2tWfFJmeSndp1DVbmebO8ifbmSPCnuPESHpHk47E+u59/ifrCxp0tdvpdz8foM6fXLENuvMd9QSI1SS1ntkphqep6UvDEf1FVYHy0HF5PPRUkoUTpheaw1plCVMgzmu3nSx65DYunHvEOVSTYRbdDlKUG0T7U1PpdFCs1UrYTF2vhkD8U9gd9nF8p+Tdv/VnR9rQRM31Vx4R8Xv27zY+6k/6kt8fzHae1hyN/FYm3Sf+sRjd+hdhjaRPBZDf8r1SM88ULz9vPSmPYJKLwM9wO6Ssm1d8YAACAsAEBYAAAICwAAYQEAwgIAQFgAAAgLABAWAADCAgBAWACAsAAAEBYAAMICAIQFAICwAABhISwAQFgAAAgLABAWwgIAhAUAgLAAAGEhLABAWAAACAsAEBbCAgCEBQCAsAAAYSEsAEBYAAAICwAQFgAAwgIAQFgAgLAAABAWAADCAgCEBQCAsAAAEBYAICwAAIQFAICwAABhAQAgLABAWAgLABAWAADCAgCEhbAAAGEBACAsAEBYCAsAEBYAAMICAISFsAAAYQEAICwAQFgICwAQFgAAwgIAhAUAgLAAABAWACAsAACEBQCAsAAAYQEAICwAAIQFAAgLAABhAQAgLABAWAAACAsAEBbCAgCEBQCAsAAAYSEsAEBYAAAICwAQFsICAIQFAICwAABhISwAQFgAAAgLABAWwgIAhAUAgLAAAGEBACAsAACEBQAICwAAYQEAICwAQFgAAAgLAABhAQDCAgBAWAAACAsAEBYAQHIWu+v5I1k5vduNAQOA2qxGWXtqrf/fUvrxlDUGVUHr/Af5yImNTKKbOQAAAABJRU5ErkJggg==;" vertex="1" parent="b1W5nlMtBY8Uv-4wOHBY-13">
          <mxGeometry x="13.779999999999973" y="26" width="52.44" height="24" as="geometry" />
        </mxCell>
        <mxCell id="b1W5nlMtBY8Uv-4wOHBY-43" style="edgeStyle=orthogonalEdgeStyle;rounded=0;orthogonalLoop=1;jettySize=auto;html=1;entryX=0;entryY=0.5;entryDx=0;entryDy=0;" edge="1" parent="1" source="b1W5nlMtBY8Uv-4wOHBY-17" target="b1W5nlMtBY8Uv-4wOHBY-41">
          <mxGeometry relative="1" as="geometry" />
        </mxCell>
        <mxCell id="b1W5nlMtBY8Uv-4wOHBY-17" value="BD team updates status to either interested/lost/converted" style="html=1;rounded=1;absoluteArcSize=1;arcSize=80;whiteSpace=wrap;fontSize=11;" vertex="1" parent="1">
          <mxGeometry x="1460" y="-665" width="180" height="50" as="geometry" />
        </mxCell>
        <mxCell id="b1W5nlMtBY8Uv-4wOHBY-20" value="" style="image;aspect=fixed;html=1;points=[];align=center;fontSize=12;image=img/lib/azure2/management_governance/My_Customers.svg;" vertex="1" parent="1">
          <mxGeometry x="1520.0000000000002" y="-705" width="49.29" height="40" as="geometry" />
        </mxCell>
        <mxCell id="b1W5nlMtBY8Uv-4wOHBY-30" style="edgeStyle=orthogonalEdgeStyle;rounded=0;orthogonalLoop=1;jettySize=auto;html=1;entryX=0;entryY=0.5;entryDx=0;entryDy=0;" edge="1" parent="1" source="b1W5nlMtBY8Uv-4wOHBY-21" target="b1W5nlMtBY8Uv-4wOHBY-28">
          <mxGeometry relative="1" as="geometry" />
        </mxCell>
        <mxCell id="b1W5nlMtBY8Uv-4wOHBY-21" value="" style="shape=image;imageAspect=0;aspect=fixed;verticalLabelPosition=bottom;verticalAlign=top;image=data:image/png,iVBORw0KGgoAAAANSUhEUgAAAdYAAACMCAYAAADBeIh/AAAACXBIWXMAAAsTAAALEwEAmpwYAAAF+mlUWHRYTUw6Y29tLmFkb2JlLnhtcAAAAAAAPD94cGFja2V0IGJlZ2luPSLvu78iIGlkPSJXNU0wTXBDZWhpSHpyZVN6TlRjemtjOWQiPz4gPHg6eG1wbWV0YSB4bWxuczp4PSJhZG9iZTpuczptZXRhLyIgeDp4bXB0az0iQWRvYmUgWE1QIENvcmUgNS42LWMxNDUgNzkuMTYzNDk5LCAyMDE4LzA4LzEzLTE2OjQwOjIyICAgICAgICAiPiA8cmRmOlJERiB4bWxuczpyZGY9Imh0dHA6Ly93d3cudzMub3JnLzE5OTkvMDIvMjItcmRmLXN5bnRheC1ucyMiPiA8cmRmOkRlc2NyaXB0aW9uIHJkZjphYm91dD0iIiB4bWxuczp4bXA9Imh0dHA6Ly9ucy5hZG9iZS5jb20veGFwLzEuMC8iIHhtbG5zOmRjPSJodHRwOi8vcHVybC5vcmcvZGMvZWxlbWVudHMvMS4xLyIgeG1sbnM6cGhvdG9zaG9wPSJodHRwOi8vbnMuYWRvYmUuY29tL3Bob3Rvc2hvcC8xLjAvIiB4bWxuczp4bXBNTT0iaHR0cDovL25zLmFkb2JlLmNvbS94YXAvMS4wL21tLyIgeG1sbnM6c3RFdnQ9Imh0dHA6Ly9ucy5hZG9iZS5jb20veGFwLzEuMC9zVHlwZS9SZXNvdXJjZUV2ZW50IyIgeG1wOkNyZWF0b3JUb29sPSJBZG9iZSBQaG90b3Nob3AgQ0MgMjAxOSAoV2luZG93cykiIHhtcDpDcmVhdGVEYXRlPSIyMDE5LTExLTE4VDIyOjA0OjUwLTA1OjAwIiB4bXA6TW9kaWZ5RGF0ZT0iMjAxOS0xMS0xOFQyMjoxNzoyNC0wNTowMCIgeG1wOk1ldGFkYXRhRGF0ZT0iMjAxOS0xMS0xOFQyMjoxNzoyNC0wNTowMCIgZGM6Zm9ybWF0PSJpbWFnZS9wbmciIHBob3Rvc2hvcDpDb2xvck1vZGU9IjMiIHBob3Rvc2hvcDpJQ0NQcm9maWxlPSJzUkdCIElFQzYxOTY2LTIuMSIgeG1wTU06SW5zdGFuY2VJRD0ieG1wLmlpZDpiZTg0OTU5ZC03Zjg2LWU1NGUtYmUwZC0wM2Y3YWI5NzAwMTQiIHhtcE1NOkRvY3VtZW50SUQ9ImFkb2JlOmRvY2lkOnBob3Rvc2hvcDpiODMyMjFjMi1lZTFkLWQ5NGUtYWM1Yi1hOWFlYmQ3NDNmYTUiIHhtcE1NOk9yaWdpbmFsRG9jdW1lbnRJRD0ieG1wLmRpZDo5MDZjZDBmMC1lOGZiLWE0NGQtOTk0Mi1hYzQ2YjUzNTBlNTEiPiA8eG1wTU06SGlzdG9yeT4gPHJkZjpTZXE+IDxyZGY6bGkgc3RFdnQ6YWN0aW9uPSJjcmVhdGVkIiBzdEV2dDppbnN0YW5jZUlEPSJ4bXAuaWlkOjkwNmNkMGYwLWU4ZmItYTQ0ZC05OTQyLWFjNDZiNTM1MGU1MSIgc3RFdnQ6d2hlbj0iMjAxOS0xMS0xOFQyMjowNDo1MC0wNTowMCIgc3RFdnQ6c29mdHdhcmVBZ2VudD0iQWRvYmUgUGhvdG9zaG9wIENDIDIwMTkgKFdpbmRvd3MpIi8+IDxyZGY6bGkgc3RFdnQ6YWN0aW9uPSJzYXZlZCIgc3RFdnQ6aW5zdGFuY2VJRD0ieG1wLmlpZDpiZTg0OTU5ZC03Zjg2LWU1NGUtYmUwZC0wM2Y3YWI5NzAwMTQiIHN0RXZ0OndoZW49IjIwMTktMTEtMThUMjI6MTc6MjQtMDU6MDAiIHN0RXZ0OnNvZnR3YXJlQWdlbnQ9IkFkb2JlIFBob3Rvc2hvcCBDQyAyMDE5IChXaW5kb3dzKSIgc3RFdnQ6Y2hhbmdlZD0iLyIvPiA8L3JkZjpTZXE+IDwveG1wTU06SGlzdG9yeT4gPC9yZGY6RGVzY3JpcHRpb24+IDwvcmRmOlJERj4gPC94OnhtcG1ldGE+IDw/eHBhY2tldCBlbmQ9InIiPz4TCwasAAAdBUlEQVR4nO3debhcRZnH8W8SIDAQljSLjgwtCChhi+zIIrK4wYCAo84MirvSiIOMM4COI6IOijCChIZBUcQFUcABQdkiUUDDKhAloIC0GGRJA4awBpL549c9aTrn1Nmq7+178/s8z30eSHefPrfv6XrrVL311oQlS5ZgZmZmcUwc7RMwMzMbTxxYzczMInJgNTMzi8iB1czMLCIHVjMzs4gcWM3MzCJyYDUzM4vIgdXMzCwiB1YzM7OIHFjNzMwicmA1MzOLyIHVzMwsIgdWMzOziBxYzczMInJgNTMzi8iB1czMLCIHVjMzs4gcWM3MzCJyYDUzM4vIgdXMzCwiB1YzM7OIHFjNzMwicmA1MzOLyIHVzMwsIgdWMzOziBxYzczMInJgNTMzi8iB1czMLCIHVjMzs4gcWM3MzCJyYDUzM4vIgdXMzCwiB1YzM7OIHFjNzMwicmA1MzOLyIHVzMwsIgdWMzOziBxYzczMInJgNTMzi8iB1czMLCIHVjMzs4gcWM3MzCJyYDUzM4vIgdXMzCwiB1YzM7OIHFjNzMwicmA1MzOLyIHVzMwsIgdWMzOziBxYzczMInJgNTMzi2iF0T6BqmqN1mifgpkN1mHAB4BNOv9/P3AO8NVROp9o2s16pdcv7+1f1c9vUMZ8YDWzcW0GcHjfv20F/DewDfDuET8jswweCjazYbULywbVXocAB4zQuZjl5sBqZsPqPTmec9DAz8KsIAdWMxtWU3M8528GfhZmBXmOdXzYGNgSzTltCNSAFYHFwCRgATAf+G3n51bg8VE5U7P85gBvz3jO7SNxImZFDFVgrTVavwBWHe3ziOwQ4K4BHPdVwDuAfYEdUCDN6xHgGuCHwEXxT80sirOAzwUefxE4e4TOxSy3oQqswO6jfQID8DLiBtZNgGOB9wITSh5jXeCdnZ+5wKnA/8Q4ObOIHgL+HvgBy3a4n0bzq38Z6ZMyyzJsgfVJYMpon0REf0Vr7mL5T+DTwEoRj7kZcCZwKMrA/E3EY5tVdSm6Rg9F0x1L0BDxd4A/jeJ5maUatsA6nnwfOAZ4IMKxNuwcb6cIx0qzM5p7/RDwjQG+j1lRDwBfGO2TMMtr2ALreLhbvQP4N+DKSMd7LTATWCvS8bJ8HQ0V/9cIvZ+Z2bgybIH1RpSIk9c9wHloSGhtYHXKzzv2ewF4EHg58FFgnYznP4uGar8S6f0BtgBmod8rrz+hz+XPwPPo81gPmAZslPMYXwTuQ3NbZmZWwFAF1nazvmOt0XoXcDQwPcdLpqJg8XMGM3y5PvAlsjOVvwt8FgWjWNYGriVfUL0PzTldDtyA5qGSTAfeguarXh043iw812pmVsqEJUvS2uDRVWu03gN8HNg250vuQdmt30B3j1WsD3weZd6G3AF8Brgk5fEN0JKAeSXO4RdkZ0kvBD6FliU8V+DYE4EGyZ2GS1EmZh4rApsD26EOzqvQHX7vov0lQAu4GY1I/LzAefZ6A/CalMeuQn//XusDe6O7/s3QiMNE4Bn09/hd55wuJ70jkmR39Ptuif6+a3T+/Uk0WjAHuA6YXeCYoOH3g1MeexC4OOHfNwF2Q+uY10MdzeeBdudc/oiuo4cKnkvI6mi99Jad992g8969CXWLULb5bZ33r7LWdG+WFt/v1wJ+WuHYa6Cyia9G1+8anZ8n0Drv+9B3/Hr0O/U7EGX9J/kh+jv02hF9dv1eAM5tN+sv+Q7XGq06sBcaber+jVfsPH8+cDe6jmeiz2IQNgJej77nG6PrdCXU3jyCrrHfoeV7ZW4sVkQd/aTlgs8A56L1+L1egdqDTVGbsD6wuN2s71ri/QdiaANrV63R2h/4JGpA8rgf7XrxHcoVQTgCJUqE7hSfRcOloYSKw1Dgejtq+Iv4KHBGxnNmA/9ItazjjdBQenf4/XzgXTlety9qVPZBDWsRd6DOz+ks+4UJ+Rnw5pTHDkOZzaDf5d+B/cm3tvdetNToFJIbT9D89kdQRyt0p9/rdjRffXrO5++KRiiS3I8S2LreixqjPXIc91ngl+jv/D3Sf8eQKWhpy/7AnsCaBV//c6AJXFjiva8h/fe8DeUgFHUQWl++F/lGhB5AHZuzUMepax7wtymv2RF1JHt9HfhgyvPXaTfr8wFqjdaBnee9kXyjii8AlwEnk34NFfVP6Drbi3wV+hajTtQ5KBjmtTpaPZFmMuosggL8kcBbSVgZ0W7WY00DVjb0gbWr1mi9EziK/HOwD6PgdDrq3WXZHc2PZh3/QtRwp/XOtu8c5/Wd/59OsR776ugOJTT8fDkKbkUCU5pJqIFqAftlPPfd6G8wPcL73oEC4q9yPv+bwPtSHtsN3SWejM6vjLtQQ3JD379/BDge9dTL+BXqAGUtDdkOuCnlsV+i62lD4FssvbaK+j1aA523KMgU4F9RI/+Kku/Z60K0pOvhAq/5HmrkkxQZXQF9bl+iWnb9KSg58QXUud0x5XnTWfZ7/1/o8+/3XLtZX7nWaK2CbgjSRi7yOBndiJS1M2q/dqlwjJvRZzQrx3NXQx2UpA7OY6iKHKjz++HAcZ5sN+tFclEGaqhqBdcare3SHms36+e3m/Ud0Rfp8hyHWw84DvgDuqDTko/WQ9VbfkE4qM7tvPfbSQ6qa6Atrm7kpQ3fpBzn2usowkH1XuIFVdBQ9daEg+ruqHE/lzhBFbT11/VoSLqKJeiuYQblgypoSOnXaIip69voTrhsUAV4Heq4bF7hGH9Ew4G3Uz6ogobOLkR3Xlneg+7OPkucoAoKGLeRHowG6cuooa+6ZO1I4BbUnsQafp1Xa7S2QgGpSlAFdYT+t+Rrj0YdwSpBFdRJvAYlc1bxILAKau9DQXXoDFVgBW6sNVpX1hqt1LHydrN+abtZfwsaDpiV45hrol7iXNSb6x1S+xiaH3h/4PXPowA9HfWQk3wIuJPwFld5TMpxjJhBtSvreNPJPxRf1OlU/9zOjnAMUAb1ZSgIfpN8u6vksRZqaFYr+fqd0bUeaznah8heDnYoMIhdpF+GGu/UTvQAXIRGmWLpdgq3iHS8NdFnMi3S8Q5ACZVFnIHu5mP6HGpzy5qIOglvinI2I2jYAusSNG93ba3R+kmt0XpL2hPbzfrP2s36G9CdVp4Ehhq6o5mL5mB/BpzG0qGGJD9BczifY+k4f69dUAN1FulzLUW8EWUDp5mBEhZG2tdQx2FQZqC5uzImUD5gJVkF3VWlDTuXtQ76PcvYlOzlXkXtQ/h78140mjEIE4ErKD5XW8Z5KB8gtk2IFwinEr9G+j+jkqV5fAXldQzCUYTrPYdMQ21iHiuXfI+BGKrlNsBTLO2V7wfsV2u0rgXOaDfr56W85rLOz65oKCNrnnAyGs4Jua9zrAtSHp+Khsg+nnGcot4WeGwx5S/QGA5Hd11JbkTDhjehTMjH0LVVQ1+OPdGQaMgFaMjxmRgn23E/6og8jIbqN0R3G1myvhfzUEfjIRTU6yRne/Y7FE1L/D7Hc/Oa0/l5AHVMN0AZu1vmeO1bOufzqYTHHkDDp0mPPYPmom9BuyU9jjJpV0Udwx1QNm8o0Wsqmj/dN8d5lnUE+ZLxQDWHf4Oyy59CDfXG6HoZxJ17Xs+h79ejnfN6GfpO5RmePw34Mck3BV3vIN+c7E0oCa03eWtz9N3OGtr/T5S5/Msc71PUEtQBHKqbxGELrEl2A3arNVpHAKcFAux1nZ99UMDLCrBputm+aUt23oeGTKrMu6UJXaBXkS8Ja1BmoS/HXp3/7yaHXYga15DPoL/LSaQHtrU6z0tqyIua2XmvWSz7d8zbAUsyGzgRuBotr+m1LWqgshryjxGnQ3YxWl6W1tnZs/M+B2Qc51g0l5w0EvIFNAe+Zuf/b0XD7pcSTsY6FzV070GjHWlD2G9F19PMjHMsY/3Oe2e5Fo0kXEFyduoqKBv9Y5QfVSmjha61n7ab9ft7H6g1WlNQp+jThDuK66A527Q2cy30tw+ZjQJjaGXD61GCX2h54HdRxzbGKMiVaLTl16hD9yJxR60qG6qs4FqjtYDseaRbUNr62e1m/YVaIzV/YGd0Z/qOnG9/CWrY70h5fAd0oRdNHtkWNUhZXobusCanPH44WrIwmrZBnZcz0RfpiYKvn4QSNKanPP4cSiZLauBCWcG9/gN1jrIUzSA+BfhEjucdS7gc5Dx0B9TfwISygvv9E+mNZb/3k7212uWooU7yKVTz+hM5jpNkM3THldbwzUbf1TRls4LPRVnsIZ+k2Bzg4eQfzp9O/qzgfpcA72436wtCT6o1WhPQ3y40XHox6SNhZxAeAv4Gmo/P66uERwMbLLuMMJQV3G9O5xjXdf+h3RzNwYR0Q3X7nNO2qGGfW2u0juKlxQh6/RrNMbwOLdZOcx/6Ah5AclBdHX35bqBaRmaWDUgPqqAOxWi7FQ0xHkXxoAoKJv9AerLUZPJ3hJLMIF9QBWVP5l0GdTH5girACaTfRYKG8DbNeawkbyV/UAV1SLIyTd9M+rDtqShJp+y+p3PR0os0O6HCIjGtjZY4hRxK8cSa09H610Ga3W7WD8gKqgDtZn0JGnkJLV/aheSRyXXRUrI0l1IsqIK+I+cHHj+y4PF6dcvdXpf1xGEwFgNr18boi3En+uKm9Xi6AXYHtENMr5PQfEVaBt0hqJeU587mNLRkp6y0Ci6gO7kYu+TEcG/F199DeLlUkXWJvR5Fc2pF5Ll7eJri2cFZGajTCx6v63iUdFfURehuIuTQlH9/iurbs53JslWIeu1f8fj9DiI8zfVtihUx6PU9yiehZXkRLecrYhHhzuTaJFcsO4T0uuoLUQe4jENI/1tvSrls8IXorrxqRb0RM5YDa1cdDdHehZbFrJ/yvJtQptxOKCljJxSQk0oBboUa/++QXVnoLhQMPk610nGhKkGPAZk92DEkdEe3FeXm/ssMk19JdnWu71L8s7+ZcAfklQWPByof99kSr+s6lvDvsXeFY+cRKvFYZOONPEK/y9PkH31IczTqcMT2o3azXqb86XmEl8xtmPBvoUzpUykfxF4A/jvweJlkteMJV2caOuMhsHa9HDU8c9EfNm146QY0Z9RfYQeUCXgiGiLMWjv1IpqTncbS9a2hpTtZQl+MRQxu6cNomBN4bH3CS47S/G+J17xI9rxmmTJ8oJGSNGWWVvxPyfPoeo5lR2x6bU25zz2vUCb0KyO/V6gYxyWUK3Xa62nyV68qosgQf6/5hBMI++e3p5J+5/g8CmRVfAkF2CR5sud7PUP1a3/EjYWs4KJWQz3Sw9FE+XmoIX8643WHoOUsebZWuwBl5PU3FlUKN4TqXK6Ffq+YS1FimIq+KK9BHZm8ay3TRhVACU5Fr8tH0MhBGQ8GHnuG9GS2LH8JPJbW6ITkqTaW5TLSk1VWQtMrWZnnG6HO5DR0J5S3aEVoM42Y7dDKhK+vqyO9zyyyk6OKWES1HaX+THqGcH+n/DWkr/t8DOWlVK27+yTJe0inbaiQ5teMwdG68RhYu1YC/gUtdN+J9IZ3GzSEnGdu7x50lzqIfUofCzw2BQWtRwfwvmV0t57bk/iFCxZTvIPyIOWHrkJr/OZTfolT6LhFPYVKc1b1e7TuL63R3ID0Idv3o+zc3UgogF5RzNGYdUhPaIRwh6eI/t2UqnqUat/vItd/6Du7HuGpmqrWRX+frBudrjwrKobOeA6soHTxU0gOqquipRnH5DjOYjREfBzFtmcrotV5n7Th+S0YbPWjPDZDc5l7jPJ59Mv7JU0SGhZcSLm7Swgn6xT1ONV+x97jPEl6ol9SwHwbWiayWYT3HwmTCdfnjlUONPbo0UKqtS1PFHhuaMh/0DvETEY3Cnmv59Fcu1/aeJpj7XU9Wqz8IVQLuN870VxsnqB6JcriPJbBBVVQ5mUo+3KfAb53HnugJT97jO5pJBrUUNHCAR23qAnEafAWE7477F/UfhSq3DNWgiqoQxO6e4tVOvDvIh2n68nO8pmRMDzFC7L1F2IZE8ZbYL0fzXuk7W25FZpn+gHZX4x5nWO9iXCyTSwvohq1aQ5k8L3JNOuiOb5VRun9s1S5jkOf6aCOW9SqxBldWo1whZreoPv3VCugPloeJzykGprrLWLrSMfpqtoWF7neHqn4XlWsRrHRlzGVDdw1XoaCn0eFpE8gOQ3+b9Ad57Hk28btZLQ2rGr2YFGXk14lpYbmi781UifT42uEi1d0zUS7dPwZ3d2HPr8zUSa3ZVsTZc7eVvE4GxNe1tWdf1yBfNfZX1EpwJs7/72Q9Lv8OvlKDMZwD+nL5N5OnLKZRdebDpNQQYln0Drsp4g/lz4RDVkXuQstuu3mUBgPgfUiNFc6N+XxA9G61TzZaNegbN/QUolB+hEKOGlORAvUYybGZKmTvUvG3aiIwo0FjnsCDqxF7E71wBqqHLYE7fsKChpZS8fOR5V08q7dnsLIBdYbSK/ruwmqRFV2GRVoWibWzjaj4V5015iU5DUZtamhbHnLMJaHgm9FpdgOJjmobopK0V1EdlB9FC3P2ZPRC6qgzOBQSbC1gXNG5lT+X9bc7lOo0S8SVGGM9kRHUdHycklCy0P+wNI5/tTtGjtuRpsNFCmIEmuz9DzSdqXqOgstFStjFUZn1Cimx0hf2jORZev5WkFjMbDOB45oN+vbtpv1KxIen4AWOM8hX6m0s1ia7ToMshZn/yNxN20GFdT4dMpjSeXQel1GuTmbodo/cQzYgvJl5gA+TLgQw6ye/86qZRwaVUkzkgVObiVcMGEqKj9atCDGFLR12kh2Egbl0sBj+5O9FZwFjLXA2gQ2bzfrabU6D0ZfqM+QPT8wG63J+whxl0ZUdSfZPeIvo6HUGE5GBTW+AByW8HjWrhN/LvGeryO7VKQt61uU+9w2Ibu+bW9Vpqy/eZnSnWk71AxKWkexaws0tJ5304eDO8/fqfwpDZXvZDz+E6p1IP6ZfLtRjUtjJbDOBLZvN+uHt5v1pLujzdAONheQPfexANUI3pn4OyXEWiP3L2Rnwx2DLv6ycz3T0FKi3g0GmmjXl15ZS07KZEeezehlOI9lq6I8gCLLX16L7kZDSUtzeekGEll1cLco8P6gqlyfKfiaqi7hpXfhSV6Bpl5uQlvI7Y1WC0xF1Zv2RPPIs1Hbkqcq21gxj/BGBOugRMQydZw/gmpsf5Pl9M532AJr//qqu4GD28363u1m/eb+J9carUmoaMOd5Bsm+z5qFE6qeJ6D9iT5sg73Q+t0z0bbQ+WxHRr+/h3J86cnoWSw7h1/WlJY116ENzjuNRk1eFnDy5ZuI1TL+khgjcDzVkcdyFuAv804Zv/UQqiuL6gzlmf/TFAH7hpGZ079H8hXOGE7tKrgKvS734fmnGeiXYHGa3A4hvAQ/QYoEWwG2i4yZAW0ROtqXjpVcBXhEpPj0rBlBXez1BaiC/3L7WY9sShDrdE6CA2H5tnb8rfoTuzKGCcZkLSLRFlXox1z8mRSvr/zcwdqSG9HQ7SLOo+/HK3h3Y58PdDPo0SWc8lXW/WnaAPitB7wBDQ3fBzFa4XaslZEDf4x6Jq+kaWJR68EtkcdnjxZ11ew7Hzbz9BQXpp10WjPh0kvgbg2uiaPY/TWP89Hd6G/Iv/SkZXJP/8fqpQ2FvwF+CDZU0+Hd36uRTcxc9CynAnozrbbtiR9t7vz0tsxBmv+ljVsgXUFdEdzZLtZ/2PSE2qN1qtRw5/nDrW7lVwo0zaWT5K+WXRZp7F0x508tiK9EHcRV7E0oP4RZVYfFHj+qmiPy39HDf2f0J3COugzeT1aQ2lxrYcyfcsWg38EZff2+xHaOiy05GZLlEF/LWo4H0bLwNZFjegelM+8jekWNKd/KeE9j4u4rnO8zzO2AytolcGW5NtzerfOT1GboGtke8ZW1afShi2w7tpu1q9PeqDWaK2AgtfnyN/7XIAumj3IvwtHGZuii2YQvoJ63l9nZIbTLmDZTsvHgQNyvP/mhLfs6jXWe/sj6QXif1cXAm8geaj0eeAD5NuKr0hju4jwXO+g3ILmmmegJKSyHuoc44toePNLgeeOpRyCf0XnW3Wf2pDzWU6CKgxZYA0E1Tehub+iSRM7EH8T5aJiNCTfQsO8ZzC4AA5KMPlCwr/PQxsUx9i6DPS33Jn888LLu8WoY3Mgqr5V1V0owIQ2dbgYdWKrbK7e63jgCJK3EhsJD6G8hQNRcmCoWEa/e1Fewlks7YhkZQePpcAKumNtoSmGmOf+NNqS88cRjzn0hvqOodZo1WuN1vmoQS8aVIfFE5GOcwvqJHyCcEmyMi5A2+clBdWuK9Adzv0V3+uzKKlmWOsOD6OV0LDr+1AVrKzkopAz0aYSeXZKOg4FoUUZzwt5Bs33fh6VZhxtP0YjWDugJL1r0HRHf0b/PShn4GA0lHkiL/0uh4r5L2ZszieeirL8swps5HUBmpparoIqDHFgrTVax6Cko7zrzIbR1SizOaZTUFbtx6hWJeqvqOHYDQ395tlkeRb64h0PPFDw/a5BWcjdAhjbpDxvIskjKaE1dfWC59JrvcBjr6pw3ND85Loljtdd6vFD1Mk8guSdm5IsRHPg26K1ykV2afoamk45h2JbpT2LRlqmofm1LUm/EwotYwlllFZZC30TGtLdE+UBTEPX5Dbo83012nP4IpKHMENTHo+QXBJwUNcahL8foezxfnNQe7A7mn4q2olfgIZ99+gc596M508knGG+ZsH3HwpDNRRca7TWQr3y44m3vdNo+S2DWxT/BHB652caynzcCjUK66CGexLqOU9Cy3fmo2B4AypJN5NymwwsQHedJwBvRUsRtkbBbULf8+5EQ9gzUaZyr4+SPCy4hORN308lfQPmxES3nM4heb9eKFcIoeti0ouNl1k/3bssYhGa65uBlly9GTVkNZYWOn8YVSC6DWVtV9nR5G70vfw0Kne4DQqU/R2ER9Df+3ZUkas3uMxDm2AkCdWlPRllKSeJtdn4Iop3gPcNPHY/yZ2Qc0nfsL7qKFTo+5G001eWazs/R7F0Sm0TtM53CvruLuj8PIxGUX6Dru2k72+aZzvvkbbJx89LnPuom7BkyfDMJ9carXegnvgqKBU8VsGFkTYLBb2RLJbfNRn1XldEjfEkdHdaJUjY4G2H7qLSbI86RCFTUGAdk1ttjSHbE66NPQO1Y5nazSqDLVBrtCq9fqyr+vkNylDdsQIXtpv1HxZ5wfJ+YSV4Di1wt+XPmNwUesC2RnkJRxMvN+EbGY+H6vDacmCo5ljbzfpIFuo2s/HvZDRXOgdVq0raKi2viWj+MLRWfD75iqrYODZUgdXMLKL9UUYyKPfgq2g+/QQ0nFuk/XszGqrPSqY8iZHdyceG0LANBZuZxTAJZbX2+ztUCvIYlLF6LUp+uxslXy1AAXdtVB5yGvBG8pVObaM7ZFvOObCa2XgzAZUDzVrW9CqqL3Pp9S5UJcuWcx4KNrPxpkby3sKDdBieW7UOB1YzG28eR+ury6zfLOODvHSrNFvOObCa2XjzIlpnujsanh1UgL0G1Qw+e0DHtzHKgdVsOGTVTnZt5XLORwF2V7RT1G0Vj/cs2tpyX1QO8YaKx7NxyMlLZsOhhXYvCj1u5V3f+QHVAn4tqnb1CpT9uzbLlth8CngUffYtVK5vNv5bWIahKmloZmY21nko2MzMLCIHVjMzs4gcWM3MzCJyYDUzM4vIgdXMzCwiB1YzM7OIHFjNzMwicmA1MzOLyIHVzMwsIgdWMzOziBxYzczMInJgNTMzi8iB1czMLCIHVjMzs4gcWM3MzCJyYDUzM4vIgdXMzCwiB1YzM7OIHFjNzMwicmA1MzOLyIHVzMwsIgdWMzOziBxYzczMInJgNTMzi8iB1czMLCIHVjMzs4gcWM3MzCJyYDUzM4vIgdXMzCwiB1YzM7OIHFjNzMwi+j80GJHRv05uQAAAAABJRU5ErkJggg==;" vertex="1" parent="1">
          <mxGeometry x="605.5300000000001" y="-450" width="108.93" height="32.45" as="geometry" />
        </mxCell>
        <mxCell id="b1W5nlMtBY8Uv-4wOHBY-24" value="" style="group;strokeColor=#C9C9C9;" vertex="1" connectable="0" parent="1">
          <mxGeometry x="1130" y="-670" width="123" height="70" as="geometry" />
        </mxCell>
        <mxCell id="b1W5nlMtBY8Uv-4wOHBY-28" value="" style="rounded=1;whiteSpace=wrap;html=1;fillColor=#0F0F0F;" vertex="1" parent="b1W5nlMtBY8Uv-4wOHBY-24">
          <mxGeometry x="-12.412844036697246" width="135.41284403669724" height="60" as="geometry" />
        </mxCell>
        <mxCell id="b1W5nlMtBY8Uv-4wOHBY-22" value="" style="html=1;verticalLabelPosition=bottom;align=center;labelBackgroundColor=#ffffff;verticalAlign=top;strokeWidth=2;strokeColor=#0080F0;shadow=0;dashed=0;shape=mxgraph.ios7.icons.mail;fillColor=#171717;" vertex="1" parent="b1W5nlMtBY8Uv-4wOHBY-24">
          <mxGeometry x="22.56880733944954" y="10" width="47.39449541284403" height="22.602739726027394" as="geometry" />
        </mxCell>
        <mxCell id="b1W5nlMtBY8Uv-4wOHBY-23" value="" style="html=1;verticalLabelPosition=bottom;align=center;labelBackgroundColor=#ffffff;verticalAlign=top;strokeWidth=2;strokeColor=#0080F0;shadow=0;dashed=0;shape=mxgraph.ios7.icons.mail;fillColor=#0A0A0A;" vertex="1" parent="b1W5nlMtBY8Uv-4wOHBY-24">
          <mxGeometry x="47.39449541284403" y="22.602739726027394" width="47.39449541284403" height="27.397260273972602" as="geometry" />
        </mxCell>
        <mxCell id="b1W5nlMtBY8Uv-4wOHBY-32" value="Series of emails based on selection" style="text;html=1;align=center;verticalAlign=middle;resizable=0;points=[];autosize=1;strokeColor=none;fillColor=none;" vertex="1" parent="1">
          <mxGeometry x="1090" y="-590" width="210" height="30" as="geometry" />
        </mxCell>
        <mxCell id="b1W5nlMtBY8Uv-4wOHBY-40" style="edgeStyle=orthogonalEdgeStyle;rounded=0;orthogonalLoop=1;jettySize=auto;html=1;" edge="1" parent="1" source="b1W5nlMtBY8Uv-4wOHBY-28" target="b1W5nlMtBY8Uv-4wOHBY-17">
          <mxGeometry relative="1" as="geometry" />
        </mxCell>
        <mxCell id="b1W5nlMtBY8Uv-4wOHBY-41" value="" style="ellipse;html=1;shape=endState;fillColor=#000000;strokeColor=#ff0000;" vertex="1" parent="1">
          <mxGeometry x="1810" y="-680" width="82.58" height="80" as="geometry" />
        </mxCell>
        <mxCell id="b1W5nlMtBY8Uv-4wOHBY-42" value="Lead exit&#39;s workflow" style="text;html=1;align=center;verticalAlign=middle;whiteSpace=wrap;rounded=0;fontColor=#FCFCFC;" vertex="1" parent="1">
          <mxGeometry x="1821.29" y="-655" width="60" height="30" as="geometry" />
        </mxCell>
        <mxCell id="b1W5nlMtBY8Uv-4wOHBY-46" style="edgeStyle=orthogonalEdgeStyle;rounded=0;orthogonalLoop=1;jettySize=auto;html=1;" edge="1" parent="1" source="b1W5nlMtBY8Uv-4wOHBY-12">
          <mxGeometry relative="1" as="geometry">
            <mxPoint x="660" y="-800" as="targetPoint" />
          </mxGeometry>
        </mxCell>
      </root>
    </mxGraphModel>
  </diagram>
</mxfile>
